{"glyphs":{"0":{"ha":765,"x_min":85,"x_max":796,"o":"m 224 11 q 119 43 154 11 q 85 147 85 75 q 113 283 85 213 q 174 408 140 353 q 268 527 211 469 q 391 633 325 585 q 521 710 457 681 q 518 719 518 713 q 533 731 518 728 q 564 733 547 733 q 586 732 581 733 q 627 741 604 739 q 668 743 650 743 q 700 741 678 743 q 742 732 722 739 q 761 708 761 725 q 749 694 761 694 q 720 702 739 694 q 683 711 701 710 q 767 637 739 689 q 796 526 796 585 q 760 375 796 450 q 665 235 725 300 q 530 119 604 169 q 376 40 456 68 q 224 11 297 11 m 217 44 q 338 69 276 44 q 456 132 400 94 q 556 208 513 169 q 678 356 626 272 q 729 538 729 440 q 722 597 729 561 q 694 649 715 632 q 647 681 672 667 q 593 700 621 694 q 472 639 535 682 q 351 535 410 596 q 246 406 293 475 q 171 265 199 336 q 143 131 143 194 q 158 67 143 89 q 217 44 172 44 z "},"1":{"ha":558,"x_min":21,"x_max":638,"o":"m 42 4 q 26 19 32 6 q 21 42 21 33 q 23 56 21 49 q 32 63 25 63 l 200 63 q 296 229 247 140 q 393 409 344 318 q 488 582 442 500 q 457 567 479 578 q 409 543 435 556 q 362 522 383 531 q 332 514 340 514 q 318 531 318 514 q 331 547 318 542 q 364 563 347 556 q 396 579 381 569 q 472 627 436 600 q 543 681 507 654 q 601 713 560 713 q 624 709 611 713 q 638 694 638 706 q 632 683 638 693 q 606 639 626 672 q 544 538 586 606 q 431 353 503 469 q 251 58 360 236 q 313 58 278 60 q 385 53 349 56 q 447 47 421 50 q 460 39 460 46 q 449 23 460 32 q 426 14 438 14 q 345 14 393 15 q 242 10 297 13 q 135 6 188 8 q 42 4 83 4 z "},"2":{"ha":799,"x_min":-4,"x_max":814,"o":"m 28 8 q 6 13 17 8 q -4 32 -4 18 q 19 74 -4 56 q 63 99 42 93 q 126 108 90 107 q 192 108 161 110 q 366 214 275 158 q 533 329 457 269 q 646 431 594 376 q 711 565 697 486 q 713 574 713 569 q 713 583 713 579 q 691 628 713 617 q 642 640 669 640 q 522 617 586 640 q 397 560 457 594 q 294 493 336 526 q 283 488 289 488 q 268 504 268 488 q 276 519 268 511 q 365 583 311 551 q 478 641 418 614 q 599 684 539 668 q 706 700 658 700 q 781 683 747 700 q 814 619 814 667 q 782 517 814 569 q 697 412 750 464 q 578 311 643 360 q 449 220 514 263 q 327 146 383 178 q 233 94 271 114 q 408 72 328 82 q 588 61 489 61 q 639 68 608 61 q 693 91 669 75 q 717 133 717 107 q 697 173 717 160 q 658 195 678 186 q 639 213 639 204 q 656 225 639 225 q 663 224 660 225 q 726 192 694 214 q 757 132 757 171 q 727 65 757 92 q 656 25 697 38 q 581 13 614 13 q 378 29 479 13 q 183 63 278 46 q 135 41 164 54 q 77 18 106 28 q 28 8 49 8 z "},"3":{"ha":846,"x_min":38,"x_max":850,"o":"m 293 3 q 219 8 263 3 q 134 28 175 14 q 65 69 93 42 q 38 139 38 96 q 44 178 38 160 q 61 215 51 197 q 122 275 81 249 q 213 317 164 301 q 299 332 261 332 q 313 319 313 332 q 307 308 313 311 q 294 304 301 304 q 233 288 269 304 q 167 246 197 271 q 131 196 138 221 q 125 158 125 179 q 158 83 125 110 q 235 47 190 57 q 319 36 281 36 q 487 66 403 36 q 638 153 571 96 q 736 289 704 210 q 746 326 746 308 q 719 378 746 361 q 656 401 692 396 q 594 407 621 407 q 537 403 565 407 q 481 390 508 400 q 469 387 475 389 q 458 385 464 385 q 435 407 435 385 q 445 433 435 422 q 471 444 456 444 q 556 451 508 444 q 649 475 603 458 q 728 521 694 492 q 769 593 761 550 q 771 600 771 596 q 771 607 771 604 q 751 644 771 635 q 710 653 732 653 q 622 639 669 653 q 530 603 575 625 q 450 561 485 582 q 439 557 446 557 q 431 564 433 557 q 428 576 428 571 q 451 617 428 606 q 486 633 475 626 q 507 650 497 640 q 533 675 517 660 q 546 682 538 682 q 557 669 557 682 q 551 657 557 663 q 644 688 594 674 q 739 701 694 701 q 824 681 799 701 q 850 628 850 660 q 824 553 850 593 q 754 483 797 514 q 660 443 711 453 q 733 430 697 443 q 792 390 769 417 q 815 322 815 364 q 811 290 815 306 q 735 160 792 214 q 601 71 678 106 q 444 19 525 36 q 293 3 363 3 z "},"4":{"ha":797,"x_min":76,"x_max":835,"o":"m 419 -8 q 400 15 407 -8 q 393 49 393 39 q 405 110 393 72 q 431 185 417 147 q 456 244 446 222 q 406 247 429 246 q 363 247 383 247 q 192 237 251 247 q 104 226 133 226 q 83 238 90 226 q 76 261 76 250 q 93 293 76 285 q 131 303 110 301 q 167 311 153 306 q 228 342 192 322 q 292 375 265 361 q 374 424 325 392 q 478 494 422 456 q 587 574 533 533 q 683 647 640 614 q 749 701 726 681 q 769 719 758 710 q 793 729 779 729 q 819 724 803 729 q 835 707 835 718 q 832 701 835 707 q 733 568 788 640 q 626 423 679 496 q 531 286 574 350 q 594 280 557 286 q 665 274 632 274 q 724 293 696 274 q 751 346 751 313 q 749 360 751 353 q 747 372 747 367 q 760 385 747 385 q 781 370 772 385 q 796 338 790 356 q 801 310 801 321 q 776 263 801 278 q 717 244 750 249 q 661 240 685 240 q 606 242 638 240 q 546 244 574 243 q 506 244 518 244 q 453 131 467 190 q 440 10 440 71 q 419 -8 440 -8 m 185 282 q 258 288 214 286 q 346 290 303 290 q 469 283 428 290 q 526 383 493 328 q 594 492 558 439 q 663 582 631 544 q 498 463 586 524 q 328 354 410 403 q 185 282 246 306 z "},"5":{"ha":825,"x_min":50,"x_max":982,"o":"m 433 628 q 425 643 425 628 q 426 656 425 653 q 475 713 442 701 q 556 724 508 724 q 710 708 638 724 q 864 693 783 693 q 917 708 889 693 q 949 749 944 722 q 953 763 950 756 q 967 769 957 769 q 980 760 978 769 q 982 742 982 751 q 960 697 982 715 q 908 669 938 679 q 857 660 879 660 l 553 660 q 494 653 524 660 q 440 631 464 647 q 433 628 435 628 m 246 6 q 188 10 221 6 q 123 28 154 15 q 71 63 92 40 q 50 119 50 85 q 75 190 50 156 q 125 247 100 225 q 149 260 135 260 q 160 249 160 260 q 147 226 160 239 q 122 196 135 214 q 108 151 108 178 q 138 89 108 113 q 208 55 168 65 q 278 44 247 44 q 410 69 340 44 q 544 138 481 94 q 654 239 608 182 q 714 360 700 296 q 716 372 715 367 q 717 382 717 376 q 688 442 717 421 q 620 471 658 463 q 551 479 582 479 q 469 471 510 479 q 392 444 428 463 q 357 426 382 439 q 309 401 332 413 q 279 389 286 389 q 265 406 265 389 q 281 432 265 424 l 414 597 q 438 608 421 606 q 465 611 456 611 q 481 610 468 611 q 493 601 493 608 q 476 580 493 599 q 436 536 460 561 q 393 491 413 511 q 369 465 374 471 q 465 499 414 482 q 563 517 515 517 q 634 513 593 517 q 715 497 675 508 q 780 460 754 485 q 806 394 806 436 q 800 354 806 372 q 716 210 775 274 q 578 100 657 146 q 413 30 499 54 q 246 6 326 6 z "},"6":{"ha":743,"x_min":75,"x_max":864,"o":"m 261 -7 q 173 5 215 -7 q 103 47 131 17 q 75 132 75 78 l 75 139 q 112 260 79 201 q 194 372 144 319 q 299 465 243 424 q 406 535 354 507 q 599 634 499 588 q 811 697 699 681 q 846 688 828 700 q 864 657 864 676 q 849 638 864 642 q 797 626 824 632 q 743 611 771 619 q 591 557 667 588 q 442 490 515 526 q 345 433 396 468 q 248 353 294 397 q 169 258 201 308 q 125 154 136 207 q 123 140 124 147 q 122 126 122 133 q 142 67 122 88 q 194 38 163 46 q 258 29 226 29 q 358 40 307 29 q 456 64 410 50 q 544 106 500 78 q 610 178 589 135 q 619 214 619 193 q 605 243 619 236 q 572 250 590 250 q 457 224 510 250 q 362 157 404 199 q 283 68 319 115 q 271 52 278 60 q 253 44 264 44 q 245 50 246 44 q 246 61 244 56 q 249 68 246 65 q 398 233 317 172 q 581 294 479 294 q 633 288 607 294 q 676 264 658 281 q 694 217 694 247 q 690 188 694 203 q 625 99 675 136 q 508 39 575 63 q 374 4 440 15 q 261 -7 308 -7 z "},"7":{"ha":556,"x_min":132,"x_max":767,"o":"m 156 -3 q 135 10 138 -3 q 132 38 132 24 q 169 166 132 97 q 264 306 206 235 q 389 442 322 376 q 517 560 456 507 q 621 647 579 614 l 417 647 q 303 635 354 647 q 219 590 251 622 q 203 567 214 585 q 184 531 193 549 q 171 507 175 514 q 161 496 167 496 q 149 511 156 496 q 143 549 143 526 q 151 596 143 568 q 171 649 160 624 q 189 685 182 675 q 198 672 196 685 q 200 656 200 660 q 293 697 240 692 q 394 703 346 703 q 526 690 464 703 q 660 671 588 678 q 678 686 665 675 q 706 706 692 697 q 722 715 719 715 q 752 701 738 715 q 767 671 767 686 q 761 661 767 665 q 692 610 726 635 q 621 557 657 585 q 469 435 539 493 q 326 304 400 376 q 261 227 297 275 q 199 127 225 179 q 172 32 172 75 q 173 22 172 26 q 174 11 174 17 q 156 -3 174 -3 z "},"8":{"ha":668,"x_min":49,"x_max":785,"o":"m 197 1 q 128 10 164 1 q 71 40 93 18 q 51 103 49 63 q 101 192 54 139 q 210 297 149 246 q 266 341 228 313 q 356 406 304 369 q 463 479 407 442 q 384 520 419 497 q 342 585 349 543 q 354 634 338 613 q 399 672 371 656 q 457 699 428 689 q 507 714 486 710 q 560 718 532 718 q 652 699 610 718 q 696 636 694 681 q 740 665 722 653 q 765 679 758 676 q 774 683 769 682 q 781 685 778 683 q 785 682 785 683 q 760 661 785 681 q 693 610 736 642 q 688 592 692 601 q 678 572 683 583 q 663 554 667 554 q 659 560 660 554 q 660 567 658 565 q 660 577 660 572 q 661 586 661 582 q 596 540 631 564 q 525 489 561 515 q 603 434 567 468 q 639 335 639 400 q 610 216 639 269 q 532 122 581 163 q 425 56 483 82 q 307 15 367 29 q 197 1 247 1 m 494 503 l 658 613 q 628 656 651 646 q 586 665 606 665 q 504 653 544 665 q 438 619 464 640 q 411 572 411 597 q 436 532 411 546 q 494 503 461 518 m 186 46 q 283 65 229 47 q 391 113 336 83 q 492 179 446 142 q 567 258 538 217 q 601 342 597 300 q 571 421 604 394 q 493 467 538 447 q 382 385 436 425 q 287 313 328 346 q 225 261 246 281 q 135 165 174 211 q 96 90 96 118 q 112 60 96 69 q 149 48 128 50 q 186 46 171 46 z "},"9":{"ha":574,"x_min":106,"x_max":750,"o":"m 181 -3 q 160 10 163 -3 q 157 38 157 24 q 196 170 157 99 q 297 315 235 242 q 425 453 358 388 q 296 390 364 418 q 175 361 228 361 q 126 374 147 361 q 106 419 106 388 q 150 529 106 481 q 265 614 194 578 q 415 673 335 650 q 567 708 494 696 q 688 719 640 719 q 708 717 693 719 q 736 711 722 715 q 750 699 750 707 q 735 678 750 688 q 679 668 719 668 q 661 669 674 668 q 639 669 649 669 q 567 663 603 669 q 494 649 531 656 q 403 623 457 640 q 294 578 349 606 q 203 515 240 551 q 165 432 167 478 l 165 431 q 199 397 165 397 q 211 399 207 397 q 303 429 251 406 q 408 485 354 453 q 509 551 461 518 q 590 608 557 585 q 617 629 607 621 q 643 647 628 638 q 652 651 647 650 q 663 651 657 651 q 688 647 671 651 q 707 632 706 643 q 711 621 711 628 q 696 599 711 611 q 560 485 619 533 q 451 395 500 438 q 351 304 401 353 q 286 227 322 275 q 224 127 250 179 q 197 32 197 75 q 198 22 197 26 q 199 11 199 17 q 181 -3 199 -3 z "},"\r":{"ha":267,"x_min":0,"x_max":0,"o":""}," ":{"ha":267,"x_min":0,"x_max":0,"o":""}," ":{"ha":267,"x_min":0,"x_max":0,"o":""},"A":{"ha":651,"x_min":-54,"x_max":854,"o":"m 531 -94 q 508 -72 515 -87 q 501 -35 501 -57 q 523 74 501 10 q 567 199 544 139 q 606 308 585 244 q 651 441 628 371 q 694 576 674 511 q 730 692 715 642 q 750 767 744 743 q 556 665 642 724 q 395 533 469 606 q 246 374 321 460 l 442 374 q 467 373 447 374 q 508 370 486 372 q 547 365 531 368 q 563 354 563 361 q 535 335 563 343 q 466 323 508 328 q 378 316 424 318 q 293 313 332 314 q 235 311 254 311 q 176 282 208 311 q 113 206 144 253 q 55 105 82 158 q 8 3 28 51 q -21 -79 -12 -46 q -22 -86 -21 -82 q -28 -90 -24 -90 q -45 -76 -36 -90 q -54 -54 -54 -61 q -36 33 -54 -17 q 9 135 -18 83 q 66 233 36 188 q 119 308 96 279 q 49 308 85 308 q -24 307 13 307 q -41 313 -32 307 q -53 328 -50 319 q -19 349 -47 343 q 45 358 8 356 q 115 361 82 360 q 164 367 149 363 q 232 442 189 397 q 331 536 275 486 q 447 635 386 586 q 568 724 508 683 q 681 788 628 764 q 771 813 733 813 q 801 809 782 813 q 838 797 821 806 q 854 774 854 789 q 835 703 854 756 q 786 577 817 650 q 721 424 756 504 q 654 272 686 344 q 600 150 622 200 q 553 25 568 72 q 539 -50 539 -22 q 547 -86 539 -71 q 542 -92 549 -87 q 531 -94 535 -96 z "},"Æ":{"ha":1232,"x_min":-54,"x_max":1399,"o":"m -28 -90 q -45 -76 -36 -90 q -54 -54 -54 -61 q -36 33 -54 -17 q 9 135 -18 83 q 66 233 36 188 q 119 308 96 279 q 49 308 85 308 q -24 307 13 307 q -41 313 -32 307 q -53 328 -50 319 q -19 349 -47 343 q 45 358 8 356 q 115 361 82 360 q 164 367 149 363 q 232 442 189 397 q 331 536 275 486 q 447 635 386 586 q 568 724 508 683 q 681 788 628 764 q 771 813 733 813 q 804 808 782 813 q 840 794 826 804 q 940 816 881 810 q 1056 824 1000 822 q 1144 825 1113 825 q 1251 824 1197 825 q 1358 813 1306 822 q 1390 794 1381 807 q 1399 771 1399 782 q 1392 753 1399 761 q 1378 746 1386 746 q 1354 765 1364 746 q 1299 776 1332 775 q 1244 776 1267 776 q 1183 774 1224 776 q 1098 769 1143 772 q 1016 758 1053 765 q 964 740 979 751 q 927 702 953 733 q 869 628 901 671 q 806 540 838 585 q 749 461 774 496 q 714 414 724 426 q 874 419 794 413 q 1033 426 953 426 l 1085 426 q 1135 426 1110 426 q 1186 422 1161 425 q 1203 415 1203 421 q 1192 406 1203 411 q 1169 396 1181 400 q 1151 390 1157 392 q 1024 376 1092 381 q 889 368 956 371 q 767 363 822 365 q 676 357 711 361 q 656 308 669 342 q 630 231 642 274 q 618 149 618 189 q 640 77 618 107 q 717 47 661 47 q 731 47 724 47 q 744 49 738 47 q 884 74 807 57 q 1041 117 961 92 q 1193 169 1121 142 q 1317 226 1265 197 q 1328 231 1325 231 q 1332 225 1332 231 q 1326 211 1332 218 q 1251 146 1304 179 q 1126 83 1197 113 q 981 29 1056 53 q 840 -8 907 6 q 731 -22 774 -22 q 600 13 654 -22 q 535 132 546 47 q 533 144 533 138 q 533 156 533 150 q 551 249 533 200 q 589 343 568 299 q 499 331 550 336 q 399 322 449 325 q 313 316 349 318 q 268 314 276 314 q 192 279 231 310 q 119 202 154 249 q 56 103 85 156 q 8 2 28 50 q -21 -79 -12 -46 q -22 -86 -21 -82 q -28 -90 -24 -90 m 271 382 q 353 383 301 382 q 456 384 404 383 q 539 385 508 385 q 567 385 546 385 q 608 382 588 385 l 635 433 q 708 557 674 508 q 772 642 742 606 q 826 714 801 678 q 815 724 822 724 q 801 728 807 725 q 794 749 794 732 l 794 753 q 800 769 794 761 l 750 767 q 562 667 642 724 q 414 539 482 610 q 271 382 346 468 z "},"Ǽ":{"ha":1232,"x_min":-54,"x_max":1399,"o":"m -28 -90 q -45 -76 -36 -90 q -54 -54 -54 -61 q -36 33 -54 -17 q 9 135 -18 83 q 66 233 36 188 q 119 308 96 279 q 49 308 85 308 q -24 307 13 307 q -41 313 -32 307 q -53 328 -50 319 q -19 349 -47 343 q 45 358 8 356 q 115 361 82 360 q 164 367 149 363 q 232 442 189 397 q 331 536 275 486 q 447 635 386 586 q 568 724 508 683 q 681 788 628 764 q 771 813 733 813 q 804 808 782 813 q 840 794 826 804 q 940 816 881 810 q 1056 824 1000 822 q 1144 825 1113 825 q 1251 824 1197 825 q 1358 813 1306 822 q 1390 794 1381 807 q 1399 771 1399 782 q 1392 753 1399 761 q 1378 746 1386 746 q 1354 765 1364 746 q 1299 776 1332 775 q 1244 776 1267 776 q 1183 774 1224 776 q 1098 769 1143 772 q 1016 758 1053 765 q 964 740 979 751 q 927 702 953 733 q 869 628 901 671 q 806 540 838 585 q 749 461 774 496 q 714 414 724 426 q 874 419 794 413 q 1033 426 953 426 l 1085 426 q 1135 426 1110 426 q 1186 422 1161 425 q 1203 415 1203 421 q 1192 406 1203 411 q 1169 396 1181 400 q 1151 390 1157 392 q 1024 376 1092 381 q 889 368 956 371 q 767 363 822 365 q 676 357 711 361 q 656 308 669 342 q 630 231 642 274 q 618 149 618 189 q 640 77 618 107 q 717 47 661 47 q 731 47 724 47 q 744 49 738 47 q 884 74 807 57 q 1041 117 961 92 q 1193 169 1121 142 q 1317 226 1265 197 q 1328 231 1325 231 q 1332 225 1332 231 q 1326 211 1332 218 q 1251 146 1304 179 q 1126 83 1197 113 q 981 29 1056 53 q 840 -8 907 6 q 731 -22 774 -22 q 600 13 654 -22 q 535 132 546 47 q 533 144 533 138 q 533 156 533 150 q 551 249 533 200 q 589 343 568 299 q 499 331 550 336 q 399 322 449 325 q 313 316 349 318 q 268 314 276 314 q 192 279 231 310 q 119 202 154 249 q 56 103 85 156 q 8 2 28 50 q -21 -79 -12 -46 q -22 -86 -21 -82 q -28 -90 -24 -90 m 271 382 q 353 383 301 382 q 456 384 404 383 q 539 385 508 385 q 567 385 546 385 q 608 382 588 385 l 635 433 q 708 557 674 508 q 772 642 742 606 q 826 714 801 678 q 815 724 822 724 q 801 728 807 725 q 794 749 794 732 l 794 753 q 800 769 794 761 l 750 767 q 562 667 642 724 q 414 539 482 610 q 271 382 346 468 m 849 890 q 836 900 836 890 q 840 906 838 903 q 844 910 843 908 q 897 944 865 925 q 960 981 928 963 q 1011 1010 992 999 q 1038 1022 1029 1019 q 1051 1025 1046 1025 q 1065 1012 1060 1024 q 1071 993 1071 1000 q 1066 978 1071 983 q 1054 969 1061 972 q 1013 952 1044 965 q 946 924 982 939 q 881 900 910 910 q 849 890 853 890 z "},"Á":{"ha":651,"x_min":-54,"x_max":925,"o":"m 531 -94 q 508 -72 515 -87 q 501 -35 501 -57 q 523 74 501 10 q 567 199 544 139 q 606 308 585 244 q 651 441 628 371 q 694 576 674 511 q 730 692 715 642 q 750 767 744 743 q 556 665 642 724 q 395 533 469 606 q 246 374 321 460 l 442 374 q 467 373 447 374 q 508 370 486 372 q 547 365 531 368 q 563 354 563 361 q 535 335 563 343 q 466 323 508 328 q 378 316 424 318 q 293 313 332 314 q 235 311 254 311 q 176 282 208 311 q 113 206 144 253 q 55 105 82 158 q 8 3 28 51 q -21 -79 -12 -46 q -22 -86 -21 -82 q -28 -90 -24 -90 q -45 -76 -36 -90 q -54 -54 -54 -61 q -36 33 -54 -17 q 9 135 -18 83 q 66 233 36 188 q 119 308 96 279 q 49 308 85 308 q -24 307 13 307 q -41 313 -32 307 q -53 328 -50 319 q -19 349 -47 343 q 45 358 8 356 q 115 361 82 360 q 164 367 149 363 q 232 442 189 397 q 331 536 275 486 q 447 635 386 586 q 568 724 508 683 q 681 788 628 764 q 771 813 733 813 q 801 809 782 813 q 838 797 821 806 q 854 774 854 789 q 835 703 854 756 q 786 577 817 650 q 721 424 756 504 q 654 272 686 344 q 600 150 622 200 q 553 25 568 72 q 539 -50 539 -22 q 547 -86 539 -71 q 542 -92 549 -87 q 531 -94 535 -96 m 703 879 q 690 889 690 879 q 694 894 692 892 q 699 899 697 897 q 751 933 719 914 q 814 969 782 951 q 865 999 846 988 q 892 1011 883 1008 q 906 1014 900 1014 q 919 1001 914 1013 q 925 982 925 989 q 920 967 925 972 q 908 958 915 961 q 867 941 899 954 q 800 913 836 928 q 735 889 764 899 q 703 879 707 879 z "},"Ă":{"ha":651,"x_min":-54,"x_max":981,"o":"m 531 -94 q 508 -72 515 -87 q 501 -35 501 -57 q 523 74 501 10 q 567 199 544 139 q 606 308 585 244 q 651 441 628 371 q 694 576 674 511 q 730 692 715 642 q 750 767 744 743 q 556 665 642 724 q 395 533 469 606 q 246 374 321 460 l 442 374 q 467 373 447 374 q 508 370 486 372 q 547 365 531 368 q 563 354 563 361 q 535 335 563 343 q 466 323 508 328 q 378 316 424 318 q 293 313 332 314 q 235 311 254 311 q 176 282 208 311 q 113 206 144 253 q 55 105 82 158 q 8 3 28 51 q -21 -79 -12 -46 q -22 -86 -21 -82 q -28 -90 -24 -90 q -45 -76 -36 -90 q -54 -54 -54 -61 q -36 33 -54 -17 q 9 135 -18 83 q 66 233 36 188 q 119 308 96 279 q 49 308 85 308 q -24 307 13 307 q -41 313 -32 307 q -53 328 -50 319 q -19 349 -47 343 q 45 358 8 356 q 115 361 82 360 q 164 367 149 363 q 232 442 189 397 q 331 536 275 486 q 447 635 386 586 q 568 724 508 683 q 681 788 628 764 q 771 813 733 813 q 801 809 782 813 q 838 797 821 806 q 854 774 854 789 q 835 703 854 756 q 786 577 817 650 q 721 424 756 504 q 654 272 686 344 q 600 150 622 200 q 553 25 568 72 q 539 -50 539 -22 q 547 -86 539 -71 q 542 -92 549 -87 q 531 -94 535 -96 m 782 886 q 699 915 735 886 q 663 988 663 944 q 670 1018 663 1004 q 692 1032 678 1032 q 708 1023 704 1032 q 715 1001 713 1014 q 747 953 724 968 q 800 939 769 939 q 876 952 840 939 q 943 1010 911 965 q 952 1026 946 1015 q 965 1036 958 1036 q 976 1032 972 1036 q 976 1018 981 1028 q 895 919 951 951 q 782 886 839 886 z "},"Ắ":{"ha":651,"x_min":-54,"x_max":981,"o":"m 531 -94 q 508 -72 515 -87 q 501 -35 501 -57 q 523 74 501 10 q 567 199 544 139 q 606 308 585 244 q 651 441 628 371 q 694 576 674 511 q 730 692 715 642 q 750 767 744 743 q 556 665 642 724 q 395 533 469 606 q 246 374 321 460 l 442 374 q 467 373 447 374 q 508 370 486 372 q 547 365 531 368 q 563 354 563 361 q 535 335 563 343 q 466 323 508 328 q 378 316 424 318 q 293 313 332 314 q 235 311 254 311 q 176 282 208 311 q 113 206 144 253 q 55 105 82 158 q 8 3 28 51 q -21 -79 -12 -46 q -22 -86 -21 -82 q -28 -90 -24 -90 q -45 -76 -36 -90 q -54 -54 -54 -61 q -36 33 -54 -17 q 9 135 -18 83 q 66 233 36 188 q 119 308 96 279 q 49 308 85 308 q -24 307 13 307 q -41 313 -32 307 q -53 328 -50 319 q -19 349 -47 343 q 45 358 8 356 q 115 361 82 360 q 164 367 149 363 q 232 442 189 397 q 331 536 275 486 q 447 635 386 586 q 568 724 508 683 q 681 788 628 764 q 771 813 733 813 q 801 809 782 813 q 838 797 821 806 q 854 774 854 789 q 835 703 854 756 q 786 577 817 650 q 721 424 756 504 q 654 272 686 344 q 600 150 622 200 q 553 25 568 72 q 539 -50 539 -22 q 547 -86 539 -71 q 542 -92 549 -87 q 531 -94 535 -96 m 782 886 q 699 915 735 886 q 663 988 663 944 q 670 1018 663 1004 q 692 1032 678 1032 q 708 1023 704 1032 q 715 1001 713 1014 q 747 953 724 968 q 800 939 769 939 q 876 952 840 939 q 943 1010 911 965 q 952 1026 946 1015 q 965 1036 958 1036 q 976 1032 972 1036 q 976 1018 981 1028 q 895 919 951 951 q 782 886 839 886 m 733 1076 q 721 1086 721 1076 q 725 1092 722 1089 q 729 1096 728 1094 q 781 1130 750 1111 q 844 1167 813 1149 q 896 1196 876 1185 q 922 1208 914 1206 q 936 1211 931 1211 q 950 1198 944 1210 q 956 1179 956 1186 q 951 1164 956 1169 q 939 1156 946 1158 q 898 1138 929 1151 q 831 1110 867 1125 q 766 1086 794 1096 q 733 1076 738 1076 z "},"Ặ":{"ha":651,"x_min":-54,"x_max":981,"o":"m 531 -94 q 508 -72 515 -87 q 501 -35 501 -57 q 523 74 501 10 q 567 199 544 139 q 606 308 585 244 q 651 441 628 371 q 694 576 674 511 q 730 692 715 642 q 750 767 744 743 q 556 665 642 724 q 395 533 469 606 q 246 374 321 460 l 442 374 q 467 373 447 374 q 508 370 486 372 q 547 365 531 368 q 563 354 563 361 q 535 335 563 343 q 466 323 508 328 q 378 316 424 318 q 293 313 332 314 q 235 311 254 311 q 176 282 208 311 q 113 206 144 253 q 55 105 82 158 q 8 3 28 51 q -21 -79 -12 -46 q -22 -86 -21 -82 q -28 -90 -24 -90 q -45 -76 -36 -90 q -54 -54 -54 -61 q -36 33 -54 -17 q 9 135 -18 83 q 66 233 36 188 q 119 308 96 279 q 49 308 85 308 q -24 307 13 307 q -41 313 -32 307 q -53 328 -50 319 q -19 349 -47 343 q 45 358 8 356 q 115 361 82 360 q 164 367 149 363 q 232 442 189 397 q 331 536 275 486 q 447 635 386 586 q 568 724 508 683 q 681 788 628 764 q 771 813 733 813 q 801 809 782 813 q 838 797 821 806 q 854 774 854 789 q 835 703 854 756 q 786 577 817 650 q 721 424 756 504 q 654 272 686 344 q 600 150 622 200 q 553 25 568 72 q 539 -50 539 -22 q 547 -86 539 -71 q 542 -92 549 -87 q 531 -94 535 -96 m 199 -187 q 168 -182 186 -187 q 150 -157 150 -176 q 162 -127 150 -144 q 190 -97 174 -110 q 221 -83 207 -83 q 242 -93 232 -83 q 251 -117 253 -103 q 241 -141 251 -124 q 219 -173 231 -158 q 199 -187 207 -187 m 782 886 q 699 915 735 886 q 663 988 663 944 q 670 1018 663 1004 q 692 1032 678 1032 q 708 1023 704 1032 q 715 1001 713 1014 q 747 953 724 968 q 800 939 769 939 q 876 952 840 939 q 943 1010 911 965 q 952 1026 946 1015 q 965 1036 958 1036 q 976 1032 972 1036 q 976 1018 981 1028 q 895 919 951 951 q 782 886 839 886 z "},"Ằ":{"ha":651,"x_min":-54,"x_max":981,"o":"m 531 -94 q 508 -72 515 -87 q 501 -35 501 -57 q 523 74 501 10 q 567 199 544 139 q 606 308 585 244 q 651 441 628 371 q 694 576 674 511 q 730 692 715 642 q 750 767 744 743 q 556 665 642 724 q 395 533 469 606 q 246 374 321 460 l 442 374 q 467 373 447 374 q 508 370 486 372 q 547 365 531 368 q 563 354 563 361 q 535 335 563 343 q 466 323 508 328 q 378 316 424 318 q 293 313 332 314 q 235 311 254 311 q 176 282 208 311 q 113 206 144 253 q 55 105 82 158 q 8 3 28 51 q -21 -79 -12 -46 q -22 -86 -21 -82 q -28 -90 -24 -90 q -45 -76 -36 -90 q -54 -54 -54 -61 q -36 33 -54 -17 q 9 135 -18 83 q 66 233 36 188 q 119 308 96 279 q 49 308 85 308 q -24 307 13 307 q -41 313 -32 307 q -53 328 -50 319 q -19 349 -47 343 q 45 358 8 356 q 115 361 82 360 q 164 367 149 363 q 232 442 189 397 q 331 536 275 486 q 447 635 386 586 q 568 724 508 683 q 681 788 628 764 q 771 813 733 813 q 801 809 782 813 q 838 797 821 806 q 854 774 854 789 q 835 703 854 756 q 786 577 817 650 q 721 424 756 504 q 654 272 686 344 q 600 150 622 200 q 553 25 568 72 q 539 -50 539 -22 q 547 -86 539 -71 q 542 -92 549 -87 q 531 -94 535 -96 m 782 886 q 699 915 735 886 q 663 988 663 944 q 670 1018 663 1004 q 692 1032 678 1032 q 708 1023 704 1032 q 715 1001 713 1014 q 747 953 724 968 q 800 939 769 939 q 876 952 840 939 q 943 1010 911 965 q 952 1026 946 1015 q 965 1036 958 1036 q 976 1032 972 1036 q 976 1018 981 1028 q 895 919 951 951 q 782 886 839 886 m 843 1076 q 810 1086 839 1076 q 746 1110 782 1096 q 678 1138 710 1125 q 638 1156 647 1151 q 626 1164 632 1158 q 621 1179 621 1169 q 626 1198 621 1186 q 640 1211 632 1210 q 655 1208 647 1211 q 681 1196 663 1206 q 732 1167 700 1185 q 796 1130 764 1149 q 847 1096 828 1111 q 852 1092 850 1094 q 856 1086 854 1089 q 843 1076 856 1076 z "},"Ẳ":{"ha":651,"x_min":-54,"x_max":983,"o":"m 531 -94 q 508 -72 515 -87 q 501 -35 501 -57 q 523 74 501 10 q 567 199 544 139 q 606 308 585 244 q 651 441 628 371 q 694 576 674 511 q 730 692 715 642 q 750 767 744 743 q 556 665 642 724 q 395 533 469 606 q 246 374 321 460 l 442 374 q 467 373 447 374 q 508 370 486 372 q 547 365 531 368 q 563 354 563 361 q 535 335 563 343 q 466 323 508 328 q 378 316 424 318 q 293 313 332 314 q 235 311 254 311 q 176 282 208 311 q 113 206 144 253 q 55 105 82 158 q 8 3 28 51 q -21 -79 -12 -46 q -22 -86 -21 -82 q -28 -90 -24 -90 q -45 -76 -36 -90 q -54 -54 -54 -61 q -36 33 -54 -17 q 9 135 -18 83 q 66 233 36 188 q 119 308 96 279 q 49 308 85 308 q -24 307 13 307 q -41 313 -32 307 q -53 328 -50 319 q -19 349 -47 343 q 45 358 8 356 q 115 361 82 360 q 164 367 149 363 q 232 442 189 397 q 331 536 275 486 q 447 635 386 586 q 568 724 508 683 q 681 788 628 764 q 771 813 733 813 q 801 809 782 813 q 838 797 821 806 q 854 774 854 789 q 835 703 854 756 q 786 577 817 650 q 721 424 756 504 q 654 272 686 344 q 600 150 622 200 q 553 25 568 72 q 539 -50 539 -22 q 547 -86 539 -71 q 542 -92 549 -87 q 531 -94 535 -96 m 782 886 q 699 915 735 886 q 663 988 663 944 q 670 1018 663 1004 q 692 1032 678 1032 q 708 1023 704 1032 q 715 1001 713 1014 q 747 953 724 968 q 800 939 769 939 q 876 952 840 939 q 943 1010 911 965 q 952 1026 946 1015 q 965 1036 958 1036 q 976 1032 972 1036 q 976 1018 981 1028 q 895 919 951 951 q 782 886 839 886 m 836 1079 q 824 1090 824 1079 q 828 1104 824 1096 q 859 1144 840 1129 q 895 1174 878 1158 q 917 1219 913 1190 q 917 1224 917 1222 q 918 1226 918 1225 q 909 1243 918 1238 q 889 1249 900 1249 q 851 1239 871 1249 q 817 1213 831 1229 q 794 1199 804 1199 q 785 1210 782 1199 q 805 1244 789 1225 q 849 1278 821 1264 q 914 1293 876 1293 q 966 1278 949 1293 q 983 1239 983 1263 q 969 1194 983 1218 q 928 1150 956 1169 q 891 1125 917 1142 q 851 1088 865 1108 q 836 1079 847 1079 z "},"Ẵ":{"ha":651,"x_min":-54,"x_max":996,"o":"m 531 -94 q 508 -72 515 -87 q 501 -35 501 -57 q 523 74 501 10 q 567 199 544 139 q 606 308 585 244 q 651 441 628 371 q 694 576 674 511 q 730 692 715 642 q 750 767 744 743 q 556 665 642 724 q 395 533 469 606 q 246 374 321 460 l 442 374 q 467 373 447 374 q 508 370 486 372 q 547 365 531 368 q 563 354 563 361 q 535 335 563 343 q 466 323 508 328 q 378 316 424 318 q 293 313 332 314 q 235 311 254 311 q 176 282 208 311 q 113 206 144 253 q 55 105 82 158 q 8 3 28 51 q -21 -79 -12 -46 q -22 -86 -21 -82 q -28 -90 -24 -90 q -45 -76 -36 -90 q -54 -54 -54 -61 q -36 33 -54 -17 q 9 135 -18 83 q 66 233 36 188 q 119 308 96 279 q 49 308 85 308 q -24 307 13 307 q -41 313 -32 307 q -53 328 -50 319 q -19 349 -47 343 q 45 358 8 356 q 115 361 82 360 q 164 367 149 363 q 232 442 189 397 q 331 536 275 486 q 447 635 386 586 q 568 724 508 683 q 681 788 628 764 q 771 813 733 813 q 801 809 782 813 q 838 797 821 806 q 854 774 854 789 q 835 703 854 756 q 786 577 817 650 q 721 424 756 504 q 654 272 686 344 q 600 150 622 200 q 553 25 568 72 q 539 -50 539 -22 q 547 -86 539 -71 q 542 -92 549 -87 q 531 -94 535 -96 m 782 886 q 699 915 735 886 q 663 988 663 944 q 670 1018 663 1004 q 692 1032 678 1032 q 708 1023 704 1032 q 715 1001 713 1014 q 747 953 724 968 q 800 939 769 939 q 876 952 840 939 q 943 1010 911 965 q 952 1026 946 1015 q 965 1036 958 1036 q 976 1032 972 1036 q 976 1018 981 1028 q 895 919 951 951 q 782 886 839 886 m 696 1076 q 686 1083 690 1076 q 682 1100 682 1090 q 695 1140 682 1118 q 733 1177 708 1161 q 790 1193 758 1193 q 833 1182 811 1193 q 875 1160 854 1171 q 917 1149 896 1149 q 951 1158 936 1149 q 976 1181 965 1167 q 984 1192 981 1186 q 989 1197 988 1197 q 993 1172 996 1197 q 969 1119 992 1146 q 913 1092 946 1092 q 870 1103 890 1092 q 829 1125 850 1114 q 782 1136 808 1136 q 738 1121 763 1136 q 706 1085 714 1106 q 696 1076 703 1076 z "},"Ǎ":{"ha":651,"x_min":-54,"x_max":1004,"o":"m 994 1036 q 1004 1033 1004 1039 q 1001 1027 1004 1031 q 997 1021 999 1024 q 930 969 963 990 q 865 924 897 947 q 841 906 857 917 q 810 888 825 896 q 790 879 796 879 q 776 889 782 879 l 754 921 q 726 965 738 944 q 699 1007 714 985 q 692 1031 692 1018 q 697 1036 692 1035 q 706 1036 701 1038 q 731 1019 711 1035 q 774 985 750 1004 q 814 947 797 965 q 886 985 846 965 q 958 1020 926 1006 q 994 1036 989 1035 m 531 -94 q 508 -72 515 -87 q 501 -35 501 -57 q 523 74 501 10 q 567 199 544 139 q 606 308 585 244 q 651 441 628 371 q 694 576 674 511 q 730 692 715 642 q 750 767 744 743 q 556 665 642 724 q 395 533 469 606 q 246 374 321 460 l 442 374 q 467 373 447 374 q 508 370 486 372 q 547 365 531 368 q 563 354 563 361 q 535 335 563 343 q 466 323 508 328 q 378 316 424 318 q 293 313 332 314 q 235 311 254 311 q 176 282 208 311 q 113 206 144 253 q 55 105 82 158 q 8 3 28 51 q -21 -79 -12 -46 q -22 -86 -21 -82 q -28 -90 -24 -90 q -45 -76 -36 -90 q -54 -54 -54 -61 q -36 33 -54 -17 q 9 135 -18 83 q 66 233 36 188 q 119 308 96 279 q 49 308 85 308 q -24 307 13 307 q -41 313 -32 307 q -53 328 -50 319 q -19 349 -47 343 q 45 358 8 356 q 115 361 82 360 q 164 367 149 363 q 232 442 189 397 q 331 536 275 486 q 447 635 386 586 q 568 724 508 683 q 681 788 628 764 q 771 813 733 813 q 801 809 782 813 q 838 797 821 806 q 854 774 854 789 q 835 703 854 756 q 786 577 817 650 q 721 424 756 504 q 654 272 686 344 q 600 150 622 200 q 553 25 568 72 q 539 -50 539 -22 q 547 -86 539 -71 q 542 -92 549 -87 q 531 -94 535 -96 z "},"Â":{"ha":651,"x_min":-54,"x_max":951,"o":"m 531 -94 q 508 -72 515 -87 q 501 -35 501 -57 q 523 74 501 10 q 567 199 544 139 q 606 308 585 244 q 651 441 628 371 q 694 576 674 511 q 730 692 715 642 q 750 767 744 743 q 556 665 642 724 q 395 533 469 606 q 246 374 321 460 l 442 374 q 467 373 447 374 q 508 370 486 372 q 547 365 531 368 q 563 354 563 361 q 535 335 563 343 q 466 323 508 328 q 378 316 424 318 q 293 313 332 314 q 235 311 254 311 q 176 282 208 311 q 113 206 144 253 q 55 105 82 158 q 8 3 28 51 q -21 -79 -12 -46 q -22 -86 -21 -82 q -28 -90 -24 -90 q -45 -76 -36 -90 q -54 -54 -54 -61 q -36 33 -54 -17 q 9 135 -18 83 q 66 233 36 188 q 119 308 96 279 q 49 308 85 308 q -24 307 13 307 q -41 313 -32 307 q -53 328 -50 319 q -19 349 -47 343 q 45 358 8 356 q 115 361 82 360 q 164 367 149 363 q 232 442 189 397 q 331 536 275 486 q 447 635 386 586 q 568 724 508 683 q 681 788 628 764 q 771 813 733 813 q 801 809 782 813 q 838 797 821 806 q 854 774 854 789 q 835 703 854 756 q 786 577 817 650 q 721 424 756 504 q 654 272 686 344 q 600 150 622 200 q 553 25 568 72 q 539 -50 539 -22 q 547 -86 539 -71 q 542 -92 549 -87 q 531 -94 535 -96 m 649 881 q 639 883 639 878 q 642 890 639 886 q 646 896 644 894 q 713 948 681 926 q 778 993 746 969 q 803 1010 788 1000 q 833 1029 818 1021 q 853 1038 847 1038 q 867 1028 861 1038 l 889 996 q 917 953 906 972 q 944 910 929 933 q 951 886 951 899 q 947 881 951 882 q 938 881 942 879 q 913 898 933 883 q 869 933 893 913 q 829 969 846 953 q 757 932 797 953 q 685 897 717 911 q 649 881 654 882 z "},"Ấ":{"ha":651,"x_min":-54,"x_max":1188,"o":"m 531 -94 q 508 -72 515 -87 q 501 -35 501 -57 q 523 74 501 10 q 567 199 544 139 q 606 308 585 244 q 651 441 628 371 q 694 576 674 511 q 730 692 715 642 q 750 767 744 743 q 556 665 642 724 q 395 533 469 606 q 246 374 321 460 l 442 374 q 467 373 447 374 q 508 370 486 372 q 547 365 531 368 q 563 354 563 361 q 535 335 563 343 q 466 323 508 328 q 378 316 424 318 q 293 313 332 314 q 235 311 254 311 q 176 282 208 311 q 113 206 144 253 q 55 105 82 158 q 8 3 28 51 q -21 -79 -12 -46 q -22 -86 -21 -82 q -28 -90 -24 -90 q -45 -76 -36 -90 q -54 -54 -54 -61 q -36 33 -54 -17 q 9 135 -18 83 q 66 233 36 188 q 119 308 96 279 q 49 308 85 308 q -24 307 13 307 q -41 313 -32 307 q -53 328 -50 319 q -19 349 -47 343 q 45 358 8 356 q 115 361 82 360 q 164 367 149 363 q 232 442 189 397 q 331 536 275 486 q 447 635 386 586 q 568 724 508 683 q 681 788 628 764 q 771 813 733 813 q 801 809 782 813 q 838 797 821 806 q 854 774 854 789 q 835 703 854 756 q 786 577 817 650 q 721 424 756 504 q 654 272 686 344 q 600 150 622 200 q 553 25 568 72 q 539 -50 539 -22 q 547 -86 539 -71 q 542 -92 549 -87 q 531 -94 535 -96 m 649 881 q 639 883 639 878 q 642 890 639 886 q 646 896 644 894 q 713 948 681 926 q 778 993 746 969 q 803 1010 788 1000 q 833 1029 818 1021 q 853 1038 847 1038 q 867 1028 861 1038 l 889 996 q 917 953 906 972 q 944 910 929 933 q 951 886 951 899 q 947 881 951 882 q 938 881 942 879 q 913 898 933 883 q 869 933 893 913 q 829 969 846 953 q 757 932 797 953 q 685 897 717 911 q 649 881 654 882 m 965 1007 q 953 1017 953 1007 q 957 1022 954 1019 q 961 1026 960 1025 q 1013 1060 982 1042 q 1076 1097 1044 1079 q 1128 1126 1108 1115 q 1154 1139 1146 1136 q 1168 1142 1163 1142 q 1182 1128 1176 1140 q 1188 1110 1188 1117 q 1183 1094 1188 1100 q 1171 1086 1178 1089 q 1130 1069 1161 1082 q 1063 1041 1099 1056 q 998 1017 1026 1026 q 965 1007 969 1007 z "},"Ậ":{"ha":651,"x_min":-54,"x_max":951,"o":"m 531 -94 q 508 -72 515 -87 q 501 -35 501 -57 q 523 74 501 10 q 567 199 544 139 q 606 308 585 244 q 651 441 628 371 q 694 576 674 511 q 730 692 715 642 q 750 767 744 743 q 556 665 642 724 q 395 533 469 606 q 246 374 321 460 l 442 374 q 467 373 447 374 q 508 370 486 372 q 547 365 531 368 q 563 354 563 361 q 535 335 563 343 q 466 323 508 328 q 378 316 424 318 q 293 313 332 314 q 235 311 254 311 q 176 282 208 311 q 113 206 144 253 q 55 105 82 158 q 8 3 28 51 q -21 -79 -12 -46 q -22 -86 -21 -82 q -28 -90 -24 -90 q -45 -76 -36 -90 q -54 -54 -54 -61 q -36 33 -54 -17 q 9 135 -18 83 q 66 233 36 188 q 119 308 96 279 q 49 308 85 308 q -24 307 13 307 q -41 313 -32 307 q -53 328 -50 319 q -19 349 -47 343 q 45 358 8 356 q 115 361 82 360 q 164 367 149 363 q 232 442 189 397 q 331 536 275 486 q 447 635 386 586 q 568 724 508 683 q 681 788 628 764 q 771 813 733 813 q 801 809 782 813 q 838 797 821 806 q 854 774 854 789 q 835 703 854 756 q 786 577 817 650 q 721 424 756 504 q 654 272 686 344 q 600 150 622 200 q 553 25 568 72 q 539 -50 539 -22 q 547 -86 539 -71 q 542 -92 549 -87 q 531 -94 535 -96 m 199 -187 q 168 -182 186 -187 q 150 -157 150 -176 q 162 -127 150 -144 q 190 -97 174 -110 q 221 -83 207 -83 q 242 -93 232 -83 q 251 -117 253 -103 q 241 -141 251 -124 q 219 -173 231 -158 q 199 -187 207 -187 m 649 881 q 639 883 639 878 q 642 890 639 886 q 646 896 644 894 q 713 948 681 926 q 778 993 746 969 q 803 1010 788 1000 q 833 1029 818 1021 q 853 1038 847 1038 q 867 1028 861 1038 l 889 996 q 917 953 906 972 q 944 910 929 933 q 951 886 951 899 q 947 881 951 882 q 938 881 942 879 q 913 898 933 883 q 869 933 893 913 q 829 969 846 953 q 757 932 797 953 q 685 897 717 911 q 649 881 654 882 z "},"Ầ":{"ha":651,"x_min":-54,"x_max":989,"o":"m 531 -94 q 508 -72 515 -87 q 501 -35 501 -57 q 523 74 501 10 q 567 199 544 139 q 606 308 585 244 q 651 441 628 371 q 694 576 674 511 q 730 692 715 642 q 750 767 744 743 q 556 665 642 724 q 395 533 469 606 q 246 374 321 460 l 442 374 q 467 373 447 374 q 508 370 486 372 q 547 365 531 368 q 563 354 563 361 q 535 335 563 343 q 466 323 508 328 q 378 316 424 318 q 293 313 332 314 q 235 311 254 311 q 176 282 208 311 q 113 206 144 253 q 55 105 82 158 q 8 3 28 51 q -21 -79 -12 -46 q -22 -86 -21 -82 q -28 -90 -24 -90 q -45 -76 -36 -90 q -54 -54 -54 -61 q -36 33 -54 -17 q 9 135 -18 83 q 66 233 36 188 q 119 308 96 279 q 49 308 85 308 q -24 307 13 307 q -41 313 -32 307 q -53 328 -50 319 q -19 349 -47 343 q 45 358 8 356 q 115 361 82 360 q 164 367 149 363 q 232 442 189 397 q 331 536 275 486 q 447 635 386 586 q 568 724 508 683 q 681 788 628 764 q 771 813 733 813 q 801 809 782 813 q 838 797 821 806 q 854 774 854 789 q 835 703 854 756 q 786 577 817 650 q 721 424 756 504 q 654 272 686 344 q 600 150 622 200 q 553 25 568 72 q 539 -50 539 -22 q 547 -86 539 -71 q 542 -92 549 -87 q 531 -94 535 -96 m 649 881 q 639 883 639 878 q 642 890 639 886 q 646 896 644 894 q 713 948 681 926 q 778 993 746 969 q 803 1010 788 1000 q 833 1029 818 1021 q 853 1038 847 1038 q 867 1028 861 1038 l 889 996 q 917 953 906 972 q 944 910 929 933 q 951 886 951 899 q 947 881 951 882 q 938 881 942 879 q 913 898 933 883 q 869 933 893 913 q 829 969 846 953 q 757 932 797 953 q 685 897 717 911 q 649 881 654 882 m 976 1054 q 944 1064 972 1054 q 879 1088 915 1074 q 812 1116 843 1103 q 771 1133 781 1129 q 760 1142 765 1136 q 754 1157 754 1147 q 760 1176 754 1164 q 774 1189 765 1188 q 788 1186 781 1189 q 814 1174 796 1183 q 865 1144 833 1163 q 929 1108 897 1126 q 981 1074 961 1089 q 985 1069 983 1072 q 989 1064 988 1067 q 976 1054 989 1054 z "},"Ẩ":{"ha":651,"x_min":-54,"x_max":1144,"o":"m 531 -94 q 508 -72 515 -87 q 501 -35 501 -57 q 523 74 501 10 q 567 199 544 139 q 606 308 585 244 q 651 441 628 371 q 694 576 674 511 q 730 692 715 642 q 750 767 744 743 q 556 665 642 724 q 395 533 469 606 q 246 374 321 460 l 442 374 q 467 373 447 374 q 508 370 486 372 q 547 365 531 368 q 563 354 563 361 q 535 335 563 343 q 466 323 508 328 q 378 316 424 318 q 293 313 332 314 q 235 311 254 311 q 176 282 208 311 q 113 206 144 253 q 55 105 82 158 q 8 3 28 51 q -21 -79 -12 -46 q -22 -86 -21 -82 q -28 -90 -24 -90 q -45 -76 -36 -90 q -54 -54 -54 -61 q -36 33 -54 -17 q 9 135 -18 83 q 66 233 36 188 q 119 308 96 279 q 49 308 85 308 q -24 307 13 307 q -41 313 -32 307 q -53 328 -50 319 q -19 349 -47 343 q 45 358 8 356 q 115 361 82 360 q 164 367 149 363 q 232 442 189 397 q 331 536 275 486 q 447 635 386 586 q 568 724 508 683 q 681 788 628 764 q 771 813 733 813 q 801 809 782 813 q 838 797 821 806 q 854 774 854 789 q 835 703 854 756 q 786 577 817 650 q 721 424 756 504 q 654 272 686 344 q 600 150 622 200 q 553 25 568 72 q 539 -50 539 -22 q 547 -86 539 -71 q 542 -92 549 -87 q 531 -94 535 -96 m 649 881 q 639 883 639 878 q 642 890 639 886 q 646 896 644 894 q 713 948 681 926 q 778 993 746 969 q 803 1010 788 1000 q 833 1029 818 1021 q 853 1038 847 1038 q 867 1028 861 1038 l 889 996 q 917 953 906 972 q 944 910 929 933 q 951 886 951 899 q 947 881 951 882 q 938 881 942 879 q 913 898 933 883 q 869 933 893 913 q 829 969 846 953 q 757 932 797 953 q 685 897 717 911 q 649 881 654 882 m 997 972 q 985 983 985 972 q 989 997 985 989 q 1020 1037 1001 1022 q 1056 1067 1039 1051 q 1078 1113 1074 1083 q 1078 1117 1078 1115 q 1079 1119 1079 1118 q 1070 1136 1079 1131 q 1050 1142 1061 1142 q 1012 1132 1032 1142 q 978 1106 992 1122 q 956 1092 965 1092 q 946 1103 943 1092 q 966 1138 950 1118 q 1010 1172 982 1157 q 1075 1186 1038 1186 q 1127 1171 1110 1186 q 1144 1132 1144 1156 q 1131 1087 1144 1111 q 1089 1043 1117 1063 q 1052 1018 1078 1035 q 1013 981 1026 1001 q 997 972 1008 972 z "},"Ẫ":{"ha":651,"x_min":-54,"x_max":1043,"o":"m 531 -94 q 508 -72 515 -87 q 501 -35 501 -57 q 523 74 501 10 q 567 199 544 139 q 606 308 585 244 q 651 441 628 371 q 694 576 674 511 q 730 692 715 642 q 750 767 744 743 q 556 665 642 724 q 395 533 469 606 q 246 374 321 460 l 442 374 q 467 373 447 374 q 508 370 486 372 q 547 365 531 368 q 563 354 563 361 q 535 335 563 343 q 466 323 508 328 q 378 316 424 318 q 293 313 332 314 q 235 311 254 311 q 176 282 208 311 q 113 206 144 253 q 55 105 82 158 q 8 3 28 51 q -21 -79 -12 -46 q -22 -86 -21 -82 q -28 -90 -24 -90 q -45 -76 -36 -90 q -54 -54 -54 -61 q -36 33 -54 -17 q 9 135 -18 83 q 66 233 36 188 q 119 308 96 279 q 49 308 85 308 q -24 307 13 307 q -41 313 -32 307 q -53 328 -50 319 q -19 349 -47 343 q 45 358 8 356 q 115 361 82 360 q 164 367 149 363 q 232 442 189 397 q 331 536 275 486 q 447 635 386 586 q 568 724 508 683 q 681 788 628 764 q 771 813 733 813 q 801 809 782 813 q 838 797 821 806 q 854 774 854 789 q 835 703 854 756 q 786 577 817 650 q 721 424 756 504 q 654 272 686 344 q 600 150 622 200 q 553 25 568 72 q 539 -50 539 -22 q 547 -86 539 -71 q 542 -92 549 -87 q 531 -94 535 -96 m 649 881 q 639 883 639 878 q 642 890 639 886 q 646 896 644 894 q 713 948 681 926 q 778 993 746 969 q 803 1010 788 1000 q 833 1029 818 1021 q 853 1038 847 1038 q 867 1028 861 1038 l 889 996 q 917 953 906 972 q 944 910 929 933 q 951 886 951 899 q 947 881 951 882 q 938 881 942 879 q 913 898 933 883 q 869 933 893 913 q 829 969 846 953 q 757 932 797 953 q 685 897 717 911 q 649 881 654 882 m 743 1063 q 733 1069 738 1063 q 729 1086 729 1076 q 742 1126 729 1104 q 781 1163 756 1147 q 838 1179 806 1179 q 880 1168 858 1179 q 922 1146 901 1157 q 964 1135 943 1135 q 998 1144 983 1135 q 1024 1167 1013 1153 q 1031 1178 1028 1172 q 1036 1183 1035 1183 q 1040 1158 1043 1183 q 1016 1105 1039 1132 q 960 1078 993 1078 q 917 1089 938 1078 q 876 1111 897 1100 q 829 1122 856 1122 q 785 1107 810 1122 q 753 1071 761 1092 q 743 1063 750 1063 z "},"Ȁ":{"ha":651,"x_min":-54,"x_max":854,"o":"m 801 881 q 773 901 796 882 q 720 945 750 919 q 665 993 690 971 q 632 1024 640 1015 q 624 1034 628 1028 q 624 1051 621 1040 q 635 1067 626 1057 q 653 1075 644 1076 q 665 1067 658 1072 q 686 1047 672 1061 q 725 1003 701 1031 q 773 947 749 975 q 811 899 797 918 q 814 893 813 896 q 815 886 815 890 q 801 881 813 878 m 704 879 q 672 894 699 881 q 613 928 646 908 q 551 966 579 949 q 513 990 522 983 q 503 1000 507 994 q 500 1015 499 1006 q 509 1033 501 1022 q 525 1044 517 1044 q 538 1039 531 1043 q 563 1024 546 1035 q 608 986 579 1008 q 665 940 636 964 q 711 899 693 915 q 715 893 713 896 q 718 888 717 890 q 704 879 717 878 m 531 -94 q 508 -72 515 -87 q 501 -35 501 -57 q 523 74 501 10 q 567 199 544 139 q 606 308 585 244 q 651 441 628 371 q 694 576 674 511 q 730 692 715 642 q 750 767 744 743 q 556 665 642 724 q 395 533 469 606 q 246 374 321 460 l 442 374 q 467 373 447 374 q 508 370 486 372 q 547 365 531 368 q 563 354 563 361 q 535 335 563 343 q 466 323 508 328 q 378 316 424 318 q 293 313 332 314 q 235 311 254 311 q 176 282 208 311 q 113 206 144 253 q 55 105 82 158 q 8 3 28 51 q -21 -79 -12 -46 q -22 -86 -21 -82 q -28 -90 -24 -90 q -45 -76 -36 -90 q -54 -54 -54 -61 q -36 33 -54 -17 q 9 135 -18 83 q 66 233 36 188 q 119 308 96 279 q 49 308 85 308 q -24 307 13 307 q -41 313 -32 307 q -53 328 -50 319 q -19 349 -47 343 q 45 358 8 356 q 115 361 82 360 q 164 367 149 363 q 232 442 189 397 q 331 536 275 486 q 447 635 386 586 q 568 724 508 683 q 681 788 628 764 q 771 813 733 813 q 801 809 782 813 q 838 797 821 806 q 854 774 854 789 q 835 703 854 756 q 786 577 817 650 q 721 424 756 504 q 654 272 686 344 q 600 150 622 200 q 553 25 568 72 q 539 -50 539 -22 q 547 -86 539 -71 q 542 -92 549 -87 q 531 -94 535 -96 z "},"Ä":{"ha":651,"x_min":-54,"x_max":953,"o":"m 531 -94 q 508 -72 515 -87 q 501 -35 501 -57 q 523 74 501 10 q 567 199 544 139 q 606 308 585 244 q 651 441 628 371 q 694 576 674 511 q 730 692 715 642 q 750 767 744 743 q 556 665 642 724 q 395 533 469 606 q 246 374 321 460 l 442 374 q 467 373 447 374 q 508 370 486 372 q 547 365 531 368 q 563 354 563 361 q 535 335 563 343 q 466 323 508 328 q 378 316 424 318 q 293 313 332 314 q 235 311 254 311 q 176 282 208 311 q 113 206 144 253 q 55 105 82 158 q 8 3 28 51 q -21 -79 -12 -46 q -22 -86 -21 -82 q -28 -90 -24 -90 q -45 -76 -36 -90 q -54 -54 -54 -61 q -36 33 -54 -17 q 9 135 -18 83 q 66 233 36 188 q 119 308 96 279 q 49 308 85 308 q -24 307 13 307 q -41 313 -32 307 q -53 328 -50 319 q -19 349 -47 343 q 45 358 8 356 q 115 361 82 360 q 164 367 149 363 q 232 442 189 397 q 331 536 275 486 q 447 635 386 586 q 568 724 508 683 q 681 788 628 764 q 771 813 733 813 q 801 809 782 813 q 838 797 821 806 q 854 774 854 789 q 835 703 854 756 q 786 577 817 650 q 721 424 756 504 q 654 272 686 344 q 600 150 622 200 q 553 25 568 72 q 539 -50 539 -22 q 547 -86 539 -71 q 542 -92 549 -87 q 531 -94 535 -96 m 899 882 q 868 888 886 882 q 850 913 850 893 q 862 942 850 925 q 890 973 874 960 q 921 986 907 986 q 942 976 932 986 q 951 953 953 967 q 941 928 951 946 q 919 897 931 911 q 899 882 907 882 m 732 882 q 701 888 719 882 q 683 913 683 893 q 695 942 683 925 q 724 973 707 960 q 754 986 740 986 q 776 976 765 986 q 785 953 786 967 q 774 928 785 946 q 752 897 764 911 q 732 882 740 882 z "},"Ạ":{"ha":651,"x_min":-54,"x_max":854,"o":"m 531 -94 q 508 -72 515 -87 q 501 -35 501 -57 q 523 74 501 10 q 567 199 544 139 q 606 308 585 244 q 651 441 628 371 q 694 576 674 511 q 730 692 715 642 q 750 767 744 743 q 556 665 642 724 q 395 533 469 606 q 246 374 321 460 l 442 374 q 467 373 447 374 q 508 370 486 372 q 547 365 531 368 q 563 354 563 361 q 535 335 563 343 q 466 323 508 328 q 378 316 424 318 q 293 313 332 314 q 235 311 254 311 q 176 282 208 311 q 113 206 144 253 q 55 105 82 158 q 8 3 28 51 q -21 -79 -12 -46 q -22 -86 -21 -82 q -28 -90 -24 -90 q -45 -76 -36 -90 q -54 -54 -54 -61 q -36 33 -54 -17 q 9 135 -18 83 q 66 233 36 188 q 119 308 96 279 q 49 308 85 308 q -24 307 13 307 q -41 313 -32 307 q -53 328 -50 319 q -19 349 -47 343 q 45 358 8 356 q 115 361 82 360 q 164 367 149 363 q 232 442 189 397 q 331 536 275 486 q 447 635 386 586 q 568 724 508 683 q 681 788 628 764 q 771 813 733 813 q 801 809 782 813 q 838 797 821 806 q 854 774 854 789 q 835 703 854 756 q 786 577 817 650 q 721 424 756 504 q 654 272 686 344 q 600 150 622 200 q 553 25 568 72 q 539 -50 539 -22 q 547 -86 539 -71 q 542 -92 549 -87 q 531 -94 535 -96 m 199 -187 q 168 -182 186 -187 q 150 -157 150 -176 q 162 -127 150 -144 q 190 -97 174 -110 q 221 -83 207 -83 q 242 -93 232 -83 q 251 -117 253 -103 q 241 -141 251 -124 q 219 -173 231 -158 q 199 -187 207 -187 z "},"À":{"ha":651,"x_min":-54,"x_max":854,"o":"m 531 -94 q 508 -72 515 -87 q 501 -35 501 -57 q 523 74 501 10 q 567 199 544 139 q 606 308 585 244 q 651 441 628 371 q 694 576 674 511 q 730 692 715 642 q 750 767 744 743 q 556 665 642 724 q 395 533 469 606 q 246 374 321 460 l 442 374 q 467 373 447 374 q 508 370 486 372 q 547 365 531 368 q 563 354 563 361 q 535 335 563 343 q 466 323 508 328 q 378 316 424 318 q 293 313 332 314 q 235 311 254 311 q 176 282 208 311 q 113 206 144 253 q 55 105 82 158 q 8 3 28 51 q -21 -79 -12 -46 q -22 -86 -21 -82 q -28 -90 -24 -90 q -45 -76 -36 -90 q -54 -54 -54 -61 q -36 33 -54 -17 q 9 135 -18 83 q 66 233 36 188 q 119 308 96 279 q 49 308 85 308 q -24 307 13 307 q -41 313 -32 307 q -53 328 -50 319 q -19 349 -47 343 q 45 358 8 356 q 115 361 82 360 q 164 367 149 363 q 232 442 189 397 q 331 536 275 486 q 447 635 386 586 q 568 724 508 683 q 681 788 628 764 q 771 813 733 813 q 801 809 782 813 q 838 797 821 806 q 854 774 854 789 q 835 703 854 756 q 786 577 817 650 q 721 424 756 504 q 654 272 686 344 q 600 150 622 200 q 553 25 568 72 q 539 -50 539 -22 q 547 -86 539 -71 q 542 -92 549 -87 q 531 -94 535 -96 m 813 879 q 780 889 808 879 q 715 913 751 899 q 648 941 679 928 q 607 958 617 954 q 596 967 601 961 q 590 982 590 972 q 596 1001 590 989 q 610 1014 601 1013 q 624 1011 617 1014 q 650 999 632 1008 q 701 969 669 988 q 765 933 733 951 q 817 899 797 914 q 822 894 819 897 q 825 889 824 892 q 813 879 825 879 z "},"Ả":{"ha":651,"x_min":-54,"x_max":953,"o":"m 531 -94 q 508 -72 515 -87 q 501 -35 501 -57 q 523 74 501 10 q 567 199 544 139 q 606 308 585 244 q 651 441 628 371 q 694 576 674 511 q 730 692 715 642 q 750 767 744 743 q 556 665 642 724 q 395 533 469 606 q 246 374 321 460 l 442 374 q 467 373 447 374 q 508 370 486 372 q 547 365 531 368 q 563 354 563 361 q 535 335 563 343 q 466 323 508 328 q 378 316 424 318 q 293 313 332 314 q 235 311 254 311 q 176 282 208 311 q 113 206 144 253 q 55 105 82 158 q 8 3 28 51 q -21 -79 -12 -46 q -22 -86 -21 -82 q -28 -90 -24 -90 q -45 -76 -36 -90 q -54 -54 -54 -61 q -36 33 -54 -17 q 9 135 -18 83 q 66 233 36 188 q 119 308 96 279 q 49 308 85 308 q -24 307 13 307 q -41 313 -32 307 q -53 328 -50 319 q -19 349 -47 343 q 45 358 8 356 q 115 361 82 360 q 164 367 149 363 q 232 442 189 397 q 331 536 275 486 q 447 635 386 586 q 568 724 508 683 q 681 788 628 764 q 771 813 733 813 q 801 809 782 813 q 838 797 821 806 q 854 774 854 789 q 835 703 854 756 q 786 577 817 650 q 721 424 756 504 q 654 272 686 344 q 600 150 622 200 q 553 25 568 72 q 539 -50 539 -22 q 547 -86 539 -71 q 542 -92 549 -87 q 531 -94 535 -96 m 806 882 q 793 893 793 882 q 797 907 793 899 q 828 947 810 932 q 865 977 847 961 q 886 1022 882 993 q 887 1026 886 1025 q 888 1029 888 1028 q 878 1046 888 1040 q 858 1051 869 1051 q 820 1042 840 1051 q 786 1015 800 1032 q 764 1001 774 1001 q 754 1013 751 1001 q 774 1047 758 1028 q 818 1081 790 1067 q 883 1096 846 1096 q 935 1081 918 1096 q 953 1042 953 1065 q 939 997 953 1021 q 897 953 925 972 q 860 928 886 944 q 821 890 835 911 q 806 882 817 882 z "},"Ȃ":{"ha":651,"x_min":-54,"x_max":954,"o":"m 835 1022 q 918 993 882 1022 q 954 921 954 964 q 947 890 954 904 q 925 876 939 876 q 908 885 913 876 q 901 907 904 894 q 870 955 893 940 q 817 969 847 969 q 742 956 778 969 q 674 899 706 943 q 665 883 671 893 q 651 872 658 872 q 641 876 646 872 q 640 890 636 881 q 722 990 665 957 q 835 1022 779 1022 m 531 -94 q 508 -72 515 -87 q 501 -35 501 -57 q 523 74 501 10 q 567 199 544 139 q 606 308 585 244 q 651 441 628 371 q 694 576 674 511 q 730 692 715 642 q 750 767 744 743 q 556 665 642 724 q 395 533 469 606 q 246 374 321 460 l 442 374 q 467 373 447 374 q 508 370 486 372 q 547 365 531 368 q 563 354 563 361 q 535 335 563 343 q 466 323 508 328 q 378 316 424 318 q 293 313 332 314 q 235 311 254 311 q 176 282 208 311 q 113 206 144 253 q 55 105 82 158 q 8 3 28 51 q -21 -79 -12 -46 q -22 -86 -21 -82 q -28 -90 -24 -90 q -45 -76 -36 -90 q -54 -54 -54 -61 q -36 33 -54 -17 q 9 135 -18 83 q 66 233 36 188 q 119 308 96 279 q 49 308 85 308 q -24 307 13 307 q -41 313 -32 307 q -53 328 -50 319 q -19 349 -47 343 q 45 358 8 356 q 115 361 82 360 q 164 367 149 363 q 232 442 189 397 q 331 536 275 486 q 447 635 386 586 q 568 724 508 683 q 681 788 628 764 q 771 813 733 813 q 801 809 782 813 q 838 797 821 806 q 854 774 854 789 q 835 703 854 756 q 786 577 817 650 q 721 424 756 504 q 654 272 686 344 q 600 150 622 200 q 553 25 568 72 q 539 -50 539 -22 q 547 -86 539 -71 q 542 -92 549 -87 q 531 -94 535 -96 z "},"Ā":{"ha":651,"x_min":-54,"x_max":943,"o":"m 531 -94 q 508 -72 515 -87 q 501 -35 501 -57 q 523 74 501 10 q 567 199 544 139 q 606 308 585 244 q 651 441 628 371 q 694 576 674 511 q 730 692 715 642 q 750 767 744 743 q 556 665 642 724 q 395 533 469 606 q 246 374 321 460 l 442 374 q 467 373 447 374 q 508 370 486 372 q 547 365 531 368 q 563 354 563 361 q 535 335 563 343 q 466 323 508 328 q 378 316 424 318 q 293 313 332 314 q 235 311 254 311 q 176 282 208 311 q 113 206 144 253 q 55 105 82 158 q 8 3 28 51 q -21 -79 -12 -46 q -22 -86 -21 -82 q -28 -90 -24 -90 q -45 -76 -36 -90 q -54 -54 -54 -61 q -36 33 -54 -17 q 9 135 -18 83 q 66 233 36 188 q 119 308 96 279 q 49 308 85 308 q -24 307 13 307 q -41 313 -32 307 q -53 328 -50 319 q -19 349 -47 343 q 45 358 8 356 q 115 361 82 360 q 164 367 149 363 q 232 442 189 397 q 331 536 275 486 q 447 635 386 586 q 568 724 508 683 q 681 788 628 764 q 771 813 733 813 q 801 809 782 813 q 838 797 821 806 q 854 774 854 789 q 835 703 854 756 q 786 577 817 650 q 721 424 756 504 q 654 272 686 344 q 600 150 622 200 q 553 25 568 72 q 539 -50 539 -22 q 547 -86 539 -71 q 542 -92 549 -87 q 531 -94 535 -96 m 674 904 q 658 915 658 904 q 670 940 658 926 q 692 953 682 953 l 933 953 q 943 942 943 953 q 933 918 943 932 q 907 904 922 904 l 674 904 z "},"Ą":{"ha":651,"x_min":-54,"x_max":854,"o":"m 531 -94 q 508 -72 515 -87 q 501 -35 501 -57 q 523 74 501 10 q 567 199 544 139 q 606 308 585 244 q 651 441 628 371 q 694 576 674 511 q 730 692 715 642 q 750 767 744 743 q 556 665 642 724 q 395 533 469 606 q 246 374 321 460 l 442 374 q 467 373 447 374 q 508 370 486 372 q 547 365 531 368 q 563 354 563 361 q 535 335 563 343 q 466 323 508 328 q 378 316 424 318 q 293 313 332 314 q 235 311 254 311 q 176 282 208 311 q 113 206 144 253 q 55 105 82 158 q 8 3 28 51 q -21 -79 -12 -46 q -22 -86 -21 -82 q -28 -90 -24 -90 q -45 -76 -36 -90 q -54 -54 -54 -61 q -36 33 -54 -17 q 9 135 -18 83 q 66 233 36 188 q 119 308 96 279 q 49 308 85 308 q -24 307 13 307 q -41 313 -32 307 q -53 328 -50 319 q -19 349 -47 343 q 45 358 8 356 q 115 361 82 360 q 164 367 149 363 q 232 442 189 397 q 331 536 275 486 q 447 635 386 586 q 568 724 508 683 q 681 788 628 764 q 771 813 733 813 q 801 809 782 813 q 838 797 821 806 q 854 774 854 789 q 835 703 854 756 q 786 577 817 650 q 721 424 756 504 q 654 272 686 344 q 600 150 622 200 q 553 25 568 72 q 539 -50 539 -22 q 547 -86 539 -71 q 542 -92 549 -87 q 531 -94 535 -96 m 493 -282 q 439 -267 463 -282 q 415 -211 415 -251 q 431 -145 415 -179 q 469 -88 446 -111 q 518 -65 493 -65 q 532 -69 531 -65 q 485 -119 506 -92 q 464 -185 464 -147 q 480 -228 464 -214 q 521 -243 496 -243 q 556 -235 540 -243 q 592 -214 572 -228 l 594 -212 q 603 -217 600 -212 q 606 -226 606 -222 q 597 -244 606 -235 q 576 -260 589 -253 q 531 -278 554 -274 q 493 -282 508 -282 z "},"Å":{"ha":651,"x_min":-54,"x_max":971,"o":"m 531 -94 q 508 -72 515 -87 q 501 -35 501 -57 q 523 74 501 10 q 567 199 544 139 q 606 308 585 244 q 651 441 628 371 q 694 576 674 511 q 730 692 715 642 q 750 767 744 743 q 556 665 642 724 q 395 533 469 606 q 246 374 321 460 l 442 374 q 467 373 447 374 q 508 370 486 372 q 547 365 531 368 q 563 354 563 361 q 535 335 563 343 q 466 323 508 328 q 378 316 424 318 q 293 313 332 314 q 235 311 254 311 q 176 282 208 311 q 113 206 144 253 q 55 105 82 158 q 8 3 28 51 q -21 -79 -12 -46 q -22 -86 -21 -82 q -28 -90 -24 -90 q -45 -76 -36 -90 q -54 -54 -54 -61 q -36 33 -54 -17 q 9 135 -18 83 q 66 233 36 188 q 119 308 96 279 q 49 308 85 308 q -24 307 13 307 q -41 313 -32 307 q -53 328 -50 319 q -19 349 -47 343 q 45 358 8 356 q 115 361 82 360 q 164 367 149 363 q 232 442 189 397 q 331 536 275 486 q 447 635 386 586 q 568 724 508 683 q 681 788 628 764 q 771 813 733 813 q 801 809 782 813 q 838 797 821 806 q 854 774 854 789 q 835 703 854 756 q 786 577 817 650 q 721 424 756 504 q 654 272 686 344 q 600 150 622 200 q 553 25 568 72 q 539 -50 539 -22 q 547 -86 539 -71 q 542 -92 549 -87 q 531 -94 535 -96 m 813 879 q 753 899 776 879 q 731 946 731 918 q 776 1046 731 1007 q 889 1085 822 1085 q 948 1067 925 1085 q 971 1017 971 1049 q 951 950 971 982 q 894 899 931 918 q 813 879 858 879 m 818 907 q 869 925 849 907 q 899 969 889 943 q 910 1017 910 994 q 903 1048 910 1036 q 882 1060 896 1060 q 835 1040 856 1060 q 803 994 815 1021 q 792 943 792 967 q 798 918 792 929 q 818 907 804 907 z "},"Ǻ":{"ha":651,"x_min":-54,"x_max":1029,"o":"m 531 -94 q 508 -72 515 -87 q 501 -35 501 -57 q 523 74 501 10 q 567 199 544 139 q 606 308 585 244 q 651 441 628 371 q 694 576 674 511 q 730 692 715 642 q 750 767 744 743 q 556 665 642 724 q 395 533 469 606 q 246 374 321 460 l 442 374 q 467 373 447 374 q 508 370 486 372 q 547 365 531 368 q 563 354 563 361 q 535 335 563 343 q 466 323 508 328 q 378 316 424 318 q 293 313 332 314 q 235 311 254 311 q 176 282 208 311 q 113 206 144 253 q 55 105 82 158 q 8 3 28 51 q -21 -79 -12 -46 q -22 -86 -21 -82 q -28 -90 -24 -90 q -45 -76 -36 -90 q -54 -54 -54 -61 q -36 33 -54 -17 q 9 135 -18 83 q 66 233 36 188 q 119 308 96 279 q 49 308 85 308 q -24 307 13 307 q -41 313 -32 307 q -53 328 -50 319 q -19 349 -47 343 q 45 358 8 356 q 115 361 82 360 q 164 367 149 363 q 232 442 189 397 q 331 536 275 486 q 447 635 386 586 q 568 724 508 683 q 681 788 628 764 q 771 813 733 813 q 801 809 782 813 q 838 797 821 806 q 854 774 854 789 q 835 703 854 756 q 786 577 817 650 q 721 424 756 504 q 654 272 686 344 q 600 150 622 200 q 553 25 568 72 q 539 -50 539 -22 q 547 -86 539 -71 q 542 -92 549 -87 q 531 -94 535 -96 m 813 879 q 753 899 776 879 q 731 946 731 918 q 776 1046 731 1007 q 889 1085 822 1085 q 948 1067 925 1085 q 971 1017 971 1049 q 951 950 971 982 q 894 899 931 918 q 813 879 858 879 m 818 907 q 869 925 849 907 q 899 969 889 943 q 910 1017 910 994 q 903 1048 910 1036 q 882 1060 896 1060 q 835 1040 856 1060 q 803 994 815 1021 q 792 943 792 967 q 798 918 792 929 q 818 907 804 907 m 807 1108 q 794 1118 794 1108 q 799 1124 796 1121 q 803 1128 801 1126 q 855 1162 824 1143 q 918 1199 886 1181 q 969 1228 950 1217 q 996 1240 988 1238 q 1010 1243 1004 1243 q 1024 1230 1018 1242 q 1029 1211 1029 1218 q 1024 1196 1029 1201 q 1013 1188 1019 1190 q 972 1170 1003 1183 q 904 1142 940 1157 q 840 1118 868 1128 q 807 1108 811 1108 z "},"Ã":{"ha":651,"x_min":-54,"x_max":965,"o":"m 531 -94 q 508 -72 515 -87 q 501 -35 501 -57 q 523 74 501 10 q 567 199 544 139 q 606 308 585 244 q 651 441 628 371 q 694 576 674 511 q 730 692 715 642 q 750 767 744 743 q 556 665 642 724 q 395 533 469 606 q 246 374 321 460 l 442 374 q 467 373 447 374 q 508 370 486 372 q 547 365 531 368 q 563 354 563 361 q 535 335 563 343 q 466 323 508 328 q 378 316 424 318 q 293 313 332 314 q 235 311 254 311 q 176 282 208 311 q 113 206 144 253 q 55 105 82 158 q 8 3 28 51 q -21 -79 -12 -46 q -22 -86 -21 -82 q -28 -90 -24 -90 q -45 -76 -36 -90 q -54 -54 -54 -61 q -36 33 -54 -17 q 9 135 -18 83 q 66 233 36 188 q 119 308 96 279 q 49 308 85 308 q -24 307 13 307 q -41 313 -32 307 q -53 328 -50 319 q -19 349 -47 343 q 45 358 8 356 q 115 361 82 360 q 164 367 149 363 q 232 442 189 397 q 331 536 275 486 q 447 635 386 586 q 568 724 508 683 q 681 788 628 764 q 771 813 733 813 q 801 809 782 813 q 838 797 821 806 q 854 774 854 789 q 835 703 854 756 q 786 577 817 650 q 721 424 756 504 q 654 272 686 344 q 600 150 622 200 q 553 25 568 72 q 539 -50 539 -22 q 547 -86 539 -71 q 542 -92 549 -87 q 531 -94 535 -96 m 665 879 q 656 886 660 879 q 651 903 651 893 q 665 942 651 921 q 703 980 678 964 q 760 996 728 996 q 802 985 781 996 q 844 963 824 974 q 886 951 865 951 q 920 960 906 951 q 946 983 935 969 q 953 994 950 989 q 958 1000 957 1000 q 963 975 965 1000 q 938 922 961 949 q 882 894 915 894 q 840 906 860 894 q 799 928 819 917 q 751 939 778 939 q 708 924 732 939 q 675 888 683 908 q 665 879 672 879 z "},"B":{"ha":825,"x_min":63,"x_max":1008,"o":"m 283 -22 q 256 -22 269 -22 q 229 -19 242 -21 l 226 -19 q 191 -16 217 -18 q 136 -10 165 -14 q 86 3 107 -6 q 64 24 65 11 q 74 31 63 31 q 88 32 85 32 q 158 28 124 32 l 196 24 q 192 39 194 32 q 190 51 190 46 q 190 62 190 57 q 189 72 189 67 q 215 209 189 132 q 284 369 242 286 q 375 533 326 453 q 471 677 424 613 q 553 781 518 742 q 517 782 535 782 q 481 782 500 782 q 394 780 444 782 q 310 767 344 778 q 282 758 296 763 q 253 754 268 754 q 244 755 251 754 q 238 760 238 756 q 263 803 235 786 q 330 831 290 821 q 406 846 369 842 q 460 850 443 850 q 566 844 500 850 q 705 825 632 839 q 844 787 778 811 q 955 724 911 763 q 1004 633 999 686 q 982 560 1008 592 q 913 506 956 529 q 819 464 869 482 q 724 432 769 446 q 651 404 679 418 q 738 365 696 393 q 808 297 779 336 q 840 210 836 257 q 809 132 844 168 q 713 67 774 96 q 578 19 653 39 q 426 -12 503 -1 q 283 -22 349 -22 m 386 407 l 419 407 q 494 416 444 407 q 605 442 543 425 q 731 481 667 458 q 848 528 794 503 q 934 583 901 554 q 967 640 967 611 q 937 692 967 669 q 860 730 907 714 q 763 756 814 746 q 667 772 711 767 q 600 776 624 776 q 611 761 606 769 q 618 743 617 753 l 618 740 q 611 722 618 729 q 489 571 551 646 q 386 407 426 496 m 235 22 q 372 33 299 22 q 518 65 446 44 q 649 112 590 85 q 744 172 708 139 q 779 242 779 204 q 756 300 779 275 q 699 341 733 325 q 628 365 664 357 q 565 372 592 372 q 505 363 536 372 q 447 344 474 354 q 404 335 421 335 q 381 351 390 335 q 371 378 371 367 q 307 270 339 328 q 254 150 275 213 q 235 22 233 88 z "},"C":{"ha":769,"x_min":57,"x_max":879,"o":"m 322 -31 q 199 -9 256 -31 q 106 58 142 13 q 63 176 69 104 q 83 312 57 239 q 158 458 108 385 q 271 599 207 532 q 406 718 335 665 q 549 801 478 771 q 682 832 619 832 q 771 800 732 832 q 810 714 810 768 q 782 642 810 671 q 711 614 754 614 q 697 615 710 614 q 683 625 685 617 q 709 654 690 642 q 743 688 728 667 q 754 753 758 710 q 734 788 753 778 q 692 799 715 799 q 568 766 633 799 q 440 677 503 733 q 320 551 376 621 q 222 407 264 482 q 157 260 179 332 q 140 132 135 189 q 197 39 147 69 q 303 8 246 8 q 439 30 368 8 q 578 85 510 51 q 707 154 647 118 q 810 221 767 190 q 874 267 854 251 q 876 268 875 268 q 879 261 879 268 q 877 249 879 256 q 868 235 875 242 q 759 142 824 189 q 619 57 694 96 q 467 -6 544 18 q 322 -31 390 -31 z "},"Ć":{"ha":769,"x_min":57,"x_max":879,"o":"m 322 -31 q 199 -9 256 -31 q 106 58 142 13 q 63 176 69 104 q 83 312 57 239 q 158 458 108 385 q 271 599 207 532 q 406 718 335 665 q 549 801 478 771 q 682 832 619 832 q 771 800 732 832 q 810 714 810 768 q 782 642 810 671 q 711 614 754 614 q 697 615 710 614 q 683 625 685 617 q 709 654 690 642 q 743 688 728 667 q 754 753 758 710 q 734 788 753 778 q 692 799 715 799 q 568 766 633 799 q 440 677 503 733 q 320 551 376 621 q 222 407 264 482 q 157 260 179 332 q 140 132 135 189 q 197 39 147 69 q 303 8 246 8 q 439 30 368 8 q 578 85 510 51 q 707 154 647 118 q 810 221 767 190 q 874 267 854 251 q 876 268 875 268 q 879 261 879 268 q 877 249 879 256 q 868 235 875 242 q 759 142 824 189 q 619 57 694 96 q 467 -6 544 18 q 322 -31 390 -31 m 583 899 q 571 908 571 899 q 575 914 572 911 q 579 918 578 917 q 631 952 600 933 q 694 989 663 971 q 746 1018 726 1007 q 772 1031 764 1028 q 786 1033 781 1033 q 800 1020 794 1032 q 806 1001 806 1008 q 801 986 806 992 q 789 978 796 981 q 748 960 779 974 q 681 933 717 947 q 616 908 644 918 q 583 899 588 899 z "},"Č":{"ha":769,"x_min":57,"x_max":885,"o":"m 875 1056 q 885 1053 885 1058 q 882 1047 885 1050 q 878 1040 879 1043 q 810 988 843 1010 q 746 943 778 967 q 722 926 738 936 q 691 907 706 915 q 671 899 676 899 q 657 908 663 899 l 635 940 q 606 984 618 964 q 579 1026 594 1004 q 572 1050 572 1038 q 577 1056 572 1054 q 586 1056 582 1057 q 611 1039 592 1054 q 654 1004 631 1024 q 694 967 678 985 q 767 1005 726 985 q 838 1040 807 1025 q 875 1056 869 1054 m 322 -31 q 199 -9 256 -31 q 106 58 142 13 q 63 176 69 104 q 83 312 57 239 q 158 458 108 385 q 271 599 207 532 q 406 718 335 665 q 549 801 478 771 q 682 832 619 832 q 771 800 732 832 q 810 714 810 768 q 782 642 810 671 q 711 614 754 614 q 697 615 710 614 q 683 625 685 617 q 709 654 690 642 q 743 688 728 667 q 754 753 758 710 q 734 788 753 778 q 692 799 715 799 q 568 766 633 799 q 440 677 503 733 q 320 551 376 621 q 222 407 264 482 q 157 260 179 332 q 140 132 135 189 q 197 39 147 69 q 303 8 246 8 q 439 30 368 8 q 578 85 510 51 q 707 154 647 118 q 810 221 767 190 q 874 267 854 251 q 876 268 875 268 q 879 261 879 268 q 877 249 879 256 q 868 235 875 242 q 759 142 824 189 q 619 57 694 96 q 467 -6 544 18 q 322 -31 390 -31 z "},"Ç":{"ha":769,"x_min":57,"x_max":879,"o":"m 322 -31 q 199 -9 256 -31 q 106 58 142 13 q 63 176 69 104 q 83 312 57 239 q 158 458 108 385 q 271 599 207 532 q 406 718 335 665 q 549 801 478 771 q 682 832 619 832 q 771 800 732 832 q 810 714 810 768 q 782 642 810 671 q 711 614 754 614 q 697 615 710 614 q 683 625 685 617 q 709 654 690 642 q 743 688 728 667 q 754 753 758 710 q 734 788 753 778 q 692 799 715 799 q 568 766 633 799 q 440 677 503 733 q 320 551 376 621 q 222 407 264 482 q 157 260 179 332 q 140 132 135 189 q 197 39 147 69 q 303 8 246 8 q 439 30 368 8 q 578 85 510 51 q 707 154 647 118 q 810 221 767 190 q 874 267 854 251 q 876 268 875 268 q 879 261 879 268 q 877 249 879 256 q 868 235 875 242 q 759 142 824 189 q 619 57 694 96 q 467 -6 544 18 q 322 -31 390 -31 m 244 -285 q 167 -269 201 -285 q 158 -257 158 -265 q 163 -249 158 -253 q 174 -247 167 -244 q 243 -256 211 -256 q 286 -247 269 -256 q 303 -219 303 -239 q 292 -190 303 -207 q 267 -153 281 -174 q 240 -83 240 -117 q 322 -6 240 -21 l 326 -6 q 338 -8 332 -6 q 338 -19 343 -11 q 283 -69 283 -46 q 292 -94 283 -81 q 317 -128 301 -108 q 340 -163 329 -143 q 351 -208 351 -183 q 318 -267 351 -249 q 244 -285 285 -285 z "},"Ĉ":{"ha":769,"x_min":57,"x_max":879,"o":"m 322 -31 q 199 -9 256 -31 q 106 58 142 13 q 63 176 69 104 q 83 312 57 239 q 158 458 108 385 q 271 599 207 532 q 406 718 335 665 q 549 801 478 771 q 682 832 619 832 q 771 800 732 832 q 810 714 810 768 q 782 642 810 671 q 711 614 754 614 q 697 615 710 614 q 683 625 685 617 q 709 654 690 642 q 743 688 728 667 q 754 753 758 710 q 734 788 753 778 q 692 799 715 799 q 568 766 633 799 q 440 677 503 733 q 320 551 376 621 q 222 407 264 482 q 157 260 179 332 q 140 132 135 189 q 197 39 147 69 q 303 8 246 8 q 439 30 368 8 q 578 85 510 51 q 707 154 647 118 q 810 221 767 190 q 874 267 854 251 q 876 268 875 268 q 879 261 879 268 q 877 249 879 256 q 868 235 875 242 q 759 142 824 189 q 619 57 694 96 q 467 -6 544 18 q 322 -31 390 -31 m 529 900 q 519 903 519 897 q 522 910 519 906 q 526 915 525 914 q 594 967 561 946 q 658 1013 626 989 q 683 1030 668 1019 q 713 1049 699 1040 q 733 1057 728 1057 q 747 1047 742 1057 l 769 1015 q 798 972 786 992 q 825 929 810 953 q 832 906 832 918 q 827 900 832 901 q 818 900 822 899 q 794 917 814 903 q 750 952 774 932 q 710 989 726 972 q 638 951 678 972 q 566 916 597 931 q 529 900 535 901 z "},"Ċ":{"ha":769,"x_min":57,"x_max":879,"o":"m 322 -31 q 199 -9 256 -31 q 106 58 142 13 q 63 176 69 104 q 83 312 57 239 q 158 458 108 385 q 271 599 207 532 q 406 718 335 665 q 549 801 478 771 q 682 832 619 832 q 771 800 732 832 q 810 714 810 768 q 782 642 810 671 q 711 614 754 614 q 697 615 710 614 q 683 625 685 617 q 709 654 690 642 q 743 688 728 667 q 754 753 758 710 q 734 788 753 778 q 692 799 715 799 q 568 766 633 799 q 440 677 503 733 q 320 551 376 621 q 222 407 264 482 q 157 260 179 332 q 140 132 135 189 q 197 39 147 69 q 303 8 246 8 q 439 30 368 8 q 578 85 510 51 q 707 154 647 118 q 810 221 767 190 q 874 267 854 251 q 876 268 875 268 q 879 261 879 268 q 877 249 879 256 q 868 235 875 242 q 759 142 824 189 q 619 57 694 96 q 467 -6 544 18 q 322 -31 390 -31 m 706 901 q 675 907 693 901 q 657 932 657 913 q 669 962 657 944 q 697 992 681 979 q 728 1006 714 1006 q 749 996 739 1006 q 758 972 760 986 q 748 948 758 965 q 726 916 738 931 q 706 901 714 901 z "},"D":{"ha":815,"x_min":74,"x_max":933,"o":"m 301 13 q 269 17 292 13 q 226 30 246 22 q 204 46 206 38 q 220 57 204 54 q 253 60 236 60 q 274 61 271 61 q 392 81 325 61 q 529 135 458 100 q 665 215 600 169 q 783 316 731 261 q 863 429 835 371 q 883 546 890 488 q 841 663 875 618 q 755 734 807 708 q 642 771 703 760 q 521 785 582 782 q 407 788 460 788 q 301 785 356 788 q 200 767 247 782 q 172 758 186 763 q 143 754 158 754 q 135 755 142 754 q 128 760 128 756 q 146 793 125 779 q 199 817 167 807 q 267 832 232 826 q 332 840 303 838 q 374 842 361 842 q 511 835 439 842 q 654 810 583 829 q 785 757 725 792 q 883 665 844 722 q 932 524 922 608 q 933 507 933 515 q 933 492 933 499 q 892 335 933 408 q 783 203 851 263 q 631 101 714 144 q 461 35 547 58 q 301 13 375 13 m 128 -17 q 97 -1 110 -17 q 79 36 85 15 q 74 68 74 57 q 95 165 74 101 q 152 306 117 228 q 231 465 188 385 q 319 612 275 544 q 401 720 363 679 q 465 761 440 761 q 504 747 479 761 q 531 718 529 733 q 501 676 532 713 q 421 581 469 639 q 319 454 372 524 q 218 313 265 385 q 143 174 171 240 q 121 58 115 108 q 125 44 122 50 q 138 39 128 39 q 164 48 153 39 q 179 57 175 57 q 183 53 182 57 q 183 50 183 50 q 169 5 186 26 q 128 -17 151 -17 z "},"Ǆ":{"ha":1717,"x_min":74,"x_max":1740,"o":"m 1628 1071 q 1638 1068 1638 1074 q 1635 1062 1638 1065 q 1631 1056 1632 1058 q 1563 1003 1596 1025 q 1499 958 1531 982 q 1474 941 1490 951 q 1444 922 1458 931 q 1424 914 1429 914 q 1410 924 1415 914 l 1388 956 q 1359 999 1371 979 q 1332 1042 1347 1019 q 1325 1065 1325 1053 q 1330 1071 1325 1069 q 1339 1071 1335 1072 q 1364 1054 1344 1069 q 1407 1019 1383 1039 q 1447 982 1431 1000 q 1519 1020 1479 1000 q 1591 1055 1560 1040 q 1628 1071 1622 1069 m 301 13 q 269 17 292 13 q 226 30 246 22 q 204 46 206 38 q 220 57 204 54 q 253 60 236 60 q 274 61 271 61 q 392 81 325 61 q 529 135 458 100 q 665 215 600 169 q 783 316 731 261 q 863 429 835 371 q 883 546 890 488 q 841 663 875 618 q 755 734 807 708 q 642 771 703 760 q 521 785 582 782 q 407 788 460 788 q 301 785 356 788 q 200 767 247 782 q 172 758 186 763 q 143 754 158 754 q 135 755 142 754 q 128 760 128 756 q 146 793 125 779 q 199 817 167 807 q 267 832 232 826 q 332 840 303 838 q 374 842 361 842 q 511 835 439 842 q 654 810 583 829 q 785 757 725 792 q 883 665 844 722 q 932 524 922 608 q 933 507 933 515 q 933 492 933 499 q 892 335 933 408 q 783 203 851 263 q 631 101 714 144 q 461 35 547 58 q 301 13 375 13 m 128 -17 q 97 -1 110 -17 q 79 36 85 15 q 74 68 74 57 q 95 165 74 101 q 152 306 117 228 q 231 465 188 385 q 319 612 275 544 q 401 720 363 679 q 465 761 440 761 q 504 747 479 761 q 531 718 529 733 q 501 676 532 713 q 421 581 469 639 q 319 454 372 524 q 218 313 265 385 q 143 174 171 240 q 121 58 115 108 q 125 44 122 50 q 138 39 128 39 q 164 48 153 39 q 179 57 175 57 q 183 53 182 57 q 183 50 183 50 q 169 5 186 26 q 128 -17 151 -17 m 1557 8 q 1286 23 1422 8 q 1013 38 1150 38 q 962 35 990 38 q 918 26 933 33 q 896 15 907 21 q 871 10 885 10 q 848 17 858 10 q 831 35 838 25 q 826 47 826 42 q 847 86 826 64 q 898 132 868 108 q 958 176 928 156 q 1006 211 988 197 q 1321 460 1167 331 q 1629 718 1475 590 q 1588 735 1619 728 q 1516 747 1557 742 q 1433 756 1475 753 q 1358 761 1392 760 q 1310 763 1325 763 q 1161 753 1236 763 q 1021 707 1086 743 q 999 697 1011 701 q 978 692 986 692 q 969 699 969 692 q 978 721 969 704 q 1043 778 999 756 q 1141 815 1088 801 q 1247 833 1194 828 q 1333 839 1299 839 q 1408 838 1360 839 q 1513 832 1457 836 q 1616 822 1568 828 q 1686 807 1664 815 q 1725 777 1710 797 q 1740 729 1740 757 q 1739 717 1740 724 q 1732 707 1738 710 q 1606 622 1668 664 q 1482 532 1543 581 q 1229 324 1357 435 q 976 114 1101 213 l 994 115 q 1016 117 1006 117 q 1036 117 1026 117 q 1202 99 1118 117 q 1370 65 1286 82 q 1535 47 1454 47 q 1594 53 1561 47 q 1650 77 1626 60 q 1674 128 1674 94 q 1654 189 1674 161 q 1608 238 1635 217 q 1563 274 1582 260 q 1543 296 1543 289 q 1549 304 1543 303 q 1560 306 1556 306 q 1642 283 1603 306 q 1706 225 1681 261 q 1732 144 1732 189 q 1706 66 1732 96 q 1639 22 1679 36 q 1557 8 1599 8 z "},"Ď":{"ha":815,"x_min":74,"x_max":1007,"o":"m 997 1033 q 1007 1031 1007 1036 q 1004 1024 1007 1028 q 1000 1018 1001 1021 q 933 966 965 988 q 868 921 900 944 q 844 903 860 914 q 813 885 828 893 q 793 876 799 876 q 779 886 785 876 l 757 918 q 728 962 740 942 q 701 1004 717 982 q 694 1028 694 1015 q 699 1033 694 1032 q 708 1033 704 1035 q 733 1017 714 1032 q 776 982 753 1001 q 817 944 800 963 q 889 983 849 963 q 960 1017 929 1003 q 997 1033 992 1032 m 301 13 q 269 17 292 13 q 226 30 246 22 q 204 46 206 38 q 220 57 204 54 q 253 60 236 60 q 274 61 271 61 q 392 81 325 61 q 529 135 458 100 q 665 215 600 169 q 783 316 731 261 q 863 429 835 371 q 883 546 890 488 q 841 663 875 618 q 755 734 807 708 q 642 771 703 760 q 521 785 582 782 q 407 788 460 788 q 301 785 356 788 q 200 767 247 782 q 172 758 186 763 q 143 754 158 754 q 135 755 142 754 q 128 760 128 756 q 146 793 125 779 q 199 817 167 807 q 267 832 232 826 q 332 840 303 838 q 374 842 361 842 q 511 835 439 842 q 654 810 583 829 q 785 757 725 792 q 883 665 844 722 q 932 524 922 608 q 933 507 933 515 q 933 492 933 499 q 892 335 933 408 q 783 203 851 263 q 631 101 714 144 q 461 35 547 58 q 301 13 375 13 m 128 -17 q 97 -1 110 -17 q 79 36 85 15 q 74 68 74 57 q 95 165 74 101 q 152 306 117 228 q 231 465 188 385 q 319 612 275 544 q 401 720 363 679 q 465 761 440 761 q 504 747 479 761 q 531 718 529 733 q 501 676 532 713 q 421 581 469 639 q 319 454 372 524 q 218 313 265 385 q 143 174 171 240 q 121 58 115 108 q 125 44 122 50 q 138 39 128 39 q 164 48 153 39 q 179 57 175 57 q 183 53 182 57 q 183 50 183 50 q 169 5 186 26 q 128 -17 151 -17 z "},"Đ":{"ha":815,"x_min":22,"x_max":933,"o":"m 301 13 q 269 17 292 13 q 226 30 246 22 q 204 46 206 38 q 220 57 204 54 q 253 60 236 60 q 274 61 271 61 q 392 81 325 61 q 529 135 458 100 q 665 215 600 169 q 783 316 731 261 q 863 429 835 371 q 883 546 890 488 q 841 663 875 618 q 755 734 807 708 q 642 771 703 760 q 521 785 582 782 q 407 788 460 788 q 301 785 356 788 q 200 767 247 782 q 172 758 186 763 q 143 754 158 754 q 135 755 142 754 q 128 760 128 756 q 146 793 125 779 q 199 817 167 807 q 267 832 232 826 q 332 840 303 838 q 374 842 361 842 q 511 835 439 842 q 654 810 583 829 q 785 757 725 792 q 883 665 844 722 q 932 524 922 608 q 933 507 933 515 q 933 492 933 499 q 892 335 933 408 q 783 203 851 263 q 631 101 714 144 q 461 35 547 58 q 301 13 375 13 m 128 -17 q 97 0 110 -17 q 79 38 85 17 q 74 68 74 58 q 89 147 74 96 q 131 258 104 197 l 39 258 q 22 267 22 258 q 47 294 22 278 q 97 310 72 310 l 154 310 q 232 465 189 386 q 319 612 275 544 q 402 720 364 679 q 465 761 440 761 q 504 747 479 761 q 531 718 529 733 q 500 675 531 713 q 420 579 469 638 q 317 451 371 521 q 217 310 263 381 l 313 310 q 345 309 325 310 q 382 305 365 308 q 399 293 399 301 q 378 274 399 282 q 327 263 357 267 q 268 258 297 258 l 185 258 q 135 150 153 201 q 121 58 117 99 q 125 44 122 50 q 138 39 128 39 q 164 48 153 39 q 179 57 175 57 q 183 53 182 57 q 183 50 183 50 q 169 5 186 26 q 128 -17 151 -17 z "},"ǅ":{"ha":1250,"x_min":74,"x_max":1400,"o":"m 1140 646 q 1163 629 1146 644 q 1199 594 1179 614 q 1233 557 1219 574 q 1296 593 1261 574 q 1358 627 1331 613 q 1390 643 1385 642 q 1400 640 1400 646 q 1397 634 1400 638 q 1393 628 1394 631 q 1322 569 1358 597 q 1254 517 1286 540 q 1229 498 1240 507 q 1210 489 1218 489 q 1196 499 1201 489 l 1185 517 q 1156 568 1169 542 q 1133 617 1143 594 q 1129 628 1132 622 q 1126 640 1126 635 q 1131 646 1126 644 q 1140 646 1136 647 m 301 13 q 269 17 292 13 q 226 30 246 22 q 204 46 206 38 q 220 57 204 54 q 253 60 236 60 q 274 61 271 61 q 392 81 325 61 q 529 135 458 100 q 665 215 600 169 q 783 316 731 261 q 863 429 835 371 q 883 546 890 488 q 841 663 875 618 q 755 734 807 708 q 642 771 703 760 q 521 785 582 782 q 407 788 460 788 q 301 785 356 788 q 200 767 247 782 q 172 758 186 763 q 143 754 158 754 q 135 755 142 754 q 128 760 128 756 q 146 793 125 779 q 199 817 167 807 q 267 832 232 826 q 332 840 303 838 q 374 842 361 842 q 511 835 439 842 q 654 810 583 829 q 785 757 725 792 q 883 665 844 722 q 932 524 922 608 q 933 507 933 515 q 933 492 933 499 q 892 335 933 408 q 783 203 851 263 q 631 101 714 144 q 461 35 547 58 q 301 13 375 13 m 128 -17 q 97 -1 110 -17 q 79 36 85 15 q 74 68 74 57 q 95 165 74 101 q 152 306 117 228 q 231 465 188 385 q 319 612 275 544 q 401 720 363 679 q 465 761 440 761 q 504 747 479 761 q 531 718 529 733 q 501 676 532 713 q 421 581 469 639 q 319 454 372 524 q 218 313 265 385 q 143 174 171 240 q 121 58 115 108 q 125 44 122 50 q 138 39 128 39 q 164 48 153 39 q 179 57 175 57 q 183 53 182 57 q 183 50 183 50 q 169 5 186 26 q 128 -17 151 -17 m 1163 -24 q 1153 -8 1153 -24 q 1173 24 1164 6 q 1182 56 1182 42 q 1168 77 1182 71 q 1133 83 1154 83 q 1068 75 1104 83 q 1003 58 1032 67 q 963 44 974 49 q 947 33 954 42 q 931 19 939 24 q 885 7 908 7 q 860 15 871 7 q 849 39 849 22 q 860 64 849 53 q 917 113 876 82 q 1006 181 957 143 q 1104 256 1056 218 q 1188 326 1153 293 q 1231 378 1222 358 l 1231 381 q 1214 388 1231 388 q 1190 388 1197 388 q 1141 382 1169 388 q 1087 366 1113 376 q 1050 339 1061 356 q 1042 333 1046 335 q 1032 331 1039 331 q 1007 342 1021 332 q 993 365 993 351 q 1018 397 993 385 q 1079 413 1043 408 q 1148 420 1115 418 q 1197 422 1181 422 q 1297 415 1258 425 q 1336 382 1336 404 q 1313 347 1336 367 q 1185 253 1257 303 q 1040 155 1113 204 q 907 61 967 106 q 963 81 924 69 q 1050 101 1003 92 q 1139 116 1097 110 q 1199 122 1181 122 q 1239 115 1221 122 q 1254 93 1257 107 q 1231 35 1249 63 q 1194 -8 1213 8 q 1163 -24 1175 -24 z "},"E":{"ha":818,"x_min":119,"x_max":985,"o":"m 317 -22 q 186 13 240 -22 q 121 132 132 47 q 119 143 119 138 q 119 154 119 149 q 137 251 119 201 q 178 347 154 300 q 221 433 203 394 q 188 436 208 435 q 152 447 168 438 q 136 475 136 456 q 142 485 136 482 q 156 488 149 488 q 172 486 164 488 q 185 485 181 485 q 256 510 224 485 q 317 574 289 536 q 368 649 344 611 q 413 714 392 688 q 401 724 408 724 q 389 728 394 725 q 381 749 383 732 q 404 785 378 771 q 474 807 431 799 q 566 819 517 815 q 659 824 615 824 q 729 825 703 825 q 836 824 782 825 q 944 813 890 822 q 976 794 967 807 q 985 771 985 782 q 978 753 985 761 q 964 746 972 746 q 940 765 950 746 q 885 776 918 775 q 831 776 853 776 q 769 774 810 776 q 684 769 729 772 q 602 758 639 765 q 550 740 565 751 q 509 702 536 732 q 451 635 482 672 q 394 564 421 597 q 356 514 368 531 q 515 519 436 513 q 675 526 594 526 l 726 526 q 777 526 751 526 q 828 522 803 525 q 844 515 844 521 q 833 506 844 511 q 810 496 822 500 q 793 490 799 492 q 628 476 714 478 q 458 469 542 475 q 299 431 374 463 q 276 386 293 418 q 239 313 258 354 q 205 226 219 271 q 190 142 190 182 q 219 63 190 94 q 321 32 247 32 q 463 51 383 32 q 624 101 542 71 q 778 164 706 131 q 903 226 851 197 q 914 231 911 231 q 918 225 918 231 q 913 211 918 218 q 837 146 890 179 q 713 83 783 113 q 567 29 642 53 q 426 -8 493 6 q 317 -22 360 -22 z "},"É":{"ha":818,"x_min":119,"x_max":985,"o":"m 317 -22 q 186 13 240 -22 q 121 132 132 47 q 119 143 119 138 q 119 154 119 149 q 137 251 119 201 q 178 347 154 300 q 221 433 203 394 q 188 436 208 435 q 152 447 168 438 q 136 475 136 456 q 142 485 136 482 q 156 488 149 488 q 172 486 164 488 q 185 485 181 485 q 256 510 224 485 q 317 574 289 536 q 368 649 344 611 q 413 714 392 688 q 401 724 408 724 q 389 728 394 725 q 381 749 383 732 q 404 785 378 771 q 474 807 431 799 q 566 819 517 815 q 659 824 615 824 q 729 825 703 825 q 836 824 782 825 q 944 813 890 822 q 976 794 967 807 q 985 771 985 782 q 978 753 985 761 q 964 746 972 746 q 940 765 950 746 q 885 776 918 775 q 831 776 853 776 q 769 774 810 776 q 684 769 729 772 q 602 758 639 765 q 550 740 565 751 q 509 702 536 732 q 451 635 482 672 q 394 564 421 597 q 356 514 368 531 q 515 519 436 513 q 675 526 594 526 l 726 526 q 777 526 751 526 q 828 522 803 525 q 844 515 844 521 q 833 506 844 511 q 810 496 822 500 q 793 490 799 492 q 628 476 714 478 q 458 469 542 475 q 299 431 374 463 q 276 386 293 418 q 239 313 258 354 q 205 226 219 271 q 190 142 190 182 q 219 63 190 94 q 321 32 247 32 q 463 51 383 32 q 624 101 542 71 q 778 164 706 131 q 903 226 851 197 q 914 231 911 231 q 918 225 918 231 q 913 211 918 218 q 837 146 890 179 q 713 83 783 113 q 567 29 642 53 q 426 -8 493 6 q 317 -22 360 -22 m 657 892 q 644 901 644 892 q 649 907 646 904 q 653 911 651 910 q 705 945 674 926 q 768 982 736 964 q 819 1011 800 1000 q 846 1024 838 1021 q 860 1026 854 1026 q 874 1013 868 1025 q 879 994 879 1001 q 874 979 879 985 q 863 971 869 974 q 822 953 853 967 q 754 926 790 940 q 690 901 718 911 q 657 892 661 892 z "},"Ĕ":{"ha":818,"x_min":119,"x_max":985,"o":"m 317 -22 q 186 13 240 -22 q 121 132 132 47 q 119 143 119 138 q 119 154 119 149 q 137 251 119 201 q 178 347 154 300 q 221 433 203 394 q 188 436 208 435 q 152 447 168 438 q 136 475 136 456 q 142 485 136 482 q 156 488 149 488 q 172 486 164 488 q 185 485 181 485 q 256 510 224 485 q 317 574 289 536 q 368 649 344 611 q 413 714 392 688 q 401 724 408 724 q 389 728 394 725 q 381 749 383 732 q 404 785 378 771 q 474 807 431 799 q 566 819 517 815 q 659 824 615 824 q 729 825 703 825 q 836 824 782 825 q 944 813 890 822 q 976 794 967 807 q 985 771 985 782 q 978 753 985 761 q 964 746 972 746 q 940 765 950 746 q 885 776 918 775 q 831 776 853 776 q 769 774 810 776 q 684 769 729 772 q 602 758 639 765 q 550 740 565 751 q 509 702 536 732 q 451 635 482 672 q 394 564 421 597 q 356 514 368 531 q 515 519 436 513 q 675 526 594 526 l 726 526 q 777 526 751 526 q 828 522 803 525 q 844 515 844 521 q 833 506 844 511 q 810 496 822 500 q 793 490 799 492 q 628 476 714 478 q 458 469 542 475 q 299 431 374 463 q 276 386 293 418 q 239 313 258 354 q 205 226 219 271 q 190 142 190 182 q 219 63 190 94 q 321 32 247 32 q 463 51 383 32 q 624 101 542 71 q 778 164 706 131 q 903 226 851 197 q 914 231 911 231 q 918 225 918 231 q 913 211 918 218 q 837 146 890 179 q 713 83 783 113 q 567 29 642 53 q 426 -8 493 6 q 317 -22 360 -22 m 736 899 q 653 928 689 899 q 617 1000 617 957 q 624 1031 617 1017 q 646 1044 632 1044 q 663 1035 658 1044 q 669 1014 667 1026 q 701 966 678 981 q 754 951 724 951 q 830 965 794 951 q 897 1022 865 978 q 906 1038 900 1028 q 919 1049 913 1049 q 931 1044 926 1049 q 931 1031 935 1040 q 849 931 906 964 q 736 899 793 899 z "},"Ě":{"ha":818,"x_min":119,"x_max":985,"o":"m 949 1049 q 958 1046 958 1051 q 956 1040 958 1043 q 951 1033 953 1036 q 884 981 917 1003 q 819 936 851 960 q 795 919 811 929 q 765 900 779 908 q 744 892 750 892 q 731 901 736 892 l 708 933 q 680 977 692 957 q 653 1019 668 997 q 646 1043 646 1031 q 651 1049 646 1047 q 660 1049 656 1050 q 685 1032 665 1047 q 728 997 704 1017 q 768 960 751 978 q 840 998 800 978 q 912 1033 881 1018 q 949 1049 943 1047 m 317 -22 q 186 13 240 -22 q 121 132 132 47 q 119 143 119 138 q 119 154 119 149 q 137 251 119 201 q 178 347 154 300 q 221 433 203 394 q 188 436 208 435 q 152 447 168 438 q 136 475 136 456 q 142 485 136 482 q 156 488 149 488 q 172 486 164 488 q 185 485 181 485 q 256 510 224 485 q 317 574 289 536 q 368 649 344 611 q 413 714 392 688 q 401 724 408 724 q 389 728 394 725 q 381 749 383 732 q 404 785 378 771 q 474 807 431 799 q 566 819 517 815 q 659 824 615 824 q 729 825 703 825 q 836 824 782 825 q 944 813 890 822 q 976 794 967 807 q 985 771 985 782 q 978 753 985 761 q 964 746 972 746 q 940 765 950 746 q 885 776 918 775 q 831 776 853 776 q 769 774 810 776 q 684 769 729 772 q 602 758 639 765 q 550 740 565 751 q 509 702 536 732 q 451 635 482 672 q 394 564 421 597 q 356 514 368 531 q 515 519 436 513 q 675 526 594 526 l 726 526 q 777 526 751 526 q 828 522 803 525 q 844 515 844 521 q 833 506 844 511 q 810 496 822 500 q 793 490 799 492 q 628 476 714 478 q 458 469 542 475 q 299 431 374 463 q 276 386 293 418 q 239 313 258 354 q 205 226 219 271 q 190 142 190 182 q 219 63 190 94 q 321 32 247 32 q 463 51 383 32 q 624 101 542 71 q 778 164 706 131 q 903 226 851 197 q 914 231 911 231 q 918 225 918 231 q 913 211 918 218 q 837 146 890 179 q 713 83 783 113 q 567 29 642 53 q 426 -8 493 6 q 317 -22 360 -22 z "},"Ê":{"ha":818,"x_min":119,"x_max":985,"o":"m 317 -22 q 186 13 240 -22 q 121 132 132 47 q 119 143 119 138 q 119 154 119 149 q 137 251 119 201 q 178 347 154 300 q 221 433 203 394 q 188 436 208 435 q 152 447 168 438 q 136 475 136 456 q 142 485 136 482 q 156 488 149 488 q 172 486 164 488 q 185 485 181 485 q 256 510 224 485 q 317 574 289 536 q 368 649 344 611 q 413 714 392 688 q 401 724 408 724 q 389 728 394 725 q 381 749 383 732 q 404 785 378 771 q 474 807 431 799 q 566 819 517 815 q 659 824 615 824 q 729 825 703 825 q 836 824 782 825 q 944 813 890 822 q 976 794 967 807 q 985 771 985 782 q 978 753 985 761 q 964 746 972 746 q 940 765 950 746 q 885 776 918 775 q 831 776 853 776 q 769 774 810 776 q 684 769 729 772 q 602 758 639 765 q 550 740 565 751 q 509 702 536 732 q 451 635 482 672 q 394 564 421 597 q 356 514 368 531 q 515 519 436 513 q 675 526 594 526 l 726 526 q 777 526 751 526 q 828 522 803 525 q 844 515 844 521 q 833 506 844 511 q 810 496 822 500 q 793 490 799 492 q 628 476 714 478 q 458 469 542 475 q 299 431 374 463 q 276 386 293 418 q 239 313 258 354 q 205 226 219 271 q 190 142 190 182 q 219 63 190 94 q 321 32 247 32 q 463 51 383 32 q 624 101 542 71 q 778 164 706 131 q 903 226 851 197 q 914 231 911 231 q 918 225 918 231 q 913 211 918 218 q 837 146 890 179 q 713 83 783 113 q 567 29 642 53 q 426 -8 493 6 q 317 -22 360 -22 m 603 893 q 593 896 593 890 q 596 903 593 899 q 600 908 599 907 q 667 960 635 939 q 732 1006 700 982 q 757 1023 742 1013 q 787 1042 772 1033 q 807 1050 801 1050 q 821 1040 815 1050 l 843 1008 q 872 965 860 985 q 899 922 883 946 q 906 899 906 911 q 901 893 906 894 q 892 893 896 892 q 867 910 888 896 q 824 945 847 925 q 783 982 800 965 q 711 944 751 965 q 640 909 671 924 q 603 893 608 894 z "},"Ế":{"ha":818,"x_min":119,"x_max":1142,"o":"m 317 -22 q 186 13 240 -22 q 121 132 132 47 q 119 143 119 138 q 119 154 119 149 q 137 251 119 201 q 178 347 154 300 q 221 433 203 394 q 188 436 208 435 q 152 447 168 438 q 136 475 136 456 q 142 485 136 482 q 156 488 149 488 q 172 486 164 488 q 185 485 181 485 q 256 510 224 485 q 317 574 289 536 q 368 649 344 611 q 413 714 392 688 q 401 724 408 724 q 389 728 394 725 q 381 749 383 732 q 404 785 378 771 q 474 807 431 799 q 566 819 517 815 q 659 824 615 824 q 729 825 703 825 q 836 824 782 825 q 944 813 890 822 q 976 794 967 807 q 985 771 985 782 q 978 753 985 761 q 964 746 972 746 q 940 765 950 746 q 885 776 918 775 q 831 776 853 776 q 769 774 810 776 q 684 769 729 772 q 602 758 639 765 q 550 740 565 751 q 509 702 536 732 q 451 635 482 672 q 394 564 421 597 q 356 514 368 531 q 515 519 436 513 q 675 526 594 526 l 726 526 q 777 526 751 526 q 828 522 803 525 q 844 515 844 521 q 833 506 844 511 q 810 496 822 500 q 793 490 799 492 q 628 476 714 478 q 458 469 542 475 q 299 431 374 463 q 276 386 293 418 q 239 313 258 354 q 205 226 219 271 q 190 142 190 182 q 219 63 190 94 q 321 32 247 32 q 463 51 383 32 q 624 101 542 71 q 778 164 706 131 q 903 226 851 197 q 914 231 911 231 q 918 225 918 231 q 913 211 918 218 q 837 146 890 179 q 713 83 783 113 q 567 29 642 53 q 426 -8 493 6 q 317 -22 360 -22 m 603 893 q 593 896 593 890 q 596 903 593 899 q 600 908 599 907 q 667 960 635 939 q 732 1006 700 982 q 757 1023 742 1013 q 787 1042 772 1033 q 807 1050 801 1050 q 821 1040 815 1050 l 843 1008 q 872 965 860 985 q 899 922 883 946 q 906 899 906 911 q 901 893 906 894 q 892 893 896 892 q 867 910 888 896 q 824 945 847 925 q 783 982 800 965 q 711 944 751 965 q 640 909 671 924 q 603 893 608 894 m 919 1019 q 907 1029 907 1019 q 911 1035 908 1032 q 915 1039 914 1038 q 967 1073 936 1054 q 1031 1110 999 1092 q 1082 1139 1063 1128 q 1108 1151 1100 1149 q 1122 1154 1117 1154 q 1136 1141 1131 1153 q 1142 1122 1142 1129 q 1137 1107 1142 1113 q 1125 1099 1132 1101 q 1084 1081 1115 1094 q 1017 1053 1053 1068 q 952 1029 981 1039 q 919 1019 924 1019 z "},"Ệ":{"ha":818,"x_min":119,"x_max":985,"o":"m 317 -22 q 186 13 240 -22 q 121 132 132 47 q 119 143 119 138 q 119 154 119 149 q 137 251 119 201 q 178 347 154 300 q 221 433 203 394 q 188 436 208 435 q 152 447 168 438 q 136 475 136 456 q 142 485 136 482 q 156 488 149 488 q 172 486 164 488 q 185 485 181 485 q 256 510 224 485 q 317 574 289 536 q 368 649 344 611 q 413 714 392 688 q 401 724 408 724 q 389 728 394 725 q 381 749 383 732 q 404 785 378 771 q 474 807 431 799 q 566 819 517 815 q 659 824 615 824 q 729 825 703 825 q 836 824 782 825 q 944 813 890 822 q 976 794 967 807 q 985 771 985 782 q 978 753 985 761 q 964 746 972 746 q 940 765 950 746 q 885 776 918 775 q 831 776 853 776 q 769 774 810 776 q 684 769 729 772 q 602 758 639 765 q 550 740 565 751 q 509 702 536 732 q 451 635 482 672 q 394 564 421 597 q 356 514 368 531 q 515 519 436 513 q 675 526 594 526 l 726 526 q 777 526 751 526 q 828 522 803 525 q 844 515 844 521 q 833 506 844 511 q 810 496 822 500 q 793 490 799 492 q 628 476 714 478 q 458 469 542 475 q 299 431 374 463 q 276 386 293 418 q 239 313 258 354 q 205 226 219 271 q 190 142 190 182 q 219 63 190 94 q 321 32 247 32 q 463 51 383 32 q 624 101 542 71 q 778 164 706 131 q 903 226 851 197 q 914 231 911 231 q 918 225 918 231 q 913 211 918 218 q 837 146 890 179 q 713 83 783 113 q 567 29 642 53 q 426 -8 493 6 q 317 -22 360 -22 m 307 -201 q 276 -196 294 -201 q 258 -171 258 -190 q 270 -141 258 -158 q 299 -110 282 -124 q 329 -97 315 -97 q 351 -107 340 -97 q 360 -131 361 -117 q 349 -155 360 -137 q 327 -187 339 -172 q 307 -201 315 -201 m 603 893 q 593 896 593 890 q 596 903 593 899 q 600 908 599 907 q 667 960 635 939 q 732 1006 700 982 q 757 1023 742 1013 q 787 1042 772 1033 q 807 1050 801 1050 q 821 1040 815 1050 l 843 1008 q 872 965 860 985 q 899 922 883 946 q 906 899 906 911 q 901 893 906 894 q 892 893 896 892 q 867 910 888 896 q 824 945 847 925 q 783 982 800 965 q 711 944 751 965 q 640 909 671 924 q 603 893 608 894 z "},"Ề":{"ha":818,"x_min":119,"x_max":985,"o":"m 317 -22 q 186 13 240 -22 q 121 132 132 47 q 119 143 119 138 q 119 154 119 149 q 137 251 119 201 q 178 347 154 300 q 221 433 203 394 q 188 436 208 435 q 152 447 168 438 q 136 475 136 456 q 142 485 136 482 q 156 488 149 488 q 172 486 164 488 q 185 485 181 485 q 256 510 224 485 q 317 574 289 536 q 368 649 344 611 q 413 714 392 688 q 401 724 408 724 q 389 728 394 725 q 381 749 383 732 q 404 785 378 771 q 474 807 431 799 q 566 819 517 815 q 659 824 615 824 q 729 825 703 825 q 836 824 782 825 q 944 813 890 822 q 976 794 967 807 q 985 771 985 782 q 978 753 985 761 q 964 746 972 746 q 940 765 950 746 q 885 776 918 775 q 831 776 853 776 q 769 774 810 776 q 684 769 729 772 q 602 758 639 765 q 550 740 565 751 q 509 702 536 732 q 451 635 482 672 q 394 564 421 597 q 356 514 368 531 q 515 519 436 513 q 675 526 594 526 l 726 526 q 777 526 751 526 q 828 522 803 525 q 844 515 844 521 q 833 506 844 511 q 810 496 822 500 q 793 490 799 492 q 628 476 714 478 q 458 469 542 475 q 299 431 374 463 q 276 386 293 418 q 239 313 258 354 q 205 226 219 271 q 190 142 190 182 q 219 63 190 94 q 321 32 247 32 q 463 51 383 32 q 624 101 542 71 q 778 164 706 131 q 903 226 851 197 q 914 231 911 231 q 918 225 918 231 q 913 211 918 218 q 837 146 890 179 q 713 83 783 113 q 567 29 642 53 q 426 -8 493 6 q 317 -22 360 -22 m 603 893 q 593 896 593 890 q 596 903 593 899 q 600 908 599 907 q 667 960 635 939 q 732 1006 700 982 q 757 1023 742 1013 q 787 1042 772 1033 q 807 1050 801 1050 q 821 1040 815 1050 l 843 1008 q 872 965 860 985 q 899 922 883 946 q 906 899 906 911 q 901 893 906 894 q 892 893 896 892 q 867 910 888 896 q 824 945 847 925 q 783 982 800 965 q 711 944 751 965 q 640 909 671 924 q 603 893 608 894 m 931 1067 q 898 1076 926 1067 q 833 1101 869 1086 q 766 1128 797 1115 q 725 1146 735 1142 q 714 1154 719 1149 q 708 1169 708 1160 q 714 1188 708 1176 q 728 1201 719 1200 q 742 1199 735 1201 q 768 1186 750 1196 q 819 1157 788 1175 q 883 1120 851 1139 q 935 1086 915 1101 q 940 1082 938 1085 q 943 1076 942 1079 q 931 1067 943 1067 z "},"Ể":{"ha":818,"x_min":119,"x_max":1099,"o":"m 317 -22 q 186 13 240 -22 q 121 132 132 47 q 119 143 119 138 q 119 154 119 149 q 137 251 119 201 q 178 347 154 300 q 221 433 203 394 q 188 436 208 435 q 152 447 168 438 q 136 475 136 456 q 142 485 136 482 q 156 488 149 488 q 172 486 164 488 q 185 485 181 485 q 256 510 224 485 q 317 574 289 536 q 368 649 344 611 q 413 714 392 688 q 401 724 408 724 q 389 728 394 725 q 381 749 383 732 q 404 785 378 771 q 474 807 431 799 q 566 819 517 815 q 659 824 615 824 q 729 825 703 825 q 836 824 782 825 q 944 813 890 822 q 976 794 967 807 q 985 771 985 782 q 978 753 985 761 q 964 746 972 746 q 940 765 950 746 q 885 776 918 775 q 831 776 853 776 q 769 774 810 776 q 684 769 729 772 q 602 758 639 765 q 550 740 565 751 q 509 702 536 732 q 451 635 482 672 q 394 564 421 597 q 356 514 368 531 q 515 519 436 513 q 675 526 594 526 l 726 526 q 777 526 751 526 q 828 522 803 525 q 844 515 844 521 q 833 506 844 511 q 810 496 822 500 q 793 490 799 492 q 628 476 714 478 q 458 469 542 475 q 299 431 374 463 q 276 386 293 418 q 239 313 258 354 q 205 226 219 271 q 190 142 190 182 q 219 63 190 94 q 321 32 247 32 q 463 51 383 32 q 624 101 542 71 q 778 164 706 131 q 903 226 851 197 q 914 231 911 231 q 918 225 918 231 q 913 211 918 218 q 837 146 890 179 q 713 83 783 113 q 567 29 642 53 q 426 -8 493 6 q 317 -22 360 -22 m 603 893 q 593 896 593 890 q 596 903 593 899 q 600 908 599 907 q 667 960 635 939 q 732 1006 700 982 q 757 1023 742 1013 q 787 1042 772 1033 q 807 1050 801 1050 q 821 1040 815 1050 l 843 1008 q 872 965 860 985 q 899 922 883 946 q 906 899 906 911 q 901 893 906 894 q 892 893 896 892 q 867 910 888 896 q 824 945 847 925 q 783 982 800 965 q 711 944 751 965 q 640 909 671 924 q 603 893 608 894 m 951 985 q 939 996 939 985 q 943 1010 939 1001 q 974 1049 956 1035 q 1010 1080 993 1064 q 1032 1125 1028 1096 q 1033 1129 1032 1128 q 1033 1132 1033 1131 q 1024 1149 1033 1143 q 1004 1154 1015 1154 q 966 1144 986 1154 q 932 1118 946 1135 q 910 1104 919 1104 q 900 1115 897 1104 q 920 1150 904 1131 q 964 1184 936 1169 q 1029 1199 992 1199 q 1081 1183 1064 1199 q 1099 1144 1099 1168 q 1085 1099 1099 1124 q 1043 1056 1071 1075 q 1006 1031 1032 1047 q 967 993 981 1014 q 951 985 963 985 z "},"Ễ":{"ha":818,"x_min":119,"x_max":997,"o":"m 317 -22 q 186 13 240 -22 q 121 132 132 47 q 119 143 119 138 q 119 154 119 149 q 137 251 119 201 q 178 347 154 300 q 221 433 203 394 q 188 436 208 435 q 152 447 168 438 q 136 475 136 456 q 142 485 136 482 q 156 488 149 488 q 172 486 164 488 q 185 485 181 485 q 256 510 224 485 q 317 574 289 536 q 368 649 344 611 q 413 714 392 688 q 401 724 408 724 q 389 728 394 725 q 381 749 383 732 q 404 785 378 771 q 474 807 431 799 q 566 819 517 815 q 659 824 615 824 q 729 825 703 825 q 836 824 782 825 q 944 813 890 822 q 976 794 967 807 q 985 771 985 782 q 978 753 985 761 q 964 746 972 746 q 940 765 950 746 q 885 776 918 775 q 831 776 853 776 q 769 774 810 776 q 684 769 729 772 q 602 758 639 765 q 550 740 565 751 q 509 702 536 732 q 451 635 482 672 q 394 564 421 597 q 356 514 368 531 q 515 519 436 513 q 675 526 594 526 l 726 526 q 777 526 751 526 q 828 522 803 525 q 844 515 844 521 q 833 506 844 511 q 810 496 822 500 q 793 490 799 492 q 628 476 714 478 q 458 469 542 475 q 299 431 374 463 q 276 386 293 418 q 239 313 258 354 q 205 226 219 271 q 190 142 190 182 q 219 63 190 94 q 321 32 247 32 q 463 51 383 32 q 624 101 542 71 q 778 164 706 131 q 903 226 851 197 q 914 231 911 231 q 918 225 918 231 q 913 211 918 218 q 837 146 890 179 q 713 83 783 113 q 567 29 642 53 q 426 -8 493 6 q 317 -22 360 -22 m 603 893 q 593 896 593 890 q 596 903 593 899 q 600 908 599 907 q 667 960 635 939 q 732 1006 700 982 q 757 1023 742 1013 q 787 1042 772 1033 q 807 1050 801 1050 q 821 1040 815 1050 l 843 1008 q 872 965 860 985 q 899 922 883 946 q 906 899 906 911 q 901 893 906 894 q 892 893 896 892 q 867 910 888 896 q 824 945 847 925 q 783 982 800 965 q 711 944 751 965 q 640 909 671 924 q 603 893 608 894 m 697 1075 q 688 1082 692 1075 q 683 1099 683 1089 q 697 1138 683 1117 q 735 1176 710 1160 q 792 1192 760 1192 q 834 1181 813 1192 q 876 1158 856 1169 q 918 1147 897 1147 q 952 1156 938 1147 q 978 1179 967 1165 q 985 1190 982 1185 q 990 1196 989 1196 q 994 1171 997 1196 q 970 1117 993 1144 q 914 1090 947 1090 q 872 1101 892 1090 q 831 1124 851 1113 q 783 1135 810 1135 q 740 1119 764 1135 q 707 1083 715 1104 q 697 1075 704 1075 z "},"Ȅ":{"ha":818,"x_min":119,"x_max":985,"o":"m 756 893 q 727 913 750 894 q 674 958 704 932 q 619 1006 644 983 q 586 1036 594 1028 q 578 1047 582 1040 q 578 1064 575 1053 q 590 1079 581 1069 q 607 1088 599 1089 q 619 1079 613 1085 q 640 1060 626 1074 q 679 1015 656 1043 q 727 959 703 988 q 765 911 751 931 q 768 906 767 908 q 769 899 769 903 q 756 893 767 890 m 658 892 q 626 907 653 893 q 567 941 600 921 q 505 978 533 961 q 467 1003 476 996 q 457 1013 461 1007 q 454 1028 453 1018 q 463 1046 456 1035 q 479 1057 471 1057 q 492 1051 485 1056 q 517 1036 500 1047 q 562 999 533 1021 q 619 952 590 976 q 665 911 647 928 q 669 906 667 908 q 672 900 671 903 q 658 892 671 890 m 317 -22 q 186 13 240 -22 q 121 132 132 47 q 119 143 119 138 q 119 154 119 149 q 137 251 119 201 q 178 347 154 300 q 221 433 203 394 q 188 436 208 435 q 152 447 168 438 q 136 475 136 456 q 142 485 136 482 q 156 488 149 488 q 172 486 164 488 q 185 485 181 485 q 256 510 224 485 q 317 574 289 536 q 368 649 344 611 q 413 714 392 688 q 401 724 408 724 q 389 728 394 725 q 381 749 383 732 q 404 785 378 771 q 474 807 431 799 q 566 819 517 815 q 659 824 615 824 q 729 825 703 825 q 836 824 782 825 q 944 813 890 822 q 976 794 967 807 q 985 771 985 782 q 978 753 985 761 q 964 746 972 746 q 940 765 950 746 q 885 776 918 775 q 831 776 853 776 q 769 774 810 776 q 684 769 729 772 q 602 758 639 765 q 550 740 565 751 q 509 702 536 732 q 451 635 482 672 q 394 564 421 597 q 356 514 368 531 q 515 519 436 513 q 675 526 594 526 l 726 526 q 777 526 751 526 q 828 522 803 525 q 844 515 844 521 q 833 506 844 511 q 810 496 822 500 q 793 490 799 492 q 628 476 714 478 q 458 469 542 475 q 299 431 374 463 q 276 386 293 418 q 239 313 258 354 q 205 226 219 271 q 190 142 190 182 q 219 63 190 94 q 321 32 247 32 q 463 51 383 32 q 624 101 542 71 q 778 164 706 131 q 903 226 851 197 q 914 231 911 231 q 918 225 918 231 q 913 211 918 218 q 837 146 890 179 q 713 83 783 113 q 567 29 642 53 q 426 -8 493 6 q 317 -22 360 -22 z "},"Ë":{"ha":818,"x_min":119,"x_max":985,"o":"m 317 -22 q 186 13 240 -22 q 121 132 132 47 q 119 143 119 138 q 119 154 119 149 q 137 251 119 201 q 178 347 154 300 q 221 433 203 394 q 188 436 208 435 q 152 447 168 438 q 136 475 136 456 q 142 485 136 482 q 156 488 149 488 q 172 486 164 488 q 185 485 181 485 q 256 510 224 485 q 317 574 289 536 q 368 649 344 611 q 413 714 392 688 q 401 724 408 724 q 389 728 394 725 q 381 749 383 732 q 404 785 378 771 q 474 807 431 799 q 566 819 517 815 q 659 824 615 824 q 729 825 703 825 q 836 824 782 825 q 944 813 890 822 q 976 794 967 807 q 985 771 985 782 q 978 753 985 761 q 964 746 972 746 q 940 765 950 746 q 885 776 918 775 q 831 776 853 776 q 769 774 810 776 q 684 769 729 772 q 602 758 639 765 q 550 740 565 751 q 509 702 536 732 q 451 635 482 672 q 394 564 421 597 q 356 514 368 531 q 515 519 436 513 q 675 526 594 526 l 726 526 q 777 526 751 526 q 828 522 803 525 q 844 515 844 521 q 833 506 844 511 q 810 496 822 500 q 793 490 799 492 q 628 476 714 478 q 458 469 542 475 q 299 431 374 463 q 276 386 293 418 q 239 313 258 354 q 205 226 219 271 q 190 142 190 182 q 219 63 190 94 q 321 32 247 32 q 463 51 383 32 q 624 101 542 71 q 778 164 706 131 q 903 226 851 197 q 914 231 911 231 q 918 225 918 231 q 913 211 918 218 q 837 146 890 179 q 713 83 783 113 q 567 29 642 53 q 426 -8 493 6 q 317 -22 360 -22 m 853 894 q 822 900 840 894 q 804 925 804 906 q 816 955 804 938 q 844 985 828 972 q 875 999 861 999 q 897 989 886 999 q 906 965 907 979 q 895 941 906 958 q 873 909 885 924 q 853 894 861 894 m 686 894 q 656 900 674 894 q 638 925 638 906 q 649 955 638 938 q 678 985 661 972 q 708 999 694 999 q 730 989 719 999 q 739 965 740 979 q 728 941 739 958 q 706 909 718 924 q 686 894 694 894 z "},"Ė":{"ha":818,"x_min":119,"x_max":985,"o":"m 317 -22 q 186 13 240 -22 q 121 132 132 47 q 119 143 119 138 q 119 154 119 149 q 137 251 119 201 q 178 347 154 300 q 221 433 203 394 q 188 436 208 435 q 152 447 168 438 q 136 475 136 456 q 142 485 136 482 q 156 488 149 488 q 172 486 164 488 q 185 485 181 485 q 256 510 224 485 q 317 574 289 536 q 368 649 344 611 q 413 714 392 688 q 401 724 408 724 q 389 728 394 725 q 381 749 383 732 q 404 785 378 771 q 474 807 431 799 q 566 819 517 815 q 659 824 615 824 q 729 825 703 825 q 836 824 782 825 q 944 813 890 822 q 976 794 967 807 q 985 771 985 782 q 978 753 985 761 q 964 746 972 746 q 940 765 950 746 q 885 776 918 775 q 831 776 853 776 q 769 774 810 776 q 684 769 729 772 q 602 758 639 765 q 550 740 565 751 q 509 702 536 732 q 451 635 482 672 q 394 564 421 597 q 356 514 368 531 q 515 519 436 513 q 675 526 594 526 l 726 526 q 777 526 751 526 q 828 522 803 525 q 844 515 844 521 q 833 506 844 511 q 810 496 822 500 q 793 490 799 492 q 628 476 714 478 q 458 469 542 475 q 299 431 374 463 q 276 386 293 418 q 239 313 258 354 q 205 226 219 271 q 190 142 190 182 q 219 63 190 94 q 321 32 247 32 q 463 51 383 32 q 624 101 542 71 q 778 164 706 131 q 903 226 851 197 q 914 231 911 231 q 918 225 918 231 q 913 211 918 218 q 837 146 890 179 q 713 83 783 113 q 567 29 642 53 q 426 -8 493 6 q 317 -22 360 -22 m 779 894 q 749 900 767 894 q 731 925 731 906 q 742 955 731 938 q 771 985 754 972 q 801 999 788 999 q 823 989 813 999 q 832 965 833 979 q 822 941 832 958 q 799 909 811 924 q 779 894 788 894 z "},"Ẹ":{"ha":818,"x_min":119,"x_max":985,"o":"m 317 -22 q 186 13 240 -22 q 121 132 132 47 q 119 143 119 138 q 119 154 119 149 q 137 251 119 201 q 178 347 154 300 q 221 433 203 394 q 188 436 208 435 q 152 447 168 438 q 136 475 136 456 q 142 485 136 482 q 156 488 149 488 q 172 486 164 488 q 185 485 181 485 q 256 510 224 485 q 317 574 289 536 q 368 649 344 611 q 413 714 392 688 q 401 724 408 724 q 389 728 394 725 q 381 749 383 732 q 404 785 378 771 q 474 807 431 799 q 566 819 517 815 q 659 824 615 824 q 729 825 703 825 q 836 824 782 825 q 944 813 890 822 q 976 794 967 807 q 985 771 985 782 q 978 753 985 761 q 964 746 972 746 q 940 765 950 746 q 885 776 918 775 q 831 776 853 776 q 769 774 810 776 q 684 769 729 772 q 602 758 639 765 q 550 740 565 751 q 509 702 536 732 q 451 635 482 672 q 394 564 421 597 q 356 514 368 531 q 515 519 436 513 q 675 526 594 526 l 726 526 q 777 526 751 526 q 828 522 803 525 q 844 515 844 521 q 833 506 844 511 q 810 496 822 500 q 793 490 799 492 q 628 476 714 478 q 458 469 542 475 q 299 431 374 463 q 276 386 293 418 q 239 313 258 354 q 205 226 219 271 q 190 142 190 182 q 219 63 190 94 q 321 32 247 32 q 463 51 383 32 q 624 101 542 71 q 778 164 706 131 q 903 226 851 197 q 914 231 911 231 q 918 225 918 231 q 913 211 918 218 q 837 146 890 179 q 713 83 783 113 q 567 29 642 53 q 426 -8 493 6 q 317 -22 360 -22 m 307 -201 q 276 -196 294 -201 q 258 -171 258 -190 q 270 -141 258 -158 q 299 -110 282 -124 q 329 -97 315 -97 q 351 -107 340 -97 q 360 -131 361 -117 q 349 -155 360 -137 q 327 -187 339 -172 q 307 -201 315 -201 z "},"È":{"ha":818,"x_min":119,"x_max":985,"o":"m 317 -22 q 186 13 240 -22 q 121 132 132 47 q 119 143 119 138 q 119 154 119 149 q 137 251 119 201 q 178 347 154 300 q 221 433 203 394 q 188 436 208 435 q 152 447 168 438 q 136 475 136 456 q 142 485 136 482 q 156 488 149 488 q 172 486 164 488 q 185 485 181 485 q 256 510 224 485 q 317 574 289 536 q 368 649 344 611 q 413 714 392 688 q 401 724 408 724 q 389 728 394 725 q 381 749 383 732 q 404 785 378 771 q 474 807 431 799 q 566 819 517 815 q 659 824 615 824 q 729 825 703 825 q 836 824 782 825 q 944 813 890 822 q 976 794 967 807 q 985 771 985 782 q 978 753 985 761 q 964 746 972 746 q 940 765 950 746 q 885 776 918 775 q 831 776 853 776 q 769 774 810 776 q 684 769 729 772 q 602 758 639 765 q 550 740 565 751 q 509 702 536 732 q 451 635 482 672 q 394 564 421 597 q 356 514 368 531 q 515 519 436 513 q 675 526 594 526 l 726 526 q 777 526 751 526 q 828 522 803 525 q 844 515 844 521 q 833 506 844 511 q 810 496 822 500 q 793 490 799 492 q 628 476 714 478 q 458 469 542 475 q 299 431 374 463 q 276 386 293 418 q 239 313 258 354 q 205 226 219 271 q 190 142 190 182 q 219 63 190 94 q 321 32 247 32 q 463 51 383 32 q 624 101 542 71 q 778 164 706 131 q 903 226 851 197 q 914 231 911 231 q 918 225 918 231 q 913 211 918 218 q 837 146 890 179 q 713 83 783 113 q 567 29 642 53 q 426 -8 493 6 q 317 -22 360 -22 m 767 892 q 734 901 763 892 q 669 926 706 911 q 602 953 633 940 q 561 971 571 967 q 550 979 556 974 q 544 994 544 985 q 550 1013 544 1001 q 564 1026 556 1025 q 578 1024 571 1026 q 604 1011 586 1021 q 656 982 624 1000 q 719 945 688 964 q 771 911 751 926 q 776 907 774 910 q 779 901 778 904 q 767 892 779 892 z "},"Ẻ":{"ha":818,"x_min":119,"x_max":985,"o":"m 317 -22 q 186 13 240 -22 q 121 132 132 47 q 119 143 119 138 q 119 154 119 149 q 137 251 119 201 q 178 347 154 300 q 221 433 203 394 q 188 436 208 435 q 152 447 168 438 q 136 475 136 456 q 142 485 136 482 q 156 488 149 488 q 172 486 164 488 q 185 485 181 485 q 256 510 224 485 q 317 574 289 536 q 368 649 344 611 q 413 714 392 688 q 401 724 408 724 q 389 728 394 725 q 381 749 383 732 q 404 785 378 771 q 474 807 431 799 q 566 819 517 815 q 659 824 615 824 q 729 825 703 825 q 836 824 782 825 q 944 813 890 822 q 976 794 967 807 q 985 771 985 782 q 978 753 985 761 q 964 746 972 746 q 940 765 950 746 q 885 776 918 775 q 831 776 853 776 q 769 774 810 776 q 684 769 729 772 q 602 758 639 765 q 550 740 565 751 q 509 702 536 732 q 451 635 482 672 q 394 564 421 597 q 356 514 368 531 q 515 519 436 513 q 675 526 594 526 l 726 526 q 777 526 751 526 q 828 522 803 525 q 844 515 844 521 q 833 506 844 511 q 810 496 822 500 q 793 490 799 492 q 628 476 714 478 q 458 469 542 475 q 299 431 374 463 q 276 386 293 418 q 239 313 258 354 q 205 226 219 271 q 190 142 190 182 q 219 63 190 94 q 321 32 247 32 q 463 51 383 32 q 624 101 542 71 q 778 164 706 131 q 903 226 851 197 q 914 231 911 231 q 918 225 918 231 q 913 211 918 218 q 837 146 890 179 q 713 83 783 113 q 567 29 642 53 q 426 -8 493 6 q 317 -22 360 -22 m 760 894 q 747 906 747 894 q 751 919 747 911 q 783 959 764 944 q 819 990 801 974 q 840 1035 836 1006 q 841 1039 840 1038 q 842 1042 842 1040 q 833 1058 842 1053 q 813 1064 824 1064 q 774 1054 794 1064 q 740 1028 754 1044 q 718 1014 728 1014 q 708 1025 706 1014 q 728 1060 713 1040 q 772 1094 744 1079 q 838 1108 800 1108 q 890 1093 872 1108 q 907 1054 907 1078 q 893 1009 907 1033 q 851 965 879 985 q 815 940 840 957 q 775 903 789 924 q 760 894 771 894 z "},"Ȇ":{"ha":818,"x_min":119,"x_max":985,"o":"m 789 1035 q 872 1006 836 1035 q 908 933 908 976 q 901 903 908 917 q 879 889 893 889 q 863 898 867 889 q 856 919 858 907 q 824 967 847 953 q 771 982 801 982 q 696 969 732 982 q 628 911 660 956 q 619 895 625 906 q 606 885 613 885 q 595 889 600 885 q 594 903 590 893 q 676 1002 619 969 q 789 1035 733 1035 m 317 -22 q 186 13 240 -22 q 121 132 132 47 q 119 143 119 138 q 119 154 119 149 q 137 251 119 201 q 178 347 154 300 q 221 433 203 394 q 188 436 208 435 q 152 447 168 438 q 136 475 136 456 q 142 485 136 482 q 156 488 149 488 q 172 486 164 488 q 185 485 181 485 q 256 510 224 485 q 317 574 289 536 q 368 649 344 611 q 413 714 392 688 q 401 724 408 724 q 389 728 394 725 q 381 749 383 732 q 404 785 378 771 q 474 807 431 799 q 566 819 517 815 q 659 824 615 824 q 729 825 703 825 q 836 824 782 825 q 944 813 890 822 q 976 794 967 807 q 985 771 985 782 q 978 753 985 761 q 964 746 972 746 q 940 765 950 746 q 885 776 918 775 q 831 776 853 776 q 769 774 810 776 q 684 769 729 772 q 602 758 639 765 q 550 740 565 751 q 509 702 536 732 q 451 635 482 672 q 394 564 421 597 q 356 514 368 531 q 515 519 436 513 q 675 526 594 526 l 726 526 q 777 526 751 526 q 828 522 803 525 q 844 515 844 521 q 833 506 844 511 q 810 496 822 500 q 793 490 799 492 q 628 476 714 478 q 458 469 542 475 q 299 431 374 463 q 276 386 293 418 q 239 313 258 354 q 205 226 219 271 q 190 142 190 182 q 219 63 190 94 q 321 32 247 32 q 463 51 383 32 q 624 101 542 71 q 778 164 706 131 q 903 226 851 197 q 914 231 911 231 q 918 225 918 231 q 913 211 918 218 q 837 146 890 179 q 713 83 783 113 q 567 29 642 53 q 426 -8 493 6 q 317 -22 360 -22 z "},"Ē":{"ha":818,"x_min":119,"x_max":985,"o":"m 317 -22 q 186 13 240 -22 q 121 132 132 47 q 119 143 119 138 q 119 154 119 149 q 137 251 119 201 q 178 347 154 300 q 221 433 203 394 q 188 436 208 435 q 152 447 168 438 q 136 475 136 456 q 142 485 136 482 q 156 488 149 488 q 172 486 164 488 q 185 485 181 485 q 256 510 224 485 q 317 574 289 536 q 368 649 344 611 q 413 714 392 688 q 401 724 408 724 q 389 728 394 725 q 381 749 383 732 q 404 785 378 771 q 474 807 431 799 q 566 819 517 815 q 659 824 615 824 q 729 825 703 825 q 836 824 782 825 q 944 813 890 822 q 976 794 967 807 q 985 771 985 782 q 978 753 985 761 q 964 746 972 746 q 940 765 950 746 q 885 776 918 775 q 831 776 853 776 q 769 774 810 776 q 684 769 729 772 q 602 758 639 765 q 550 740 565 751 q 509 702 536 732 q 451 635 482 672 q 394 564 421 597 q 356 514 368 531 q 515 519 436 513 q 675 526 594 526 l 726 526 q 777 526 751 526 q 828 522 803 525 q 844 515 844 521 q 833 506 844 511 q 810 496 822 500 q 793 490 799 492 q 628 476 714 478 q 458 469 542 475 q 299 431 374 463 q 276 386 293 418 q 239 313 258 354 q 205 226 219 271 q 190 142 190 182 q 219 63 190 94 q 321 32 247 32 q 463 51 383 32 q 624 101 542 71 q 778 164 706 131 q 903 226 851 197 q 914 231 911 231 q 918 225 918 231 q 913 211 918 218 q 837 146 890 179 q 713 83 783 113 q 567 29 642 53 q 426 -8 493 6 q 317 -22 360 -22 m 628 917 q 613 928 613 917 q 624 952 613 939 q 646 965 636 965 l 888 965 q 897 954 897 965 q 887 931 897 944 q 861 917 876 917 l 628 917 z "},"Ŋ":{"ha":803,"x_min":25,"x_max":1018,"o":"m 260 -472 q 162 -420 194 -472 q 129 -297 129 -368 q 156 -166 129 -232 q 236 -57 183 -100 q 244 -54 239 -54 q 258 -68 258 -54 q 253 -79 258 -75 q 201 -162 218 -106 q 183 -279 183 -219 q 204 -390 183 -342 q 268 -439 225 -439 q 372 -390 317 -439 q 486 -259 428 -340 q 600 -82 544 -178 q 703 107 656 14 q 613 33 658 61 q 528 6 568 6 q 453 34 481 6 q 415 110 426 63 q 404 218 404 158 q 415 360 404 286 q 442 503 426 435 q 472 624 457 572 q 496 700 488 676 q 407 595 461 661 q 294 450 353 529 q 182 289 235 371 q 97 134 129 207 q 64 8 64 61 q 66 -7 64 1 q 78 -15 68 -15 q 103 -26 103 -15 q 85 -37 103 -37 q 40 -24 54 -37 q 25 22 25 -10 q 51 133 25 65 q 118 279 76 200 q 207 436 160 358 q 297 578 254 514 q 368 681 340 643 q 356 685 364 682 q 347 694 347 688 q 367 723 347 701 q 415 770 388 744 q 467 815 443 796 q 500 833 492 833 q 541 815 522 833 q 560 774 560 797 q 557 763 560 768 q 540 688 553 742 q 512 560 526 633 q 487 408 497 488 q 476 260 476 329 q 497 124 476 179 q 569 68 517 68 q 650 101 610 68 q 730 188 690 133 q 804 308 769 243 l 839 381 q 869 456 851 408 q 905 560 888 504 q 934 670 922 617 q 946 761 946 724 q 917 815 946 815 q 894 810 906 815 q 868 806 882 806 q 858 808 864 806 q 851 815 851 810 q 868 840 851 829 q 906 858 885 851 q 939 865 928 865 q 999 836 981 865 q 1018 758 1018 807 q 1003 651 1018 711 q 961 525 988 590 q 876 313 925 425 q 769 88 826 200 q 648 -124 711 -24 q 519 -303 585 -225 q 388 -427 453 -382 q 260 -472 322 -472 z "},"Ę":{"ha":818,"x_min":119,"x_max":985,"o":"m 317 -22 q 186 13 240 -22 q 121 132 132 47 q 119 143 119 138 q 119 154 119 149 q 137 251 119 201 q 178 347 154 300 q 221 433 203 394 q 188 436 208 435 q 152 447 168 438 q 136 475 136 456 q 142 485 136 482 q 156 488 149 488 q 172 486 164 488 q 185 485 181 485 q 256 510 224 485 q 317 574 289 536 q 368 649 344 611 q 413 714 392 688 q 401 724 408 724 q 389 728 394 725 q 381 749 383 732 q 404 785 378 771 q 474 807 431 799 q 566 819 517 815 q 659 824 615 824 q 729 825 703 825 q 836 824 782 825 q 944 813 890 822 q 976 794 967 807 q 985 771 985 782 q 978 753 985 761 q 964 746 972 746 q 940 765 950 746 q 885 776 918 775 q 831 776 853 776 q 769 774 810 776 q 684 769 729 772 q 602 758 639 765 q 550 740 565 751 q 509 702 536 732 q 451 635 482 672 q 394 564 421 597 q 356 514 368 531 q 515 519 436 513 q 675 526 594 526 l 726 526 q 777 526 751 526 q 828 522 803 525 q 844 515 844 521 q 833 506 844 511 q 810 496 822 500 q 793 490 799 492 q 628 476 714 478 q 458 469 542 475 q 299 431 374 463 q 276 386 293 418 q 239 313 258 354 q 205 226 219 271 q 190 142 190 182 q 219 63 190 94 q 321 32 247 32 q 463 51 383 32 q 624 101 542 71 q 778 164 706 131 q 903 226 851 197 q 914 231 911 231 q 918 225 918 231 q 913 211 918 218 q 837 146 890 179 q 713 83 783 113 q 567 29 642 53 q 426 -8 493 6 q 317 -22 360 -22 m 724 -99 q 669 -83 693 -99 q 646 -28 646 -68 q 661 38 646 4 q 700 95 676 72 q 749 118 724 118 q 763 114 761 118 q 715 64 736 92 q 694 -1 694 36 q 710 -45 694 -31 q 751 -60 726 -60 q 787 -52 771 -60 q 822 -31 803 -44 l 825 -29 q 833 -34 831 -29 q 836 -43 836 -39 q 828 -60 836 -51 q 807 -76 819 -69 q 762 -94 785 -90 q 724 -99 739 -99 z "},"Ð":{"ha":815,"x_min":22,"x_max":933,"o":"m 301 13 q 269 17 292 13 q 226 30 246 22 q 204 46 206 38 q 220 57 204 54 q 253 60 236 60 q 274 61 271 61 q 392 81 325 61 q 529 135 458 100 q 665 215 600 169 q 783 316 731 261 q 863 429 835 371 q 883 546 890 488 q 841 663 875 618 q 755 734 807 708 q 642 771 703 760 q 521 785 582 782 q 407 788 460 788 q 301 785 356 788 q 200 767 247 782 q 172 758 186 763 q 143 754 158 754 q 135 755 142 754 q 128 760 128 756 q 146 793 125 779 q 199 817 167 807 q 267 832 232 826 q 332 840 303 838 q 374 842 361 842 q 511 835 439 842 q 654 810 583 829 q 785 757 725 792 q 883 665 844 722 q 932 524 922 608 q 933 507 933 515 q 933 492 933 499 q 892 335 933 408 q 783 203 851 263 q 631 101 714 144 q 461 35 547 58 q 301 13 375 13 m 128 -17 q 97 0 110 -17 q 79 38 85 17 q 74 68 74 58 q 89 147 74 96 q 131 258 104 197 l 39 258 q 22 267 22 258 q 47 294 22 278 q 97 310 72 310 l 154 310 q 232 465 189 386 q 319 612 275 544 q 402 720 364 679 q 465 761 440 761 q 504 747 479 761 q 531 718 529 733 q 500 675 531 713 q 420 579 469 638 q 317 451 371 521 q 217 310 263 381 l 313 310 q 345 309 325 310 q 382 305 365 308 q 399 293 399 301 q 378 274 399 282 q 327 263 357 267 q 268 258 297 258 l 185 258 q 135 150 153 201 q 121 58 117 99 q 125 44 122 50 q 138 39 128 39 q 164 48 153 39 q 179 57 175 57 q 183 53 182 57 q 183 50 183 50 q 169 5 186 26 q 128 -17 151 -17 z "},"Ẽ":{"ha":818,"x_min":119,"x_max":985,"o":"m 317 -22 q 186 13 240 -22 q 121 132 132 47 q 119 143 119 138 q 119 154 119 149 q 137 251 119 201 q 178 347 154 300 q 221 433 203 394 q 188 436 208 435 q 152 447 168 438 q 136 475 136 456 q 142 485 136 482 q 156 488 149 488 q 172 486 164 488 q 185 485 181 485 q 256 510 224 485 q 317 574 289 536 q 368 649 344 611 q 413 714 392 688 q 401 724 408 724 q 389 728 394 725 q 381 749 383 732 q 404 785 378 771 q 474 807 431 799 q 566 819 517 815 q 659 824 615 824 q 729 825 703 825 q 836 824 782 825 q 944 813 890 822 q 976 794 967 807 q 985 771 985 782 q 978 753 985 761 q 964 746 972 746 q 940 765 950 746 q 885 776 918 775 q 831 776 853 776 q 769 774 810 776 q 684 769 729 772 q 602 758 639 765 q 550 740 565 751 q 509 702 536 732 q 451 635 482 672 q 394 564 421 597 q 356 514 368 531 q 515 519 436 513 q 675 526 594 526 l 726 526 q 777 526 751 526 q 828 522 803 525 q 844 515 844 521 q 833 506 844 511 q 810 496 822 500 q 793 490 799 492 q 628 476 714 478 q 458 469 542 475 q 299 431 374 463 q 276 386 293 418 q 239 313 258 354 q 205 226 219 271 q 190 142 190 182 q 219 63 190 94 q 321 32 247 32 q 463 51 383 32 q 624 101 542 71 q 778 164 706 131 q 903 226 851 197 q 914 231 911 231 q 918 225 918 231 q 913 211 918 218 q 837 146 890 179 q 713 83 783 113 q 567 29 642 53 q 426 -8 493 6 q 317 -22 360 -22 m 619 892 q 610 899 614 892 q 606 915 606 906 q 619 955 606 933 q 657 992 632 976 q 714 1008 682 1008 q 756 997 735 1008 q 799 975 778 986 q 840 964 819 964 q 874 973 860 964 q 900 996 889 982 q 908 1007 904 1001 q 913 1013 911 1013 q 917 988 919 1013 q 892 934 915 961 q 836 907 869 907 q 794 918 814 907 q 753 940 774 929 q 706 951 732 951 q 662 936 686 951 q 629 900 638 921 q 619 892 626 892 z "},"F":{"ha":672,"x_min":92,"x_max":1090,"o":"m 146 -10 q 110 5 129 -10 q 92 51 92 19 q 106 129 92 85 q 144 221 121 174 q 190 310 167 268 q 232 383 214 353 q 220 396 226 389 q 214 413 214 403 q 228 435 214 426 q 260 449 242 444 q 289 456 278 454 q 367 581 329 517 q 451 701 404 646 q 425 740 425 722 q 458 776 425 763 q 537 798 490 790 q 624 807 583 806 q 715 810 663 808 q 824 812 768 811 q 933 813 881 813 q 1025 814 986 814 q 1072 806 1053 814 q 1090 786 1090 797 q 1075 773 1090 779 q 1022 767 1060 767 q 881 762 951 767 q 739 751 810 757 q 599 724 654 746 q 508 664 544 701 q 438 574 471 626 q 363 454 406 521 q 416 446 379 449 q 490 442 453 443 q 547 442 528 442 q 677 446 613 442 q 806 450 742 450 q 851 440 851 450 q 835 426 851 435 q 800 412 819 418 q 769 404 781 406 q 538 378 661 390 q 304 365 415 365 q 275 338 294 365 q 232 270 256 311 q 188 185 208 229 q 153 106 167 142 q 139 56 139 71 q 140 41 139 50 q 146 28 140 32 q 164 3 164 14 q 146 -10 164 -10 z "},"G":{"ha":1042,"x_min":51,"x_max":1190,"o":"m 767 -65 q 735 -47 744 -65 q 726 -11 726 -29 q 741 44 726 14 q 774 106 756 75 q 803 160 793 136 q 685 93 754 126 q 540 33 617 60 q 389 -11 463 6 q 256 -28 315 -28 q 107 17 163 -28 q 51 160 51 61 q 89 323 51 240 q 191 484 126 406 q 337 630 256 563 q 508 749 418 697 q 687 829 599 800 q 851 858 775 858 q 919 838 889 858 q 966 786 949 818 q 983 718 983 754 q 964 654 983 688 q 915 598 944 621 q 853 575 885 575 q 842 578 847 575 q 838 586 838 581 q 851 608 838 593 q 883 644 865 624 q 915 691 901 665 q 929 746 929 717 q 905 792 929 779 q 851 804 881 804 q 717 773 794 804 q 554 688 639 742 q 389 565 469 633 q 242 423 308 497 q 138 277 176 349 q 99 144 99 206 q 128 75 99 99 q 198 43 157 51 q 275 35 239 35 q 395 49 322 35 q 550 88 468 63 q 708 149 632 114 q 837 229 783 185 q 906 325 890 274 q 867 329 893 329 q 792 324 836 329 q 704 313 749 319 q 622 301 660 307 q 565 292 585 294 q 449 257 497 275 q 378 239 401 239 q 351 269 351 239 q 387 312 351 294 q 481 341 422 329 q 608 360 539 353 q 747 372 678 368 q 872 376 815 375 q 960 378 928 378 q 1022 377 983 378 q 1099 373 1060 376 q 1164 363 1138 369 q 1190 343 1190 356 q 1178 332 1190 335 q 1150 329 1167 329 q 1114 331 1132 329 q 1089 333 1096 333 q 1012 305 1053 333 q 931 231 971 276 q 859 135 892 186 q 807 36 826 83 q 788 -43 788 -11 q 789 -60 788 -54 q 778 -63 783 -61 q 767 -65 772 -65 z "},"Ğ":{"ha":1042,"x_min":51,"x_max":1190,"o":"m 767 -65 q 735 -47 744 -65 q 726 -11 726 -29 q 741 44 726 14 q 774 106 756 75 q 803 160 793 136 q 685 93 754 126 q 540 33 617 60 q 389 -11 463 6 q 256 -28 315 -28 q 107 17 163 -28 q 51 160 51 61 q 89 323 51 240 q 191 484 126 406 q 337 630 256 563 q 508 749 418 697 q 687 829 599 800 q 851 858 775 858 q 919 838 889 858 q 966 786 949 818 q 983 718 983 754 q 964 654 983 688 q 915 598 944 621 q 853 575 885 575 q 842 578 847 575 q 838 586 838 581 q 851 608 838 593 q 883 644 865 624 q 915 691 901 665 q 929 746 929 717 q 905 792 929 779 q 851 804 881 804 q 717 773 794 804 q 554 688 639 742 q 389 565 469 633 q 242 423 308 497 q 138 277 176 349 q 99 144 99 206 q 128 75 99 99 q 198 43 157 51 q 275 35 239 35 q 395 49 322 35 q 550 88 468 63 q 708 149 632 114 q 837 229 783 185 q 906 325 890 274 q 867 329 893 329 q 792 324 836 329 q 704 313 749 319 q 622 301 660 307 q 565 292 585 294 q 449 257 497 275 q 378 239 401 239 q 351 269 351 239 q 387 312 351 294 q 481 341 422 329 q 608 360 539 353 q 747 372 678 368 q 872 376 815 375 q 960 378 928 378 q 1022 377 983 378 q 1099 373 1060 376 q 1164 363 1138 369 q 1190 343 1190 356 q 1178 332 1190 335 q 1150 329 1167 329 q 1114 331 1132 329 q 1089 333 1096 333 q 1012 305 1053 333 q 931 231 971 276 q 859 135 892 186 q 807 36 826 83 q 788 -43 788 -11 q 789 -60 788 -54 q 778 -63 783 -61 q 767 -65 772 -65 m 851 921 q 768 950 804 921 q 732 1022 732 979 q 740 1053 732 1039 q 761 1067 747 1067 q 778 1058 774 1067 q 785 1036 782 1049 q 816 988 793 1003 q 869 974 839 974 q 945 987 910 974 q 1013 1044 981 1000 q 1022 1060 1015 1050 q 1035 1071 1028 1071 q 1046 1067 1042 1071 q 1046 1053 1050 1063 q 965 953 1021 986 q 851 921 908 921 z "},"Ǧ":{"ha":1042,"x_min":51,"x_max":1190,"o":"m 1064 1071 q 1074 1068 1074 1074 q 1071 1062 1074 1065 q 1067 1056 1068 1058 q 999 1003 1032 1025 q 935 958 967 982 q 910 941 926 951 q 880 922 894 931 q 860 914 865 914 q 846 924 851 914 l 824 956 q 795 999 807 979 q 768 1042 783 1019 q 761 1065 761 1053 q 766 1071 761 1069 q 775 1071 771 1072 q 800 1054 781 1069 q 843 1019 819 1039 q 883 982 867 1000 q 956 1020 915 1000 q 1027 1055 996 1040 q 1064 1071 1058 1069 m 767 -65 q 735 -47 744 -65 q 726 -11 726 -29 q 741 44 726 14 q 774 106 756 75 q 803 160 793 136 q 685 93 754 126 q 540 33 617 60 q 389 -11 463 6 q 256 -28 315 -28 q 107 17 163 -28 q 51 160 51 61 q 89 323 51 240 q 191 484 126 406 q 337 630 256 563 q 508 749 418 697 q 687 829 599 800 q 851 858 775 858 q 919 838 889 858 q 966 786 949 818 q 983 718 983 754 q 964 654 983 688 q 915 598 944 621 q 853 575 885 575 q 842 578 847 575 q 838 586 838 581 q 851 608 838 593 q 883 644 865 624 q 915 691 901 665 q 929 746 929 717 q 905 792 929 779 q 851 804 881 804 q 717 773 794 804 q 554 688 639 742 q 389 565 469 633 q 242 423 308 497 q 138 277 176 349 q 99 144 99 206 q 128 75 99 99 q 198 43 157 51 q 275 35 239 35 q 395 49 322 35 q 550 88 468 63 q 708 149 632 114 q 837 229 783 185 q 906 325 890 274 q 867 329 893 329 q 792 324 836 329 q 704 313 749 319 q 622 301 660 307 q 565 292 585 294 q 449 257 497 275 q 378 239 401 239 q 351 269 351 239 q 387 312 351 294 q 481 341 422 329 q 608 360 539 353 q 747 372 678 368 q 872 376 815 375 q 960 378 928 378 q 1022 377 983 378 q 1099 373 1060 376 q 1164 363 1138 369 q 1190 343 1190 356 q 1178 332 1190 335 q 1150 329 1167 329 q 1114 331 1132 329 q 1089 333 1096 333 q 1012 305 1053 333 q 931 231 971 276 q 859 135 892 186 q 807 36 826 83 q 788 -43 788 -11 q 789 -60 788 -54 q 778 -63 783 -61 q 767 -65 772 -65 z "},"Ĝ":{"ha":1042,"x_min":51,"x_max":1190,"o":"m 767 -65 q 735 -47 744 -65 q 726 -11 726 -29 q 741 44 726 14 q 774 106 756 75 q 803 160 793 136 q 685 93 754 126 q 540 33 617 60 q 389 -11 463 6 q 256 -28 315 -28 q 107 17 163 -28 q 51 160 51 61 q 89 323 51 240 q 191 484 126 406 q 337 630 256 563 q 508 749 418 697 q 687 829 599 800 q 851 858 775 858 q 919 838 889 858 q 966 786 949 818 q 983 718 983 754 q 964 654 983 688 q 915 598 944 621 q 853 575 885 575 q 842 578 847 575 q 838 586 838 581 q 851 608 838 593 q 883 644 865 624 q 915 691 901 665 q 929 746 929 717 q 905 792 929 779 q 851 804 881 804 q 717 773 794 804 q 554 688 639 742 q 389 565 469 633 q 242 423 308 497 q 138 277 176 349 q 99 144 99 206 q 128 75 99 99 q 198 43 157 51 q 275 35 239 35 q 395 49 322 35 q 550 88 468 63 q 708 149 632 114 q 837 229 783 185 q 906 325 890 274 q 867 329 893 329 q 792 324 836 329 q 704 313 749 319 q 622 301 660 307 q 565 292 585 294 q 449 257 497 275 q 378 239 401 239 q 351 269 351 239 q 387 312 351 294 q 481 341 422 329 q 608 360 539 353 q 747 372 678 368 q 872 376 815 375 q 960 378 928 378 q 1022 377 983 378 q 1099 373 1060 376 q 1164 363 1138 369 q 1190 343 1190 356 q 1178 332 1190 335 q 1150 329 1167 329 q 1114 331 1132 329 q 1089 333 1096 333 q 1012 305 1053 333 q 931 231 971 276 q 859 135 892 186 q 807 36 826 83 q 788 -43 788 -11 q 789 -60 788 -54 q 778 -63 783 -61 q 767 -65 772 -65 m 718 915 q 708 918 708 913 q 711 925 708 921 q 715 931 714 929 q 783 983 750 961 q 847 1028 815 1004 q 872 1045 857 1035 q 902 1064 888 1056 q 922 1072 917 1072 q 936 1063 931 1072 l 958 1031 q 987 988 975 1007 q 1014 944 999 968 q 1021 921 1021 933 q 1016 915 1021 917 q 1007 915 1011 914 q 983 933 1003 918 q 939 967 963 947 q 899 1004 915 988 q 826 967 867 988 q 755 931 786 946 q 718 915 724 917 z "},"Ģ":{"ha":1042,"x_min":51,"x_max":1190,"o":"m 767 -65 q 735 -47 744 -65 q 726 -11 726 -29 q 741 44 726 14 q 774 106 756 75 q 803 160 793 136 q 685 93 754 126 q 540 33 617 60 q 389 -11 463 6 q 256 -28 315 -28 q 107 17 163 -28 q 51 160 51 61 q 89 323 51 240 q 191 484 126 406 q 337 630 256 563 q 508 749 418 697 q 687 829 599 800 q 851 858 775 858 q 919 838 889 858 q 966 786 949 818 q 983 718 983 754 q 964 654 983 688 q 915 598 944 621 q 853 575 885 575 q 842 578 847 575 q 838 586 838 581 q 851 608 838 593 q 883 644 865 624 q 915 691 901 665 q 929 746 929 717 q 905 792 929 779 q 851 804 881 804 q 717 773 794 804 q 554 688 639 742 q 389 565 469 633 q 242 423 308 497 q 138 277 176 349 q 99 144 99 206 q 128 75 99 99 q 198 43 157 51 q 275 35 239 35 q 395 49 322 35 q 550 88 468 63 q 708 149 632 114 q 837 229 783 185 q 906 325 890 274 q 867 329 893 329 q 792 324 836 329 q 704 313 749 319 q 622 301 660 307 q 565 292 585 294 q 449 257 497 275 q 378 239 401 239 q 351 269 351 239 q 387 312 351 294 q 481 341 422 329 q 608 360 539 353 q 747 372 678 368 q 872 376 815 375 q 960 378 928 378 q 1022 377 983 378 q 1099 373 1060 376 q 1164 363 1138 369 q 1190 343 1190 356 q 1178 332 1190 335 q 1150 329 1167 329 q 1114 331 1132 329 q 1089 333 1096 333 q 1012 305 1053 333 q 931 231 971 276 q 859 135 892 186 q 807 36 826 83 q 788 -43 788 -11 q 789 -60 788 -54 q 778 -63 783 -61 q 767 -65 772 -65 m 200 -303 q 193 -296 193 -303 q 207 -260 193 -286 q 240 -204 221 -235 q 276 -149 260 -174 q 296 -115 292 -124 q 304 -101 300 -108 q 315 -93 308 -94 q 322 -92 318 -92 q 342 -97 332 -92 q 354 -106 353 -101 q 359 -115 357 -110 q 361 -126 361 -119 q 346 -154 361 -140 q 323 -179 342 -158 q 282 -225 304 -200 q 241 -270 260 -250 q 215 -296 222 -290 q 210 -300 214 -297 q 200 -303 206 -303 z "},"Ġ":{"ha":1042,"x_min":51,"x_max":1190,"o":"m 767 -65 q 735 -47 744 -65 q 726 -11 726 -29 q 741 44 726 14 q 774 106 756 75 q 803 160 793 136 q 685 93 754 126 q 540 33 617 60 q 389 -11 463 6 q 256 -28 315 -28 q 107 17 163 -28 q 51 160 51 61 q 89 323 51 240 q 191 484 126 406 q 337 630 256 563 q 508 749 418 697 q 687 829 599 800 q 851 858 775 858 q 919 838 889 858 q 966 786 949 818 q 983 718 983 754 q 964 654 983 688 q 915 598 944 621 q 853 575 885 575 q 842 578 847 575 q 838 586 838 581 q 851 608 838 593 q 883 644 865 624 q 915 691 901 665 q 929 746 929 717 q 905 792 929 779 q 851 804 881 804 q 717 773 794 804 q 554 688 639 742 q 389 565 469 633 q 242 423 308 497 q 138 277 176 349 q 99 144 99 206 q 128 75 99 99 q 198 43 157 51 q 275 35 239 35 q 395 49 322 35 q 550 88 468 63 q 708 149 632 114 q 837 229 783 185 q 906 325 890 274 q 867 329 893 329 q 792 324 836 329 q 704 313 749 319 q 622 301 660 307 q 565 292 585 294 q 449 257 497 275 q 378 239 401 239 q 351 269 351 239 q 387 312 351 294 q 481 341 422 329 q 608 360 539 353 q 747 372 678 368 q 872 376 815 375 q 960 378 928 378 q 1022 377 983 378 q 1099 373 1060 376 q 1164 363 1138 369 q 1190 343 1190 356 q 1178 332 1190 335 q 1150 329 1167 329 q 1114 331 1132 329 q 1089 333 1096 333 q 1012 305 1053 333 q 931 231 971 276 q 859 135 892 186 q 807 36 826 83 q 788 -43 788 -11 q 789 -60 788 -54 q 778 -63 783 -61 q 767 -65 772 -65 m 894 917 q 864 922 882 917 q 846 947 846 928 q 858 977 846 960 q 886 1008 869 994 q 917 1021 903 1021 q 938 1011 928 1021 q 947 988 949 1001 q 937 963 947 981 q 915 931 926 946 q 894 917 903 917 z "},"ẞ":{"ha":719,"x_min":33,"x_max":867,"o":"m 43 -144 q 33 -128 33 -144 q 41 -90 33 -115 q 67 -26 49 -65 q 140 123 96 39 q 233 298 183 207 q 335 476 283 389 q 432 635 386 563 q 512 754 478 707 q 563 811 546 801 q 617 833 586 826 q 683 840 649 840 q 770 828 728 840 q 840 795 813 817 q 867 743 867 774 q 838 674 867 713 q 758 597 808 635 q 639 528 707 558 q 572 490 601 511 q 542 432 542 468 q 558 379 542 408 q 597 316 581 340 q 626 271 613 292 q 651 218 639 250 q 663 178 660 197 q 667 140 667 158 q 596 15 667 60 q 418 -31 525 -31 q 367 -28 393 -31 q 314 -21 342 -26 q 249 10 276 -14 q 222 74 222 35 q 244 119 222 99 q 293 154 265 139 q 339 176 321 169 q 368 183 360 183 q 372 182 372 183 q 356 165 372 178 q 322 140 343 156 q 282 106 300 125 q 264 67 264 88 q 293 18 264 33 q 364 3 322 3 q 461 20 411 3 q 546 69 511 38 q 581 142 581 100 q 564 221 581 188 q 525 283 547 254 q 486 343 503 311 q 469 418 469 375 q 492 478 469 457 q 550 516 514 500 q 626 551 586 532 q 748 645 706 590 q 790 743 790 700 q 772 788 790 771 q 714 806 754 806 q 645 790 679 806 q 578 738 611 775 q 411 506 492 640 q 250 217 331 372 q 81 -104 169 61 q 63 -133 74 -121 q 43 -144 51 -144 z "},"H":{"ha":824,"x_min":14,"x_max":1118,"o":"m 65 -50 q 26 -34 39 -50 q 14 8 14 -18 q 34 103 14 49 q 82 210 54 157 q 129 297 110 263 l 111 296 q 83 299 101 294 q 65 317 65 303 q 87 348 65 335 q 135 369 108 361 q 174 378 161 376 q 210 437 185 396 q 270 531 236 478 q 342 638 304 583 q 415 740 379 693 q 479 817 450 788 q 524 846 508 846 q 553 831 539 846 q 569 800 568 815 q 401 593 486 699 q 251 374 317 488 q 408 379 329 376 q 565 382 488 382 q 722 378 646 382 q 751 432 728 393 q 808 524 774 471 q 880 633 842 578 q 956 737 918 689 q 1024 815 993 785 q 1071 844 1054 844 q 1103 826 1089 844 q 1118 792 1118 808 q 1108 772 1118 782 q 937 582 1017 688 q 789 371 857 476 q 819 363 799 369 q 839 343 839 357 q 819 329 839 338 q 775 309 799 321 q 740 278 751 297 q 713 222 731 260 q 676 141 694 185 q 644 59 657 97 q 632 1 632 21 q 634 -10 632 -4 q 643 -17 636 -17 q 668 -26 668 -17 q 651 -37 668 -37 q 607 -22 619 -37 q 594 25 594 -6 q 614 130 594 75 q 659 238 633 185 q 703 336 685 292 q 691 339 697 339 q 678 339 685 339 q 509 333 594 339 q 340 319 424 328 q 266 310 294 314 q 219 299 238 307 q 184 269 200 290 q 144 208 168 249 q 119 163 135 192 q 88 101 104 135 q 62 39 72 68 q 51 -10 51 10 q 53 -21 51 -15 q 63 -26 56 -26 q 92 -13 76 -26 q 111 0 107 0 q 114 -3 114 0 q 99 -35 114 -19 q 65 -50 83 -50 z "},"Ħ":{"ha":824,"x_min":14,"x_max":1118,"o":"m 65 -50 q 26 -34 39 -50 q 14 8 14 -18 q 34 103 14 49 q 82 210 54 157 q 129 297 110 263 l 111 296 q 83 299 101 294 q 65 317 65 303 q 87 348 65 335 q 135 369 108 361 q 174 378 161 376 q 210 437 185 396 q 270 531 236 478 q 342 638 304 583 q 415 740 379 693 q 479 817 450 788 q 524 846 508 846 q 553 831 539 846 q 569 800 568 815 q 401 593 486 699 q 251 374 317 488 q 408 379 329 376 q 565 382 488 382 q 722 378 646 382 q 751 432 728 393 q 808 524 774 471 q 880 633 842 578 q 956 737 918 689 q 1024 815 993 785 q 1071 844 1054 844 q 1103 826 1089 844 q 1118 792 1118 808 q 1108 772 1118 782 q 937 582 1017 688 q 789 371 857 476 q 819 363 799 369 q 839 343 839 357 q 819 329 839 338 q 775 309 799 321 q 740 278 751 297 q 713 222 731 260 q 676 141 694 185 q 644 59 657 97 q 632 1 632 21 q 634 -10 632 -4 q 643 -17 636 -17 q 668 -26 668 -17 q 651 -37 668 -37 q 607 -22 619 -37 q 594 25 594 -6 q 614 130 594 75 q 659 238 633 185 q 703 336 685 292 q 691 339 697 339 q 678 339 685 339 q 509 333 594 339 q 340 319 424 328 q 266 310 294 314 q 219 299 238 307 q 184 269 200 290 q 144 208 168 249 q 119 163 135 192 q 88 101 104 135 q 62 39 72 68 q 51 -10 51 10 q 53 -21 51 -15 q 63 -26 56 -26 q 92 -13 76 -26 q 111 0 107 0 q 114 -3 114 0 q 99 -35 114 -19 q 65 -50 83 -50 m 338 601 q 321 610 321 601 q 346 637 321 621 q 396 653 371 653 l 1029 653 q 1062 652 1042 653 q 1099 648 1082 651 q 1115 636 1115 644 q 1094 617 1115 625 q 1044 606 1074 610 q 985 601 1014 601 l 338 601 z "},"Ĥ":{"ha":824,"x_min":14,"x_max":1118,"o":"m 65 -50 q 26 -34 39 -50 q 14 8 14 -18 q 34 103 14 49 q 82 210 54 157 q 129 297 110 263 l 111 296 q 83 299 101 294 q 65 317 65 303 q 87 348 65 335 q 135 369 108 361 q 174 378 161 376 q 210 437 185 396 q 270 531 236 478 q 342 638 304 583 q 415 740 379 693 q 479 817 450 788 q 524 846 508 846 q 553 831 539 846 q 569 800 568 815 q 401 593 486 699 q 251 374 317 488 q 408 379 329 376 q 565 382 488 382 q 722 378 646 382 q 751 432 728 393 q 808 524 774 471 q 880 633 842 578 q 956 737 918 689 q 1024 815 993 785 q 1071 844 1054 844 q 1103 826 1089 844 q 1118 792 1118 808 q 1108 772 1118 782 q 937 582 1017 688 q 789 371 857 476 q 819 363 799 369 q 839 343 839 357 q 819 329 839 338 q 775 309 799 321 q 740 278 751 297 q 713 222 731 260 q 676 141 694 185 q 644 59 657 97 q 632 1 632 21 q 634 -10 632 -4 q 643 -17 636 -17 q 668 -26 668 -17 q 651 -37 668 -37 q 607 -22 619 -37 q 594 25 594 -6 q 614 130 594 75 q 659 238 633 185 q 703 336 685 292 q 691 339 697 339 q 678 339 685 339 q 509 333 594 339 q 340 319 424 328 q 266 310 294 314 q 219 299 238 307 q 184 269 200 290 q 144 208 168 249 q 119 163 135 192 q 88 101 104 135 q 62 39 72 68 q 51 -10 51 10 q 53 -21 51 -15 q 63 -26 56 -26 q 92 -13 76 -26 q 111 0 107 0 q 114 -3 114 0 q 99 -35 114 -19 q 65 -50 83 -50 m 683 915 q 674 918 674 913 q 676 925 674 921 q 681 931 679 929 q 748 983 715 961 q 813 1028 781 1004 q 838 1045 822 1035 q 867 1064 853 1056 q 888 1072 882 1072 q 901 1063 896 1072 l 924 1031 q 952 988 940 1007 q 979 944 964 968 q 986 921 986 933 q 981 915 986 917 q 972 915 976 914 q 948 933 968 918 q 904 967 928 947 q 864 1004 881 988 q 792 967 832 988 q 720 931 751 946 q 683 915 689 917 z "},"":{"ha":4868,"x_min":-301,"x_max":4894,"o":"m -132 -251 q -253 -212 -204 -251 q -301 -97 -301 -174 q -296 -51 -301 -74 q -278 -8 -290 -28 q -188 82 -243 46 q -74 136 -133 118 q -42 145 -58 142 q -8 149 -25 149 l -4 149 q 5 148 0 149 q 10 143 10 147 q -4 131 10 138 q -33 120 -18 125 q -53 113 -49 115 q -141 64 -104 94 q -206 -15 -178 33 q -225 -62 -217 -36 q -233 -112 -233 -87 q -198 -189 -233 -161 q -115 -217 -162 -217 q -18 -187 -72 -217 q 97 -108 36 -157 q 216 -1 157 -60 q 329 117 275 58 q 426 227 383 176 q 493 310 468 278 q 444 331 469 321 q 394 356 418 342 q 378 368 386 361 q 369 386 369 375 q 392 417 369 407 q 440 429 414 426 q 481 432 467 432 q 525 431 503 432 q 569 424 547 429 q 603 472 581 439 q 653 547 626 506 q 706 631 681 589 q 747 706 731 672 q 763 758 763 740 q 746 793 763 782 q 708 808 729 804 q 668 813 686 813 q 542 792 608 813 q 424 744 476 771 q 363 709 400 732 q 283 655 325 686 q 205 590 242 624 q 145 522 168 556 q 122 457 122 488 q 140 419 122 429 q 181 408 157 408 q 238 416 208 408 q 294 432 268 424 q 304 433 300 432 q 314 435 308 435 q 321 431 321 435 q 306 415 319 422 q 288 406 293 407 q 216 377 257 388 q 140 367 175 367 q 85 377 110 367 q 60 424 60 388 q 82 503 60 460 q 126 574 104 546 q 217 659 163 618 q 331 734 271 700 q 443 789 392 768 q 531 817 481 804 q 635 837 582 829 q 726 844 688 844 q 776 840 749 844 q 824 822 804 836 q 844 776 844 807 q 828 717 844 756 q 785 633 811 679 q 729 542 758 588 q 675 461 700 497 q 638 407 650 425 q 820 358 719 389 q 1018 308 921 328 q 1108 432 1051 358 q 1234 590 1164 506 q 1380 756 1304 674 q 1530 905 1456 838 q 1669 1013 1604 972 q 1782 1053 1735 1053 q 1831 1023 1817 1053 q 1844 964 1844 993 q 1819 890 1844 925 q 1757 819 1794 854 q 1681 747 1719 785 q 1611 667 1642 710 q 1572 574 1581 625 q 1570 557 1571 565 q 1561 563 1569 549 q 1554 593 1554 575 q 1580 677 1554 629 q 1644 775 1606 725 q 1724 869 1683 825 q 1793 943 1764 914 q 1807 960 1800 950 q 1814 979 1814 971 q 1786 994 1814 994 q 1722 976 1758 994 q 1649 930 1686 957 q 1579 875 1611 903 q 1528 828 1547 847 q 1469 766 1510 810 q 1377 662 1429 722 q 1269 536 1325 601 q 1165 408 1214 471 q 1083 297 1117 346 q 1151 284 1119 289 q 1207 279 1183 279 q 1253 287 1235 279 q 1271 311 1271 294 q 1262 337 1271 322 q 1242 363 1253 351 q 1228 379 1232 375 q 1218 393 1218 389 q 1222 396 1218 396 q 1227 395 1225 396 q 1233 393 1229 394 q 1280 361 1253 383 q 1307 315 1307 339 q 1278 254 1307 271 q 1208 238 1249 238 q 1124 248 1167 238 q 1057 264 1081 258 q 981 144 1021 211 q 921 17 942 78 q 938 -22 928 1 q 949 -61 949 -46 q 933 -99 949 -83 q 896 -114 918 -114 q 863 -90 869 -114 q 856 -44 856 -65 q 864 10 856 -15 q 781 122 833 72 q 665 213 728 172 q 542 282 603 253 q 444 165 503 233 q 315 25 386 97 q 166 -110 243 -47 q 13 -212 89 -174 q -132 -251 -64 -251 m 2708 524 q 2676 547 2676 524 q 2694 583 2676 564 q 2747 611 2713 603 q 2781 617 2768 617 q 2807 622 2794 618 q 2784 565 2801 596 q 2739 528 2767 535 q 2708 524 2725 524 m 4165 -171 q 3995 -119 4051 -171 q 3939 14 3939 -67 q 3947 78 3939 44 q 3969 146 3956 111 q 3874 60 3928 101 q 3775 -10 3819 18 q 3753 -15 3765 -15 q 3706 -3 3732 -15 q 3681 33 3681 8 q 3703 103 3681 63 q 3756 187 3725 143 q 3815 271 3786 231 q 3856 339 3843 311 q 3828 323 3847 335 q 3792 299 3810 311 q 3765 281 3774 288 q 3662 189 3706 236 q 3574 81 3618 142 q 3551 46 3563 64 q 3526 11 3539 28 q 3508 -3 3521 4 q 3483 -10 3494 -10 q 3465 10 3465 -10 q 3483 61 3465 26 q 3526 140 3500 96 q 3582 228 3553 185 q 3635 308 3611 272 q 3668 358 3658 343 q 3653 344 3665 354 q 3628 323 3640 333 q 3611 308 3617 313 q 3560 257 3585 283 q 3510 204 3535 231 q 3457 143 3490 179 q 3388 72 3424 107 q 3324 12 3351 36 q 3289 -12 3296 -12 q 3261 -1 3276 -12 q 3234 24 3246 10 q 3222 51 3222 39 q 3238 108 3222 72 q 3273 178 3253 143 q 3304 229 3293 213 q 3255 176 3285 213 q 3191 98 3225 139 q 3126 28 3157 57 q 3072 -1 3094 -1 q 3023 20 3042 -1 q 3004 72 3004 42 q 3022 150 3004 107 q 2973 103 2996 124 q 2943 75 2950 82 q 2890 33 2921 56 q 2825 -4 2858 11 q 2761 -19 2792 -19 q 2688 11 2715 -19 q 2661 89 2661 42 q 2672 147 2661 114 l 2663 138 q 2621 99 2639 114 q 2583 70 2603 85 q 2536 29 2564 56 q 2508 14 2526 21 q 2479 7 2490 7 q 2433 20 2454 7 q 2408 68 2411 33 q 2450 162 2422 119 q 2508 240 2478 204 q 2560 306 2539 276 q 2560 324 2561 317 q 2566 344 2560 332 q 2590 379 2572 357 q 2613 403 2603 394 q 2642 411 2622 411 q 2671 404 2653 411 q 2689 386 2689 397 q 2683 375 2689 381 q 2616 297 2651 340 q 2549 209 2581 253 q 2497 127 2518 165 q 2472 65 2476 89 q 2476 57 2469 57 q 2500 65 2482 56 q 2540 87 2518 74 q 2579 113 2561 100 q 2603 129 2597 125 q 2649 163 2632 150 q 2678 187 2665 175 q 2707 215 2692 199 q 2779 306 2738 263 q 2865 383 2821 350 q 2944 428 2908 415 q 2978 435 2963 435 q 3001 426 2996 435 q 3010 408 3007 418 q 3022 393 3014 399 q 3038 364 3038 385 q 3030 327 3038 349 q 3008 290 3022 306 q 2975 274 2994 274 q 2957 289 2957 274 q 2967 310 2957 299 q 2986 334 2976 321 q 2996 360 2996 347 q 2983 372 2996 372 q 2925 348 2960 372 q 2854 285 2890 324 q 2786 202 2818 246 q 2735 119 2754 158 q 2715 56 2715 81 q 2724 26 2715 38 q 2751 14 2733 14 q 2817 31 2781 14 q 2885 71 2853 47 q 2939 113 2918 94 q 3015 183 2978 147 q 3088 254 3051 218 l 3090 257 q 3173 338 3128 301 q 3262 397 3218 375 q 3340 419 3306 419 q 3401 402 3378 419 q 3425 350 3425 385 q 3423 329 3425 344 q 3413 314 3421 314 q 3399 326 3408 314 q 3375 351 3390 339 q 3336 364 3360 364 q 3255 335 3297 364 q 3174 263 3213 307 q 3106 174 3135 219 q 3061 94 3076 128 q 3053 74 3057 85 q 3050 51 3050 63 q 3051 44 3050 49 q 3056 39 3051 39 q 3065 42 3060 39 q 3189 133 3131 78 q 3290 247 3247 188 q 3311 278 3301 263 q 3331 307 3321 293 q 3344 317 3338 317 q 3374 296 3360 317 q 3389 260 3389 275 q 3388 251 3389 254 q 3343 195 3365 233 q 3304 115 3321 157 q 3281 44 3288 74 q 3278 34 3279 40 q 3285 29 3278 28 q 3324 56 3297 33 q 3385 110 3351 79 q 3447 172 3418 142 q 3493 219 3476 201 q 3540 272 3510 240 q 3602 336 3569 303 q 3660 396 3635 369 q 3694 433 3686 422 q 3724 463 3708 451 q 3763 474 3740 474 q 3793 462 3775 474 q 3811 435 3811 450 q 3808 428 3811 429 q 3727 346 3767 393 q 3653 249 3688 299 q 3589 156 3618 199 q 3664 230 3622 193 q 3744 299 3706 267 l 3843 379 q 3863 397 3853 388 q 3883 414 3874 407 q 3908 420 3894 421 q 3935 419 3921 419 q 3965 411 3950 419 q 3979 385 3979 403 q 3970 358 3979 367 q 3950 338 3961 349 q 3892 279 3926 315 q 3825 201 3858 243 q 3769 117 3792 160 q 3747 39 3747 75 q 3747 31 3747 35 q 3749 22 3747 26 q 3859 84 3799 42 q 3963 171 3919 126 l 3947 171 q 3936 178 3936 171 q 3961 206 3936 189 q 4011 222 3986 222 q 4083 310 4042 268 q 4167 384 4124 353 q 4244 428 4210 415 q 4278 435 4263 435 q 4301 426 4296 435 q 4310 408 4307 418 q 4322 393 4314 399 q 4338 364 4338 385 q 4323 322 4338 350 q 4288 267 4308 294 q 4247 222 4267 239 q 4288 220 4261 222 q 4335 215 4314 218 q 4357 206 4357 211 q 4335 194 4357 197 q 4279 189 4314 190 q 4206 187 4244 188 q 4133 183 4167 186 q 4099 181 4117 182 q 4061 178 4081 181 q 4017 88 4035 138 q 3999 -6 3999 39 q 4035 -105 3999 -64 q 4161 -146 4072 -146 q 4316 -110 4236 -146 q 4474 -15 4396 -75 q 4620 117 4551 44 q 4742 265 4689 190 q 4825 405 4794 339 q 4856 517 4856 471 q 4838 567 4856 549 q 4783 586 4821 586 q 4695 555 4744 586 q 4597 469 4646 524 q 4510 347 4549 415 q 4450 201 4471 278 q 4437 185 4444 185 q 4429 188 4429 186 q 4458 335 4428 261 q 4541 472 4489 410 q 4656 573 4593 535 q 4779 611 4718 611 q 4867 582 4840 611 q 4894 504 4894 553 q 4865 380 4894 450 q 4784 234 4836 310 q 4663 86 4732 158 q 4512 -44 4593 14 q 4342 -136 4431 -101 q 4165 -171 4254 -171 m 3242 -297 q 3216 -212 3247 -240 q 3134 -173 3185 -183 q 3028 -162 3083 -162 q 2953 -165 2989 -162 q 2889 -171 2917 -168 q 2699 -192 2804 -179 q 2488 -206 2594 -206 q 2462 -206 2475 -206 q 2436 -204 2449 -206 q 2368 -200 2411 -204 q 2278 -186 2325 -196 q 2195 -158 2232 -176 q 2146 -108 2158 -139 q 2140 -88 2142 -99 q 2139 -68 2139 -78 q 2164 23 2139 -25 q 2225 116 2189 71 q 2296 198 2261 161 q 2350 256 2331 235 q 2361 278 2369 278 q 2332 299 2349 289 q 2296 308 2315 308 q 2260 291 2282 308 q 2215 250 2238 274 q 2174 207 2192 226 q 2126 156 2156 186 q 2065 93 2097 125 q 2008 37 2033 61 q 1971 3 1982 13 q 1949 -13 1956 -10 q 1935 -17 1942 -17 q 1888 6 1913 -17 q 1864 51 1864 29 q 1883 115 1864 79 q 1929 183 1903 150 q 1975 242 1956 217 q 1994 276 1994 268 q 1971 298 1982 288 q 1940 308 1960 308 q 1904 291 1926 308 q 1860 251 1882 274 q 1819 208 1838 228 q 1770 151 1797 183 q 1713 85 1743 119 q 1628 -2 1675 42 q 1538 -81 1582 -46 q 1461 -132 1494 -115 q 1429 -139 1444 -139 q 1394 -122 1403 -139 q 1385 -82 1385 -104 q 1385 -69 1385 -75 q 1386 -58 1385 -64 q 1417 21 1390 -31 q 1481 130 1443 72 q 1553 235 1518 188 q 1487 167 1525 206 q 1410 89 1449 128 q 1346 19 1372 50 q 1313 3 1332 3 q 1265 29 1286 3 q 1243 81 1243 56 q 1244 92 1243 88 q 1267 144 1254 118 q 1294 193 1281 169 q 1327 244 1310 219 q 1363 293 1344 268 q 1376 310 1369 301 q 1388 329 1382 319 q 1392 346 1392 336 q 1390 363 1392 356 q 1428 398 1404 381 q 1474 415 1451 415 q 1492 412 1479 415 q 1517 403 1506 408 q 1529 393 1529 399 q 1524 382 1529 388 q 1508 368 1517 375 q 1493 353 1500 361 q 1432 285 1461 321 q 1376 214 1403 250 q 1351 177 1368 201 q 1319 128 1333 153 q 1306 88 1306 103 q 1318 74 1306 74 q 1376 100 1342 74 q 1450 168 1411 126 q 1525 253 1489 210 q 1588 334 1561 297 q 1625 386 1615 371 q 1690 421 1649 421 q 1718 415 1701 421 q 1735 394 1735 410 q 1724 370 1735 388 q 1701 336 1713 353 q 1683 314 1689 319 l 1678 310 q 1614 226 1647 271 q 1551 136 1581 181 q 1476 4 1500 56 q 1453 -71 1453 -47 q 1464 -87 1453 -87 q 1524 -53 1482 -87 q 1619 29 1565 -18 q 1666 75 1638 44 q 1728 142 1694 106 q 1790 210 1761 179 q 1838 265 1813 238 q 1884 313 1864 292 q 1908 346 1904 335 q 1931 403 1919 378 q 1969 450 1943 428 q 1996 468 1981 461 q 2026 475 2011 475 q 2049 467 2040 475 q 2058 444 2058 460 q 2044 411 2058 428 q 2010 380 2029 394 q 1976 354 1990 365 q 1963 336 1961 343 q 1995 322 1971 331 q 2029 314 2019 314 q 2051 319 2040 314 q 2076 329 2063 324 q 2086 331 2079 331 q 2105 322 2097 331 q 2113 300 2113 314 q 2103 274 2113 286 q 2083 251 2093 261 q 2040 210 2068 238 q 1981 152 2011 183 q 1931 90 1951 121 q 1910 38 1910 60 q 1913 26 1910 32 q 1918 25 1914 25 q 1977 48 1944 25 q 2043 105 2010 71 q 2108 173 2076 139 q 2161 229 2139 207 q 2226 299 2193 265 q 2264 346 2258 332 q 2287 403 2275 378 q 2325 450 2299 428 q 2351 468 2336 461 q 2382 475 2367 475 q 2405 467 2396 475 q 2414 444 2414 460 q 2399 411 2414 428 q 2365 380 2385 394 q 2331 354 2346 365 q 2318 336 2317 343 q 2351 322 2326 331 q 2385 314 2375 314 q 2406 318 2396 314 q 2425 322 2415 322 q 2449 317 2439 322 q 2460 294 2458 311 q 2450 269 2460 281 q 2431 247 2440 257 q 2385 208 2417 236 q 2319 144 2354 181 q 2254 67 2283 107 q 2217 5 2236 40 q 2197 -67 2197 -31 q 2203 -99 2197 -83 q 2224 -131 2210 -115 q 2302 -165 2251 -157 q 2404 -172 2353 -172 q 2543 -165 2469 -172 q 2690 -148 2617 -158 q 2826 -127 2763 -137 q 2935 -110 2889 -117 q 2989 -106 2958 -106 q 3074 -113 3029 -106 q 3160 -140 3119 -121 q 3227 -190 3201 -158 q 3253 -268 3253 -221 q 3252 -283 3253 -275 q 3250 -297 3251 -290 q 3247 -304 3250 -304 q 3242 -297 3243 -304 m 515 347 q 533 367 522 356 q 549 388 543 378 q 525 394 543 392 q 488 397 507 397 q 458 394 471 397 q 442 385 444 392 l 442 383 q 474 365 450 374 q 515 347 497 356 m 889 71 q 942 177 913 122 q 1000 279 972 232 q 808 328 904 303 q 614 375 711 354 l 569 319 q 744 214 661 275 q 889 71 828 153 m 4085 222 l 4215 222 q 4232 251 4219 232 q 4260 292 4244 269 q 4285 333 4275 314 q 4296 360 4296 351 q 4283 372 4296 372 q 4183 326 4236 372 q 4085 222 4131 281 z "},"I":{"ha":565,"x_min":7,"x_max":985,"o":"m 29 -7 q 7 15 7 -7 q 35 52 7 39 q 105 72 64 65 q 183 82 146 79 q 239 86 221 85 q 283 211 253 138 q 353 367 313 285 q 440 528 394 449 q 531 670 485 607 q 615 767 576 733 q 547 756 582 768 q 481 733 513 744 q 426 721 450 721 q 405 733 414 721 q 396 756 396 746 q 419 784 396 774 q 478 800 443 794 q 551 809 514 806 q 619 816 589 813 q 660 825 649 819 q 681 847 669 829 q 701 864 692 864 q 735 850 717 864 q 763 825 753 836 q 863 824 811 825 q 964 818 914 822 q 976 816 968 818 q 985 807 983 814 q 942 788 978 793 q 858 778 907 783 q 758 756 808 772 q 669 706 707 740 q 584 611 629 668 q 494 486 539 554 q 408 347 449 418 q 335 209 367 275 q 286 92 303 143 q 407 92 347 90 q 526 94 467 94 q 547 93 529 94 q 564 83 564 92 q 554 70 565 75 q 530 63 543 65 q 511 60 517 61 q 276 35 394 50 q 43 -6 157 21 q 37 -6 40 -6 q 29 -7 33 -7 z "},"Í":{"ha":565,"x_min":7,"x_max":985,"o":"m 29 -7 q 7 15 7 -7 q 35 52 7 39 q 105 72 64 65 q 183 82 146 79 q 239 86 221 85 q 283 211 253 138 q 353 367 313 285 q 440 528 394 449 q 531 670 485 607 q 615 767 576 733 q 547 756 582 768 q 481 733 513 744 q 426 721 450 721 q 405 733 414 721 q 396 756 396 746 q 419 784 396 774 q 478 800 443 794 q 551 809 514 806 q 619 816 589 813 q 660 825 649 819 q 681 847 669 829 q 701 864 692 864 q 735 850 717 864 q 763 825 753 836 q 863 824 811 825 q 964 818 914 822 q 976 816 968 818 q 985 807 983 814 q 942 788 978 793 q 858 778 907 783 q 758 756 808 772 q 669 706 707 740 q 584 611 629 668 q 494 486 539 554 q 408 347 449 418 q 335 209 367 275 q 286 92 303 143 q 407 92 347 90 q 526 94 467 94 q 547 93 529 94 q 564 83 564 92 q 554 70 565 75 q 530 63 543 65 q 511 60 517 61 q 276 35 394 50 q 43 -6 157 21 q 37 -6 40 -6 q 29 -7 33 -7 m 629 897 q 617 907 617 897 q 621 913 618 910 q 625 917 624 915 q 677 951 646 932 q 740 988 708 969 q 792 1017 772 1006 q 818 1029 810 1026 q 832 1032 826 1032 q 846 1019 840 1031 q 851 1000 851 1007 q 847 985 851 990 q 835 976 842 979 q 794 959 825 972 q 726 931 763 946 q 662 907 690 917 q 629 897 633 897 z "},"Ĭ":{"ha":565,"x_min":7,"x_max":985,"o":"m 29 -7 q 7 15 7 -7 q 35 52 7 39 q 105 72 64 65 q 183 82 146 79 q 239 86 221 85 q 283 211 253 138 q 353 367 313 285 q 440 528 394 449 q 531 670 485 607 q 615 767 576 733 q 547 756 582 768 q 481 733 513 744 q 426 721 450 721 q 405 733 414 721 q 396 756 396 746 q 419 784 396 774 q 478 800 443 794 q 551 809 514 806 q 619 816 589 813 q 660 825 649 819 q 681 847 669 829 q 701 864 692 864 q 735 850 717 864 q 763 825 753 836 q 863 824 811 825 q 964 818 914 822 q 976 816 968 818 q 985 807 983 814 q 942 788 978 793 q 858 778 907 783 q 758 756 808 772 q 669 706 707 740 q 584 611 629 668 q 494 486 539 554 q 408 347 449 418 q 335 209 367 275 q 286 92 303 143 q 407 92 347 90 q 526 94 467 94 q 547 93 529 94 q 564 83 564 92 q 554 70 565 75 q 530 63 543 65 q 511 60 517 61 q 276 35 394 50 q 43 -6 157 21 q 37 -6 40 -6 q 29 -7 33 -7 m 708 904 q 625 933 661 904 q 589 1006 589 963 q 597 1036 589 1022 q 618 1050 604 1050 q 635 1041 631 1050 q 642 1019 639 1032 q 673 972 650 986 q 726 957 696 957 q 802 970 767 957 q 869 1028 838 983 q 878 1044 872 1033 q 892 1054 885 1054 q 903 1050 899 1054 q 903 1036 907 1046 q 822 937 878 969 q 708 904 765 904 z "},"Ǐ":{"ha":565,"x_min":7,"x_max":985,"o":"m 921 1054 q 931 1051 931 1057 q 928 1045 931 1049 q 924 1039 925 1042 q 856 987 889 1008 q 792 942 824 965 q 767 924 783 935 q 737 906 751 914 q 717 897 722 897 q 703 907 708 897 l 681 939 q 652 983 664 963 q 625 1025 640 1003 q 618 1049 618 1036 q 623 1054 618 1053 q 632 1054 628 1056 q 657 1038 638 1053 q 700 1003 676 1022 q 740 965 724 983 q 813 1003 772 983 q 884 1038 853 1024 q 921 1054 915 1053 m 29 -7 q 7 15 7 -7 q 35 52 7 39 q 105 72 64 65 q 183 82 146 79 q 239 86 221 85 q 283 211 253 138 q 353 367 313 285 q 440 528 394 449 q 531 670 485 607 q 615 767 576 733 q 547 756 582 768 q 481 733 513 744 q 426 721 450 721 q 405 733 414 721 q 396 756 396 746 q 419 784 396 774 q 478 800 443 794 q 551 809 514 806 q 619 816 589 813 q 660 825 649 819 q 681 847 669 829 q 701 864 692 864 q 735 850 717 864 q 763 825 753 836 q 863 824 811 825 q 964 818 914 822 q 976 816 968 818 q 985 807 983 814 q 942 788 978 793 q 858 778 907 783 q 758 756 808 772 q 669 706 707 740 q 584 611 629 668 q 494 486 539 554 q 408 347 449 418 q 335 209 367 275 q 286 92 303 143 q 407 92 347 90 q 526 94 467 94 q 547 93 529 94 q 564 83 564 92 q 554 70 565 75 q 530 63 543 65 q 511 60 517 61 q 276 35 394 50 q 43 -6 157 21 q 37 -6 40 -6 q 29 -7 33 -7 z "},"Î":{"ha":565,"x_min":7,"x_max":985,"o":"m 29 -7 q 7 15 7 -7 q 35 52 7 39 q 105 72 64 65 q 183 82 146 79 q 239 86 221 85 q 283 211 253 138 q 353 367 313 285 q 440 528 394 449 q 531 670 485 607 q 615 767 576 733 q 547 756 582 768 q 481 733 513 744 q 426 721 450 721 q 405 733 414 721 q 396 756 396 746 q 419 784 396 774 q 478 800 443 794 q 551 809 514 806 q 619 816 589 813 q 660 825 649 819 q 681 847 669 829 q 701 864 692 864 q 735 850 717 864 q 763 825 753 836 q 863 824 811 825 q 964 818 914 822 q 976 816 968 818 q 985 807 983 814 q 942 788 978 793 q 858 778 907 783 q 758 756 808 772 q 669 706 707 740 q 584 611 629 668 q 494 486 539 554 q 408 347 449 418 q 335 209 367 275 q 286 92 303 143 q 407 92 347 90 q 526 94 467 94 q 547 93 529 94 q 564 83 564 92 q 554 70 565 75 q 530 63 543 65 q 511 60 517 61 q 276 35 394 50 q 43 -6 157 21 q 37 -6 40 -6 q 29 -7 33 -7 m 575 899 q 565 901 565 896 q 568 908 565 904 q 572 914 571 913 q 640 966 607 944 q 704 1011 672 988 q 729 1028 714 1018 q 759 1047 744 1039 q 779 1056 774 1056 q 793 1046 788 1056 l 815 1014 q 844 971 832 990 q 871 928 856 951 q 878 904 878 917 q 873 899 878 900 q 864 899 868 897 q 840 916 860 901 q 796 951 819 931 q 756 988 772 971 q 683 950 724 971 q 612 915 643 929 q 575 899 581 900 z "},"Ȉ":{"ha":565,"x_min":7,"x_max":985,"o":"m 728 899 q 699 919 722 900 q 647 963 676 938 q 592 1011 617 989 q 558 1042 567 1033 q 551 1052 554 1046 q 550 1069 547 1058 q 562 1085 553 1075 q 579 1093 571 1094 q 592 1085 585 1090 q 613 1065 599 1079 q 651 1021 628 1049 q 699 965 675 993 q 738 917 724 936 q 740 911 739 914 q 742 904 742 908 q 728 899 739 896 m 631 897 q 599 913 625 899 q 539 947 572 926 q 477 984 506 967 q 439 1008 449 1001 q 429 1018 433 1013 q 426 1033 425 1024 q 435 1051 428 1040 q 451 1063 443 1063 q 465 1057 457 1061 q 489 1042 472 1053 q 534 1004 506 1026 q 591 958 563 982 q 638 917 619 933 q 641 911 639 914 q 644 906 643 908 q 631 897 643 896 m 29 -7 q 7 15 7 -7 q 35 52 7 39 q 105 72 64 65 q 183 82 146 79 q 239 86 221 85 q 283 211 253 138 q 353 367 313 285 q 440 528 394 449 q 531 670 485 607 q 615 767 576 733 q 547 756 582 768 q 481 733 513 744 q 426 721 450 721 q 405 733 414 721 q 396 756 396 746 q 419 784 396 774 q 478 800 443 794 q 551 809 514 806 q 619 816 589 813 q 660 825 649 819 q 681 847 669 829 q 701 864 692 864 q 735 850 717 864 q 763 825 753 836 q 863 824 811 825 q 964 818 914 822 q 976 816 968 818 q 985 807 983 814 q 942 788 978 793 q 858 778 907 783 q 758 756 808 772 q 669 706 707 740 q 584 611 629 668 q 494 486 539 554 q 408 347 449 418 q 335 209 367 275 q 286 92 303 143 q 407 92 347 90 q 526 94 467 94 q 547 93 529 94 q 564 83 564 92 q 554 70 565 75 q 530 63 543 65 q 511 60 517 61 q 276 35 394 50 q 43 -6 157 21 q 37 -6 40 -6 q 29 -7 33 -7 z "},"Ï":{"ha":565,"x_min":7,"x_max":985,"o":"m 29 -7 q 7 15 7 -7 q 35 52 7 39 q 105 72 64 65 q 183 82 146 79 q 239 86 221 85 q 283 211 253 138 q 353 367 313 285 q 440 528 394 449 q 531 670 485 607 q 615 767 576 733 q 547 756 582 768 q 481 733 513 744 q 426 721 450 721 q 405 733 414 721 q 396 756 396 746 q 419 784 396 774 q 478 800 443 794 q 551 809 514 806 q 619 816 589 813 q 660 825 649 819 q 681 847 669 829 q 701 864 692 864 q 735 850 717 864 q 763 825 753 836 q 863 824 811 825 q 964 818 914 822 q 976 816 968 818 q 985 807 983 814 q 942 788 978 793 q 858 778 907 783 q 758 756 808 772 q 669 706 707 740 q 584 611 629 668 q 494 486 539 554 q 408 347 449 418 q 335 209 367 275 q 286 92 303 143 q 407 92 347 90 q 526 94 467 94 q 547 93 529 94 q 564 83 564 92 q 554 70 565 75 q 530 63 543 65 q 511 60 517 61 q 276 35 394 50 q 43 -6 157 21 q 37 -6 40 -6 q 29 -7 33 -7 m 825 900 q 794 906 813 900 q 776 931 776 911 q 788 960 776 943 q 817 991 800 978 q 847 1004 833 1004 q 869 994 858 1004 q 878 971 879 985 q 867 947 878 964 q 845 915 857 929 q 825 900 833 900 m 658 900 q 628 906 646 900 q 610 931 610 911 q 622 960 610 943 q 650 991 633 978 q 681 1004 667 1004 q 702 994 692 1004 q 711 971 713 985 q 701 947 711 964 q 678 915 690 929 q 658 900 667 900 z "},"İ":{"ha":565,"x_min":7,"x_max":985,"o":"m 29 -7 q 7 15 7 -7 q 35 52 7 39 q 105 72 64 65 q 183 82 146 79 q 239 86 221 85 q 283 211 253 138 q 353 367 313 285 q 440 528 394 449 q 531 670 485 607 q 615 767 576 733 q 547 756 582 768 q 481 733 513 744 q 426 721 450 721 q 405 733 414 721 q 396 756 396 746 q 419 784 396 774 q 478 800 443 794 q 551 809 514 806 q 619 816 589 813 q 660 825 649 819 q 681 847 669 829 q 701 864 692 864 q 735 850 717 864 q 763 825 753 836 q 863 824 811 825 q 964 818 914 822 q 976 816 968 818 q 985 807 983 814 q 942 788 978 793 q 858 778 907 783 q 758 756 808 772 q 669 706 707 740 q 584 611 629 668 q 494 486 539 554 q 408 347 449 418 q 335 209 367 275 q 286 92 303 143 q 407 92 347 90 q 526 94 467 94 q 547 93 529 94 q 564 83 564 92 q 554 70 565 75 q 530 63 543 65 q 511 60 517 61 q 276 35 394 50 q 43 -6 157 21 q 37 -6 40 -6 q 29 -7 33 -7 m 751 900 q 721 906 739 900 q 703 931 703 911 q 715 960 703 943 q 743 991 726 978 q 774 1004 760 1004 q 795 994 785 1004 q 804 971 806 985 q 794 947 804 964 q 772 915 783 929 q 751 900 760 900 z "},"Ị":{"ha":565,"x_min":7,"x_max":985,"o":"m 29 -7 q 7 15 7 -7 q 35 52 7 39 q 105 72 64 65 q 183 82 146 79 q 239 86 221 85 q 283 211 253 138 q 353 367 313 285 q 440 528 394 449 q 531 670 485 607 q 615 767 576 733 q 547 756 582 768 q 481 733 513 744 q 426 721 450 721 q 405 733 414 721 q 396 756 396 746 q 419 784 396 774 q 478 800 443 794 q 551 809 514 806 q 619 816 589 813 q 660 825 649 819 q 681 847 669 829 q 701 864 692 864 q 735 850 717 864 q 763 825 753 836 q 863 824 811 825 q 964 818 914 822 q 976 816 968 818 q 985 807 983 814 q 942 788 978 793 q 858 778 907 783 q 758 756 808 772 q 669 706 707 740 q 584 611 629 668 q 494 486 539 554 q 408 347 449 418 q 335 209 367 275 q 286 92 303 143 q 407 92 347 90 q 526 94 467 94 q 547 93 529 94 q 564 83 564 92 q 554 70 565 75 q 530 63 543 65 q 511 60 517 61 q 276 35 394 50 q 43 -6 157 21 q 37 -6 40 -6 q 29 -7 33 -7 m 193 -156 q 163 -150 181 -156 q 144 -125 144 -144 q 156 -95 144 -112 q 185 -65 168 -78 q 215 -51 201 -51 q 237 -61 226 -51 q 246 -85 247 -71 q 235 -109 246 -92 q 213 -141 225 -126 q 193 -156 201 -156 z "},"Ì":{"ha":565,"x_min":7,"x_max":985,"o":"m 29 -7 q 7 15 7 -7 q 35 52 7 39 q 105 72 64 65 q 183 82 146 79 q 239 86 221 85 q 283 211 253 138 q 353 367 313 285 q 440 528 394 449 q 531 670 485 607 q 615 767 576 733 q 547 756 582 768 q 481 733 513 744 q 426 721 450 721 q 405 733 414 721 q 396 756 396 746 q 419 784 396 774 q 478 800 443 794 q 551 809 514 806 q 619 816 589 813 q 660 825 649 819 q 681 847 669 829 q 701 864 692 864 q 735 850 717 864 q 763 825 753 836 q 863 824 811 825 q 964 818 914 822 q 976 816 968 818 q 985 807 983 814 q 942 788 978 793 q 858 778 907 783 q 758 756 808 772 q 669 706 707 740 q 584 611 629 668 q 494 486 539 554 q 408 347 449 418 q 335 209 367 275 q 286 92 303 143 q 407 92 347 90 q 526 94 467 94 q 547 93 529 94 q 564 83 564 92 q 554 70 565 75 q 530 63 543 65 q 511 60 517 61 q 276 35 394 50 q 43 -6 157 21 q 37 -6 40 -6 q 29 -7 33 -7 m 739 897 q 706 907 735 897 q 642 931 678 917 q 574 959 606 946 q 533 976 543 972 q 522 985 528 979 q 517 1000 517 990 q 522 1019 517 1007 q 536 1032 528 1031 q 551 1029 543 1032 q 576 1017 558 1026 q 628 988 596 1006 q 692 951 660 969 q 743 917 724 932 q 748 913 746 915 q 751 907 750 910 q 739 897 751 897 z "},"Ỉ":{"ha":565,"x_min":7,"x_max":985,"o":"m 29 -7 q 7 15 7 -7 q 35 52 7 39 q 105 72 64 65 q 183 82 146 79 q 239 86 221 85 q 283 211 253 138 q 353 367 313 285 q 440 528 394 449 q 531 670 485 607 q 615 767 576 733 q 547 756 582 768 q 481 733 513 744 q 426 721 450 721 q 405 733 414 721 q 396 756 396 746 q 419 784 396 774 q 478 800 443 794 q 551 809 514 806 q 619 816 589 813 q 660 825 649 819 q 681 847 669 829 q 701 864 692 864 q 735 850 717 864 q 763 825 753 836 q 863 824 811 825 q 964 818 914 822 q 976 816 968 818 q 985 807 983 814 q 942 788 978 793 q 858 778 907 783 q 758 756 808 772 q 669 706 707 740 q 584 611 629 668 q 494 486 539 554 q 408 347 449 418 q 335 209 367 275 q 286 92 303 143 q 407 92 347 90 q 526 94 467 94 q 547 93 529 94 q 564 83 564 92 q 554 70 565 75 q 530 63 543 65 q 511 60 517 61 q 276 35 394 50 q 43 -6 157 21 q 37 -6 40 -6 q 29 -7 33 -7 m 732 900 q 719 911 719 900 q 724 925 719 917 q 755 965 736 950 q 791 995 774 979 q 813 1040 808 1011 q 813 1044 813 1043 q 814 1047 814 1046 q 805 1064 814 1058 q 785 1069 796 1069 q 747 1060 767 1069 q 713 1033 726 1050 q 690 1019 700 1019 q 681 1031 678 1019 q 701 1065 685 1046 q 744 1099 717 1085 q 810 1114 772 1114 q 862 1099 844 1114 q 879 1060 879 1083 q 865 1015 879 1039 q 824 971 851 990 q 787 946 813 963 q 747 908 761 929 q 732 900 743 900 z "},"Ȋ":{"ha":565,"x_min":7,"x_max":985,"o":"m 761 1040 q 844 1011 808 1040 q 881 939 881 982 q 873 908 881 922 q 851 894 865 894 q 835 903 839 894 q 828 925 831 913 q 797 973 819 958 q 743 988 774 988 q 668 974 704 988 q 600 917 632 961 q 591 901 597 911 q 578 890 585 890 q 567 894 572 890 q 567 908 563 899 q 649 1008 592 975 q 761 1040 706 1040 m 29 -7 q 7 15 7 -7 q 35 52 7 39 q 105 72 64 65 q 183 82 146 79 q 239 86 221 85 q 283 211 253 138 q 353 367 313 285 q 440 528 394 449 q 531 670 485 607 q 615 767 576 733 q 547 756 582 768 q 481 733 513 744 q 426 721 450 721 q 405 733 414 721 q 396 756 396 746 q 419 784 396 774 q 478 800 443 794 q 551 809 514 806 q 619 816 589 813 q 660 825 649 819 q 681 847 669 829 q 701 864 692 864 q 735 850 717 864 q 763 825 753 836 q 863 824 811 825 q 964 818 914 822 q 976 816 968 818 q 985 807 983 814 q 942 788 978 793 q 858 778 907 783 q 758 756 808 772 q 669 706 707 740 q 584 611 629 668 q 494 486 539 554 q 408 347 449 418 q 335 209 367 275 q 286 92 303 143 q 407 92 347 90 q 526 94 467 94 q 547 93 529 94 q 564 83 564 92 q 554 70 565 75 q 530 63 543 65 q 511 60 517 61 q 276 35 394 50 q 43 -6 157 21 q 37 -6 40 -6 q 29 -7 33 -7 z "},"Ī":{"ha":565,"x_min":7,"x_max":985,"o":"m 29 -7 q 7 15 7 -7 q 35 52 7 39 q 105 72 64 65 q 183 82 146 79 q 239 86 221 85 q 283 211 253 138 q 353 367 313 285 q 440 528 394 449 q 531 670 485 607 q 615 767 576 733 q 547 756 582 768 q 481 733 513 744 q 426 721 450 721 q 405 733 414 721 q 396 756 396 746 q 419 784 396 774 q 478 800 443 794 q 551 809 514 806 q 619 816 589 813 q 660 825 649 819 q 681 847 669 829 q 701 864 692 864 q 735 850 717 864 q 763 825 753 836 q 863 824 811 825 q 964 818 914 822 q 976 816 968 818 q 985 807 983 814 q 942 788 978 793 q 858 778 907 783 q 758 756 808 772 q 669 706 707 740 q 584 611 629 668 q 494 486 539 554 q 408 347 449 418 q 335 209 367 275 q 286 92 303 143 q 407 92 347 90 q 526 94 467 94 q 547 93 529 94 q 564 83 564 92 q 554 70 565 75 q 530 63 543 65 q 511 60 517 61 q 276 35 394 50 q 43 -6 157 21 q 37 -6 40 -6 q 29 -7 33 -7 m 600 922 q 585 933 585 922 q 597 958 585 944 q 618 971 608 971 l 860 971 q 869 960 869 971 q 859 936 869 950 q 833 922 849 922 l 600 922 z "},"Į":{"ha":565,"x_min":7,"x_max":985,"o":"m 29 -7 q 7 15 7 -7 q 35 52 7 39 q 105 72 64 65 q 183 82 146 79 q 239 86 221 85 q 283 211 253 138 q 353 367 313 285 q 440 528 394 449 q 531 670 485 607 q 615 767 576 733 q 547 756 582 768 q 481 733 513 744 q 426 721 450 721 q 405 733 414 721 q 396 756 396 746 q 419 784 396 774 q 478 800 443 794 q 551 809 514 806 q 619 816 589 813 q 660 825 649 819 q 681 847 669 829 q 701 864 692 864 q 735 850 717 864 q 763 825 753 836 q 863 824 811 825 q 964 818 914 822 q 976 816 968 818 q 985 807 983 814 q 942 788 978 793 q 858 778 907 783 q 758 756 808 772 q 669 706 707 740 q 584 611 629 668 q 494 486 539 554 q 408 347 449 418 q 335 209 367 275 q 286 92 303 143 q 407 92 347 90 q 526 94 467 94 q 547 93 529 94 q 564 83 564 92 q 554 70 565 75 q 530 63 543 65 q 511 60 517 61 q 276 35 394 50 q 43 -6 157 21 q 37 -6 40 -6 q 29 -7 33 -7 m 240 -169 q 186 -154 210 -169 q 163 -99 163 -139 q 178 -33 163 -67 q 217 24 193 1 q 265 47 240 47 q 279 43 278 47 q 232 -7 253 21 q 211 -72 211 -35 q 227 -116 211 -101 q 268 -131 243 -131 q 303 -123 288 -131 q 339 -101 319 -115 l 342 -100 q 350 -105 347 -100 q 353 -114 353 -110 q 344 -131 353 -122 q 324 -147 336 -140 q 278 -165 301 -161 q 240 -169 256 -169 z "},"Ĩ":{"ha":565,"x_min":7,"x_max":985,"o":"m 29 -7 q 7 15 7 -7 q 35 52 7 39 q 105 72 64 65 q 183 82 146 79 q 239 86 221 85 q 283 211 253 138 q 353 367 313 285 q 440 528 394 449 q 531 670 485 607 q 615 767 576 733 q 547 756 582 768 q 481 733 513 744 q 426 721 450 721 q 405 733 414 721 q 396 756 396 746 q 419 784 396 774 q 478 800 443 794 q 551 809 514 806 q 619 816 589 813 q 660 825 649 819 q 681 847 669 829 q 701 864 692 864 q 735 850 717 864 q 763 825 753 836 q 863 824 811 825 q 964 818 914 822 q 976 816 968 818 q 985 807 983 814 q 942 788 978 793 q 858 778 907 783 q 758 756 808 772 q 669 706 707 740 q 584 611 629 668 q 494 486 539 554 q 408 347 449 418 q 335 209 367 275 q 286 92 303 143 q 407 92 347 90 q 526 94 467 94 q 547 93 529 94 q 564 83 564 92 q 554 70 565 75 q 530 63 543 65 q 511 60 517 61 q 276 35 394 50 q 43 -6 157 21 q 37 -6 40 -6 q 29 -7 33 -7 m 592 897 q 582 904 586 897 q 578 921 578 911 q 591 960 578 939 q 629 998 604 982 q 686 1014 654 1014 q 728 1003 707 1014 q 771 981 750 992 q 813 969 792 969 q 847 978 832 969 q 872 1001 861 988 q 880 1013 876 1007 q 885 1018 883 1018 q 889 993 892 1018 q 865 940 888 967 q 808 913 842 913 q 766 924 786 913 q 725 946 746 935 q 678 957 704 957 q 634 942 658 957 q 601 906 610 926 q 592 897 599 897 z "},"J":{"ha":672,"x_min":50,"x_max":1081,"o":"m 181 -60 q 83 -8 115 -60 q 50 115 50 44 q 77 247 50 181 q 157 356 104 313 q 165 358 160 358 q 179 344 179 358 q 174 333 179 338 q 122 250 139 307 q 104 133 104 193 q 125 22 104 71 q 189 -26 146 -26 q 292 19 236 -26 q 406 140 347 65 q 521 305 465 215 q 624 483 576 394 q 704 647 671 572 q 750 763 738 721 q 699 758 736 761 q 615 748 661 754 q 524 732 568 742 q 452 708 481 722 q 424 676 424 694 q 447 655 424 663 q 499 642 469 647 q 552 632 529 638 q 575 618 575 626 q 559 605 575 610 q 526 599 543 600 q 504 597 510 597 q 424 622 461 597 q 388 693 388 646 q 418 749 388 728 q 496 783 449 771 q 595 802 543 796 q 692 811 647 808 q 761 817 738 814 q 783 844 768 828 q 813 860 797 860 q 840 845 824 860 q 865 824 857 831 q 912 819 878 821 q 985 813 946 817 q 1052 800 1024 808 q 1081 776 1081 792 q 1069 769 1081 771 q 1042 768 1057 768 q 1001 769 1021 768 q 979 771 982 771 q 923 770 951 771 q 867 768 894 769 q 791 638 836 718 q 690 465 746 558 q 572 279 635 372 q 444 110 510 186 q 311 -13 378 33 q 181 -60 244 -60 z "},"Ĵ":{"ha":672,"x_min":50,"x_max":1081,"o":"m 181 -60 q 83 -8 115 -60 q 50 115 50 44 q 77 247 50 181 q 157 356 104 313 q 165 358 160 358 q 179 344 179 358 q 174 333 179 338 q 122 250 139 307 q 104 133 104 193 q 125 22 104 71 q 189 -26 146 -26 q 292 19 236 -26 q 406 140 347 65 q 521 305 465 215 q 624 483 576 394 q 704 647 671 572 q 750 763 738 721 q 699 758 736 761 q 615 748 661 754 q 524 732 568 742 q 452 708 481 722 q 424 676 424 694 q 447 655 424 663 q 499 642 469 647 q 552 632 529 638 q 575 618 575 626 q 559 605 575 610 q 526 599 543 600 q 504 597 510 597 q 424 622 461 597 q 388 693 388 646 q 418 749 388 728 q 496 783 449 771 q 595 802 543 796 q 692 811 647 808 q 761 817 738 814 q 783 844 768 828 q 813 860 797 860 q 840 845 824 860 q 865 824 857 831 q 912 819 878 821 q 985 813 946 817 q 1052 800 1024 808 q 1081 776 1081 792 q 1069 769 1081 771 q 1042 768 1057 768 q 1001 769 1021 768 q 979 771 982 771 q 923 770 951 771 q 867 768 894 769 q 791 638 836 718 q 690 465 746 558 q 572 279 635 372 q 444 110 510 186 q 311 -13 378 33 q 181 -60 244 -60 m 686 894 q 676 897 676 892 q 679 904 676 900 q 683 910 682 908 q 751 962 718 940 q 815 1007 783 983 q 840 1024 825 1014 q 870 1043 856 1035 q 890 1051 885 1051 q 904 1042 899 1051 l 926 1010 q 955 967 943 986 q 982 924 967 947 q 989 900 989 913 q 984 894 989 896 q 975 894 979 893 q 951 912 971 897 q 907 947 931 926 q 867 983 883 967 q 794 946 835 967 q 723 910 754 925 q 686 894 692 896 z "},"K":{"ha":814,"x_min":71,"x_max":1043,"o":"m 686 -24 q 642 -13 663 -24 q 603 14 621 -3 q 544 83 578 39 q 477 180 511 128 q 413 280 443 232 q 365 361 383 328 q 282 315 326 347 q 199 237 238 282 q 138 143 161 192 q 117 49 114 94 q 121 33 118 42 q 133 25 124 25 q 142 11 142 25 q 138 -1 142 6 q 126 -7 135 -7 q 83 15 96 -7 q 71 65 71 36 q 92 177 71 111 q 146 317 113 243 q 217 465 179 392 q 288 599 254 538 q 343 697 321 660 q 378 760 361 726 q 417 821 396 794 q 440 833 424 831 q 467 836 457 836 q 492 831 478 836 q 507 811 506 826 q 502 791 507 801 q 492 772 497 781 q 365 571 429 671 q 251 361 300 471 q 627 573 447 454 q 986 810 807 692 q 1003 819 994 815 q 1022 824 1013 824 q 1035 820 1029 824 q 1042 810 1040 817 q 1006 769 1043 799 q 907 699 968 739 q 775 614 846 658 q 636 528 704 569 q 517 456 568 488 q 447 411 467 425 q 472 342 453 389 q 518 240 490 296 q 578 133 546 185 q 641 47 610 81 q 697 14 672 14 q 734 31 721 14 q 753 75 747 49 q 761 127 760 101 q 761 169 763 153 q 760 175 761 172 q 760 181 760 178 q 768 190 760 190 q 790 175 781 190 q 805 142 799 160 q 811 114 811 124 q 797 48 814 79 q 751 -3 779 17 q 686 -24 722 -24 z "},"Ķ":{"ha":814,"x_min":71,"x_max":1043,"o":"m 686 -24 q 642 -13 663 -24 q 603 14 621 -3 q 544 83 578 39 q 477 180 511 128 q 413 280 443 232 q 365 361 383 328 q 282 315 326 347 q 199 237 238 282 q 138 143 161 192 q 117 49 114 94 q 121 33 118 42 q 133 25 124 25 q 142 11 142 25 q 138 -1 142 6 q 126 -7 135 -7 q 83 15 96 -7 q 71 65 71 36 q 92 177 71 111 q 146 317 113 243 q 217 465 179 392 q 288 599 254 538 q 343 697 321 660 q 378 760 361 726 q 417 821 396 794 q 440 833 424 831 q 467 836 457 836 q 492 831 478 836 q 507 811 506 826 q 502 791 507 801 q 492 772 497 781 q 365 571 429 671 q 251 361 300 471 q 627 573 447 454 q 986 810 807 692 q 1003 819 994 815 q 1022 824 1013 824 q 1035 820 1029 824 q 1042 810 1040 817 q 1006 769 1043 799 q 907 699 968 739 q 775 614 846 658 q 636 528 704 569 q 517 456 568 488 q 447 411 467 425 q 472 342 453 389 q 518 240 490 296 q 578 133 546 185 q 641 47 610 81 q 697 14 672 14 q 734 31 721 14 q 753 75 747 49 q 761 127 760 101 q 761 169 763 153 q 760 175 761 172 q 760 181 760 178 q 768 190 760 190 q 790 175 781 190 q 805 142 799 160 q 811 114 811 124 q 797 48 814 79 q 751 -3 779 17 q 686 -24 722 -24 m 178 -294 q 171 -287 171 -294 q 185 -252 171 -278 q 218 -196 199 -226 q 253 -140 238 -165 q 274 -107 269 -115 q 282 -93 278 -100 q 293 -85 286 -86 q 300 -83 296 -83 q 320 -88 310 -83 q 332 -97 331 -93 q 337 -106 335 -101 q 339 -118 339 -111 q 324 -146 339 -132 q 301 -171 319 -150 q 260 -217 282 -192 q 219 -262 238 -242 q 193 -287 200 -282 q 188 -292 192 -289 q 178 -294 183 -294 z "},"L":{"ha":715,"x_min":22,"x_max":736,"o":"m 47 -24 q 31 -19 35 -24 q 24 -3 26 -14 q 22 8 22 3 q 22 17 22 13 q 31 47 22 36 q 65 57 39 58 q 94 180 67 104 q 169 346 122 256 q 274 526 215 436 q 394 690 332 615 q 514 810 456 765 q 619 856 572 856 q 664 841 638 856 q 712 806 690 826 q 735 765 733 785 q 735 763 735 764 q 736 760 736 763 q 729 750 736 750 q 704 768 711 760 q 671 776 697 776 q 567 737 625 776 q 448 631 510 697 q 327 486 386 565 q 219 327 268 407 q 140 178 171 247 q 104 67 110 110 q 310 87 206 82 q 517 92 414 92 q 631 85 590 92 q 687 69 671 79 q 703 51 703 60 q 651 36 703 36 q 594 38 628 36 q 524 40 560 40 q 422 38 464 40 q 336 31 381 36 q 222 14 292 25 q 184 6 211 13 q 127 -7 157 0 q 74 -19 97 -14 q 47 -24 51 -24 z "},"Ǉ":{"ha":1388,"x_min":22,"x_max":1796,"o":"m 47 -24 q 31 -19 35 -24 q 24 -3 26 -14 q 22 8 22 3 q 22 17 22 13 q 31 47 22 36 q 65 57 39 58 q 94 180 67 104 q 169 346 122 256 q 274 526 215 436 q 394 690 332 615 q 514 810 456 765 q 619 856 572 856 q 664 841 638 856 q 712 806 690 826 q 735 765 733 785 q 735 763 735 764 q 736 760 736 763 q 729 750 736 750 q 704 768 711 760 q 671 776 697 776 q 567 737 625 776 q 448 631 510 697 q 327 486 386 565 q 219 327 268 407 q 140 178 171 247 q 104 67 110 110 q 310 87 206 82 q 517 92 414 92 q 631 85 590 92 q 687 69 671 79 q 703 51 703 60 q 651 36 703 36 q 594 38 628 36 q 524 40 560 40 q 422 38 464 40 q 336 31 381 36 q 222 14 292 25 q 184 6 211 13 q 127 -7 157 0 q 74 -19 97 -14 q 47 -24 51 -24 m 896 -60 q 798 -8 831 -60 q 765 115 765 44 q 792 247 765 181 q 872 356 819 313 q 881 358 875 358 q 894 344 894 358 q 889 333 894 338 q 837 250 854 307 q 819 133 819 193 q 840 22 819 71 q 904 -26 861 -26 q 1007 19 951 -26 q 1122 140 1063 65 q 1236 305 1181 215 q 1339 483 1292 394 q 1419 647 1386 572 q 1465 763 1453 721 q 1414 758 1451 761 q 1330 748 1376 754 q 1240 732 1283 742 q 1167 708 1196 722 q 1139 676 1139 694 q 1162 655 1139 663 q 1215 642 1185 647 q 1267 632 1244 638 q 1290 618 1290 626 q 1274 605 1290 610 q 1242 599 1258 600 q 1219 597 1225 597 q 1140 622 1176 597 q 1103 693 1103 646 q 1133 749 1103 728 q 1211 783 1164 771 q 1310 802 1258 796 q 1408 811 1363 808 q 1476 817 1453 814 q 1498 844 1483 828 q 1528 860 1513 860 q 1556 845 1539 860 q 1581 824 1572 831 q 1627 819 1593 821 q 1700 813 1661 817 q 1767 800 1739 808 q 1796 776 1796 792 q 1784 769 1796 771 q 1757 768 1772 768 q 1717 769 1736 768 q 1694 771 1697 771 q 1638 770 1667 771 q 1582 768 1610 769 q 1506 638 1551 718 q 1406 465 1461 558 q 1288 279 1350 372 q 1159 110 1225 186 q 1026 -13 1093 33 q 896 -60 960 -60 z "},"Ĺ":{"ha":715,"x_min":22,"x_max":804,"o":"m 47 -24 q 31 -19 35 -24 q 24 -3 26 -14 q 22 8 22 3 q 22 17 22 13 q 31 47 22 36 q 65 57 39 58 q 94 180 67 104 q 169 346 122 256 q 274 526 215 436 q 394 690 332 615 q 514 810 456 765 q 619 856 572 856 q 664 841 638 856 q 712 806 690 826 q 735 765 733 785 q 735 763 735 764 q 736 760 736 763 q 729 750 736 750 q 704 768 711 760 q 671 776 697 776 q 567 737 625 776 q 448 631 510 697 q 327 486 386 565 q 219 327 268 407 q 140 178 171 247 q 104 67 110 110 q 310 87 206 82 q 517 92 414 92 q 631 85 590 92 q 687 69 671 79 q 703 51 703 60 q 651 36 703 36 q 594 38 628 36 q 524 40 560 40 q 422 38 464 40 q 336 31 381 36 q 222 14 292 25 q 184 6 211 13 q 127 -7 157 0 q 74 -19 97 -14 q 47 -24 51 -24 m 582 922 q 569 932 569 922 q 574 938 571 935 q 578 942 576 940 q 630 976 599 957 q 693 1013 661 994 q 744 1042 725 1031 q 771 1054 763 1051 q 785 1057 779 1057 q 799 1044 793 1056 q 804 1025 804 1032 q 799 1010 804 1015 q 788 1001 794 1004 q 747 984 778 997 q 679 956 715 971 q 615 932 643 942 q 582 922 586 922 z "},"Ľ":{"ha":715,"x_min":22,"x_max":954,"o":"m 47 -24 q 31 -19 35 -24 q 24 -3 26 -14 q 22 8 22 3 q 22 17 22 13 q 31 47 22 36 q 65 57 39 58 q 94 180 67 104 q 169 346 122 256 q 274 526 215 436 q 394 690 332 615 q 514 810 456 765 q 619 856 572 856 q 664 841 638 856 q 712 806 690 826 q 735 765 733 785 q 735 763 735 764 q 736 760 736 763 q 729 750 736 750 q 704 768 711 760 q 671 776 697 776 q 567 737 625 776 q 448 631 510 697 q 327 486 386 565 q 219 327 268 407 q 140 178 171 247 q 104 67 110 110 q 310 87 206 82 q 517 92 414 92 q 631 85 590 92 q 687 69 671 79 q 703 51 703 60 q 651 36 703 36 q 594 38 628 36 q 524 40 560 40 q 422 38 464 40 q 336 31 381 36 q 222 14 292 25 q 184 6 211 13 q 127 -7 157 0 q 74 -19 97 -14 q 47 -24 51 -24 m 790 649 q 794 656 792 651 q 797 664 796 660 q 830 718 810 685 q 870 783 850 751 q 899 826 890 814 q 925 847 914 847 q 944 834 935 847 q 950 807 954 821 q 948 802 949 806 q 944 796 947 799 q 919 768 939 789 q 876 723 900 747 q 833 678 853 699 q 808 651 814 658 q 797 645 803 646 q 790 649 790 644 z "},"Ļ":{"ha":715,"x_min":22,"x_max":736,"o":"m 47 -24 q 31 -19 35 -24 q 24 -3 26 -14 q 22 8 22 3 q 22 17 22 13 q 31 47 22 36 q 65 57 39 58 q 94 180 67 104 q 169 346 122 256 q 274 526 215 436 q 394 690 332 615 q 514 810 456 765 q 619 856 572 856 q 664 841 638 856 q 712 806 690 826 q 735 765 733 785 q 735 763 735 764 q 736 760 736 763 q 729 750 736 750 q 704 768 711 760 q 671 776 697 776 q 567 737 625 776 q 448 631 510 697 q 327 486 386 565 q 219 327 268 407 q 140 178 171 247 q 104 67 110 110 q 310 87 206 82 q 517 92 414 92 q 631 85 590 92 q 687 69 671 79 q 703 51 703 60 q 651 36 703 36 q 594 38 628 36 q 524 40 560 40 q 422 38 464 40 q 336 31 381 36 q 222 14 292 25 q 184 6 211 13 q 127 -7 157 0 q 74 -19 97 -14 q 47 -24 51 -24 m 193 -294 q 186 -287 186 -294 q 200 -252 186 -278 q 233 -196 214 -226 q 269 -140 253 -165 q 289 -107 285 -115 q 297 -93 293 -100 q 308 -85 301 -86 q 315 -83 311 -83 q 335 -88 325 -83 q 347 -97 346 -93 q 352 -106 350 -101 q 354 -118 354 -111 q 339 -146 354 -132 q 316 -171 335 -150 q 275 -217 297 -192 q 234 -262 253 -242 q 208 -287 215 -282 q 203 -292 207 -289 q 193 -294 199 -294 z "},"Ŀ":{"ha":715,"x_min":22,"x_max":736,"o":"m 47 -24 q 31 -19 35 -24 q 24 -3 26 -14 q 22 8 22 3 q 22 17 22 13 q 31 47 22 36 q 65 57 39 58 q 94 180 67 104 q 169 346 122 256 q 274 526 215 436 q 394 690 332 615 q 514 810 456 765 q 619 856 572 856 q 664 841 638 856 q 712 806 690 826 q 735 765 733 785 q 735 763 735 764 q 736 760 736 763 q 729 750 736 750 q 704 768 711 760 q 671 776 697 776 q 567 737 625 776 q 448 631 510 697 q 327 486 386 565 q 219 327 268 407 q 140 178 171 247 q 104 67 110 110 q 310 87 206 82 q 517 92 414 92 q 631 85 590 92 q 687 69 671 79 q 703 51 703 60 q 651 36 703 36 q 594 38 628 36 q 524 40 560 40 q 422 38 464 40 q 336 31 381 36 q 222 14 292 25 q 184 6 211 13 q 127 -7 157 0 q 74 -19 97 -14 q 47 -24 51 -24 m 508 350 q 478 356 496 350 q 460 381 460 361 q 472 410 460 393 q 500 441 483 428 q 531 454 517 454 q 552 444 542 454 q 561 421 563 435 q 551 397 561 414 q 528 365 540 379 q 508 350 517 350 z "},"ǈ":{"ha":1019,"x_min":22,"x_max":1160,"o":"m 47 -24 q 31 -19 35 -24 q 24 -3 26 -14 q 22 8 22 3 q 22 17 22 13 q 31 47 22 36 q 65 57 39 58 q 94 180 67 104 q 169 346 122 256 q 274 526 215 436 q 394 690 332 615 q 514 810 456 765 q 619 856 572 856 q 664 841 638 856 q 712 806 690 826 q 735 765 733 785 q 735 763 735 764 q 736 760 736 763 q 729 750 736 750 q 704 768 711 760 q 671 776 697 776 q 567 737 625 776 q 448 631 510 697 q 327 486 386 565 q 219 327 268 407 q 140 178 171 247 q 104 67 110 110 q 310 87 206 82 q 517 92 414 92 q 631 85 590 92 q 687 69 671 79 q 703 51 703 60 q 651 36 703 36 q 594 38 628 36 q 524 40 560 40 q 422 38 464 40 q 336 31 381 36 q 222 14 292 25 q 184 6 211 13 q 127 -7 157 0 q 74 -19 97 -14 q 47 -24 51 -24 m 1000 524 q 968 547 968 524 q 986 583 968 564 q 1039 611 1004 603 q 1073 617 1060 617 q 1099 622 1086 618 q 1076 565 1093 596 q 1031 528 1058 535 q 1000 524 1017 524 m 383 -532 q 319 -468 319 -532 q 320 -454 319 -461 q 322 -440 321 -447 q 369 -344 333 -390 q 454 -259 406 -299 q 553 -185 503 -219 q 644 -126 604 -151 q 705 -89 668 -111 q 783 -41 742 -67 q 863 7 825 -15 q 890 83 876 38 q 913 176 903 129 q 924 256 922 222 q 911 276 918 265 q 904 299 904 288 q 911 333 904 313 q 931 370 918 354 q 960 386 943 386 q 965 385 963 386 q 971 385 968 385 q 997 374 990 381 q 1003 346 1003 368 q 988 208 1003 282 q 953 74 972 135 q 1005 117 981 96 q 1053 163 1029 138 q 1095 208 1075 185 q 1138 253 1115 232 q 1144 258 1140 256 q 1151 260 1147 260 q 1160 251 1160 260 q 1140 222 1160 244 q 1090 168 1119 199 q 1027 106 1060 138 q 969 51 994 75 q 933 18 943 26 q 767 -274 869 -150 q 508 -489 665 -399 q 449 -518 482 -504 q 383 -532 415 -532 m 415 -497 q 497 -470 453 -497 q 583 -403 540 -443 q 662 -323 626 -362 q 718 -257 697 -283 q 764 -194 742 -225 q 806 -129 786 -162 q 854 -35 835 -81 q 852 -30 856 -31 q 849 -29 849 -29 q 762 -90 806 -60 q 674 -149 718 -119 q 614 -190 651 -162 q 533 -251 576 -217 q 451 -322 490 -285 q 388 -394 413 -358 q 363 -457 363 -429 q 380 -488 363 -479 q 415 -497 397 -497 z "},"Ł":{"ha":715,"x_min":-4,"x_max":736,"o":"m 47 -24 q 24 -3 25 -24 q 23 8 24 3 q 22 17 22 13 q 31 47 22 36 q 65 57 39 58 q 81 139 65 89 q 121 247 96 189 l 19 221 q 8 219 15 219 q 3 232 -4 219 q 30 258 11 244 q 69 278 49 272 q 105 287 92 283 q 144 297 118 290 q 226 449 179 371 q 324 600 272 528 q 428 730 375 672 q 530 822 481 788 q 619 856 579 856 q 664 841 638 856 q 712 806 690 826 q 735 765 733 785 q 735 763 735 764 q 736 760 736 763 q 729 750 736 750 q 704 768 711 760 q 671 776 697 776 q 565 735 624 776 q 442 625 506 693 q 319 476 379 557 q 211 314 260 394 l 292 335 q 329 344 304 339 q 369 349 354 349 q 383 343 383 349 q 363 322 383 333 q 314 300 343 310 q 257 283 285 290 l 182 263 q 129 152 150 203 q 104 67 108 101 q 310 87 206 82 q 517 92 414 92 q 563 91 533 92 q 624 86 593 90 q 678 74 656 82 q 703 49 701 65 q 684 39 703 42 q 640 36 665 36 q 581 38 610 36 q 546 40 551 40 q 455 39 493 40 q 383 35 417 38 q 313 27 350 32 q 222 14 275 22 q 184 6 211 13 q 127 -7 157 0 q 74 -19 97 -14 q 47 -24 51 -24 z "},"M":{"ha":1139,"x_min":44,"x_max":1407,"o":"m 71 -43 q 44 11 44 -43 q 68 95 44 38 q 131 230 92 153 q 221 391 171 307 q 324 556 271 475 q 425 702 376 636 q 513 807 474 768 q 572 846 551 846 q 599 836 582 846 q 629 814 615 826 q 643 792 643 801 q 637 738 643 767 q 626 685 631 710 q 615 623 624 671 q 599 513 607 575 q 592 396 592 451 q 603 306 592 343 q 643 268 614 268 q 735 303 681 268 q 851 392 789 338 q 974 509 913 447 q 1088 626 1036 571 q 1176 715 1140 681 q 1218 750 1211 750 q 1222 744 1222 750 q 1213 717 1222 733 q 1160 637 1196 685 q 1078 533 1125 589 q 977 424 1031 478 q 869 325 924 369 q 765 253 815 281 q 675 226 715 226 q 578 262 611 226 q 532 353 544 297 q 519 471 519 410 q 526 594 519 542 q 543 713 533 646 q 409 559 481 647 q 272 371 338 471 q 157 170 206 271 q 92 -21 108 69 q 86 -36 90 -29 q 71 -43 82 -43 m 1060 1 q 1020 31 1029 1 q 1011 83 1011 60 q 1024 163 1011 110 q 1060 286 1038 217 q 1110 431 1082 356 q 1172 579 1139 507 q 1236 709 1204 651 q 1297 801 1268 767 q 1349 836 1326 836 q 1383 825 1360 836 q 1407 799 1407 814 q 1382 756 1407 794 q 1317 657 1357 718 q 1233 522 1278 596 q 1149 368 1189 447 q 1085 216 1110 289 q 1060 86 1060 143 l 1060 75 q 1063 56 1060 65 q 1075 47 1065 47 q 1092 31 1092 47 q 1083 11 1092 21 q 1060 1 1075 1 z "},"N":{"ha":803,"x_min":25,"x_max":1018,"o":"m 85 -37 q 40 -24 54 -37 q 25 22 25 -10 q 51 133 25 65 q 118 279 76 200 q 207 436 160 358 q 297 578 254 514 q 368 681 340 643 q 356 685 364 682 q 347 694 347 688 q 367 723 347 701 q 415 770 388 744 q 467 815 443 796 q 500 833 492 833 q 541 815 522 833 q 560 774 560 797 q 557 763 560 768 q 540 688 553 742 q 512 560 526 633 q 487 408 497 488 q 476 260 476 329 q 497 124 476 179 q 569 68 517 68 q 665 113 617 68 q 758 228 713 157 q 839 381 803 300 q 869 456 851 408 q 905 560 888 504 q 934 670 922 617 q 946 761 946 724 q 917 815 946 815 q 894 810 906 815 q 868 806 882 806 q 858 808 864 806 q 851 815 851 810 q 868 840 851 829 q 906 858 885 851 q 939 865 928 865 q 999 837 981 865 q 1018 760 1018 808 q 996 625 1018 703 q 935 463 974 547 q 846 297 896 378 q 741 149 796 215 q 631 44 686 83 q 528 6 576 6 q 453 34 481 6 q 415 110 426 63 q 404 218 404 158 q 415 360 404 286 q 442 503 426 435 q 472 624 457 572 q 496 700 488 676 q 407 595 461 661 q 294 450 353 529 q 182 289 235 371 q 97 134 129 207 q 64 8 64 61 q 66 -7 64 1 q 78 -15 68 -15 q 103 -26 103 -15 q 85 -37 103 -37 z "},"Ǌ":{"ha":1475,"x_min":25,"x_max":1883,"o":"m 85 -37 q 40 -24 54 -37 q 25 22 25 -10 q 51 133 25 65 q 118 279 76 200 q 207 436 160 358 q 297 578 254 514 q 368 681 340 643 q 356 685 364 682 q 347 694 347 688 q 367 723 347 701 q 415 770 388 744 q 467 815 443 796 q 500 833 492 833 q 541 815 522 833 q 560 774 560 797 q 557 763 560 768 q 540 688 553 742 q 512 560 526 633 q 487 408 497 488 q 476 260 476 329 q 497 124 476 179 q 569 68 517 68 q 665 113 617 68 q 758 228 713 157 q 839 381 803 300 q 869 456 851 408 q 905 560 888 504 q 934 670 922 617 q 946 761 946 724 q 917 815 946 815 q 894 810 906 815 q 868 806 882 806 q 858 808 864 806 q 851 815 851 810 q 868 840 851 829 q 906 858 885 851 q 939 865 928 865 q 999 837 981 865 q 1018 760 1018 808 q 996 625 1018 703 q 935 463 974 547 q 846 297 896 378 q 741 149 796 215 q 631 44 686 83 q 528 6 576 6 q 453 34 481 6 q 415 110 426 63 q 404 218 404 158 q 415 360 404 286 q 442 503 426 435 q 472 624 457 572 q 496 700 488 676 q 407 595 461 661 q 294 450 353 529 q 182 289 235 371 q 97 134 129 207 q 64 8 64 61 q 66 -7 64 1 q 78 -15 68 -15 q 103 -26 103 -15 q 85 -37 103 -37 m 983 -60 q 885 -8 918 -60 q 853 115 853 44 q 880 247 853 181 q 960 356 907 313 q 968 358 963 358 q 982 344 982 358 q 976 333 982 338 q 924 250 942 307 q 907 133 907 193 q 928 22 907 71 q 992 -26 949 -26 q 1094 19 1039 -26 q 1209 140 1150 65 q 1324 305 1268 215 q 1426 483 1379 394 q 1507 647 1474 572 q 1553 763 1540 721 q 1501 758 1539 761 q 1417 748 1464 754 q 1327 732 1371 742 q 1255 708 1283 722 q 1226 676 1226 694 q 1249 655 1226 663 q 1302 642 1272 647 q 1355 632 1332 638 q 1378 618 1378 626 q 1362 605 1378 610 q 1329 599 1346 600 q 1307 597 1313 597 q 1227 622 1264 597 q 1190 693 1190 646 q 1221 749 1190 728 q 1299 783 1251 771 q 1398 802 1346 796 q 1495 811 1450 808 q 1564 817 1540 814 q 1585 844 1571 828 q 1615 860 1600 860 q 1643 845 1626 860 q 1668 824 1660 831 q 1715 819 1681 821 q 1788 813 1749 817 q 1855 800 1826 808 q 1883 776 1883 792 q 1872 769 1883 771 q 1844 768 1860 768 q 1804 769 1824 768 q 1782 771 1785 771 q 1726 770 1754 771 q 1669 768 1697 769 q 1594 638 1639 718 q 1493 465 1549 558 q 1375 279 1438 372 q 1247 110 1313 186 q 1114 -13 1181 33 q 983 -60 1047 -60 z "},"Ń":{"ha":803,"x_min":25,"x_max":1018,"o":"m 85 -37 q 40 -24 54 -37 q 25 22 25 -10 q 51 133 25 65 q 118 279 76 200 q 207 436 160 358 q 297 578 254 514 q 368 681 340 643 q 356 685 364 682 q 347 694 347 688 q 367 723 347 701 q 415 770 388 744 q 467 815 443 796 q 500 833 492 833 q 541 815 522 833 q 560 774 560 797 q 557 763 560 768 q 540 688 553 742 q 512 560 526 633 q 487 408 497 488 q 476 260 476 329 q 497 124 476 179 q 569 68 517 68 q 665 113 617 68 q 758 228 713 157 q 839 381 803 300 q 869 456 851 408 q 905 560 888 504 q 934 670 922 617 q 946 761 946 724 q 917 815 946 815 q 894 810 906 815 q 868 806 882 806 q 858 808 864 806 q 851 815 851 810 q 868 840 851 829 q 906 858 885 851 q 939 865 928 865 q 999 837 981 865 q 1018 760 1018 808 q 996 625 1018 703 q 935 463 974 547 q 846 297 896 378 q 741 149 796 215 q 631 44 686 83 q 528 6 576 6 q 453 34 481 6 q 415 110 426 63 q 404 218 404 158 q 415 360 404 286 q 442 503 426 435 q 472 624 457 572 q 496 700 488 676 q 407 595 461 661 q 294 450 353 529 q 182 289 235 371 q 97 134 129 207 q 64 8 64 61 q 66 -7 64 1 q 78 -15 68 -15 q 103 -26 103 -15 q 85 -37 103 -37 m 675 914 q 663 924 663 914 q 667 929 664 926 q 671 933 669 932 q 723 967 692 949 q 786 1004 754 986 q 838 1033 818 1022 q 864 1046 856 1043 q 878 1049 872 1049 q 892 1035 886 1047 q 897 1017 897 1024 q 892 1001 897 1007 q 881 993 888 996 q 840 976 871 989 q 772 948 808 963 q 708 924 736 933 q 675 914 679 914 z "},"Ň":{"ha":803,"x_min":25,"x_max":1018,"o":"m 967 1071 q 976 1068 976 1074 q 974 1062 976 1065 q 969 1056 971 1058 q 902 1003 935 1025 q 838 958 869 982 q 813 941 829 951 q 783 922 797 931 q 763 914 768 914 q 749 924 754 914 l 726 956 q 698 999 710 979 q 671 1042 686 1019 q 664 1065 664 1053 q 669 1071 664 1069 q 678 1071 674 1072 q 703 1054 683 1069 q 746 1019 722 1039 q 786 982 769 1000 q 858 1020 818 1000 q 930 1055 899 1040 q 967 1071 961 1069 m 85 -37 q 40 -24 54 -37 q 25 22 25 -10 q 51 133 25 65 q 118 279 76 200 q 207 436 160 358 q 297 578 254 514 q 368 681 340 643 q 356 685 364 682 q 347 694 347 688 q 367 723 347 701 q 415 770 388 744 q 467 815 443 796 q 500 833 492 833 q 541 815 522 833 q 560 774 560 797 q 557 763 560 768 q 540 688 553 742 q 512 560 526 633 q 487 408 497 488 q 476 260 476 329 q 497 124 476 179 q 569 68 517 68 q 665 113 617 68 q 758 228 713 157 q 839 381 803 300 q 869 456 851 408 q 905 560 888 504 q 934 670 922 617 q 946 761 946 724 q 917 815 946 815 q 894 810 906 815 q 868 806 882 806 q 858 808 864 806 q 851 815 851 810 q 868 840 851 829 q 906 858 885 851 q 939 865 928 865 q 999 837 981 865 q 1018 760 1018 808 q 996 625 1018 703 q 935 463 974 547 q 846 297 896 378 q 741 149 796 215 q 631 44 686 83 q 528 6 576 6 q 453 34 481 6 q 415 110 426 63 q 404 218 404 158 q 415 360 404 286 q 442 503 426 435 q 472 624 457 572 q 496 700 488 676 q 407 595 461 661 q 294 450 353 529 q 182 289 235 371 q 97 134 129 207 q 64 8 64 61 q 66 -7 64 1 q 78 -15 68 -15 q 103 -26 103 -15 q 85 -37 103 -37 z "},"Ņ":{"ha":803,"x_min":25,"x_max":1018,"o":"m 85 -37 q 40 -24 54 -37 q 25 22 25 -10 q 51 133 25 65 q 118 279 76 200 q 207 436 160 358 q 297 578 254 514 q 368 681 340 643 q 356 685 364 682 q 347 694 347 688 q 367 723 347 701 q 415 770 388 744 q 467 815 443 796 q 500 833 492 833 q 541 815 522 833 q 560 774 560 797 q 557 763 560 768 q 540 688 553 742 q 512 560 526 633 q 487 408 497 488 q 476 260 476 329 q 497 124 476 179 q 569 68 517 68 q 665 113 617 68 q 758 228 713 157 q 839 381 803 300 q 869 456 851 408 q 905 560 888 504 q 934 670 922 617 q 946 761 946 724 q 917 815 946 815 q 894 810 906 815 q 868 806 882 806 q 858 808 864 806 q 851 815 851 810 q 868 840 851 829 q 906 858 885 851 q 939 865 928 865 q 999 837 981 865 q 1018 760 1018 808 q 996 625 1018 703 q 935 463 974 547 q 846 297 896 378 q 741 149 796 215 q 631 44 686 83 q 528 6 576 6 q 453 34 481 6 q 415 110 426 63 q 404 218 404 158 q 415 360 404 286 q 442 503 426 435 q 472 624 457 572 q 496 700 488 676 q 407 595 461 661 q 294 450 353 529 q 182 289 235 371 q 97 134 129 207 q 64 8 64 61 q 66 -7 64 1 q 78 -15 68 -15 q 103 -26 103 -15 q 85 -37 103 -37 m 132 -294 q 125 -287 125 -294 q 139 -252 125 -278 q 172 -196 153 -226 q 208 -140 192 -165 q 228 -107 224 -115 q 236 -93 232 -100 q 247 -85 240 -86 q 254 -83 250 -83 q 274 -88 264 -83 q 286 -97 285 -93 q 291 -106 289 -101 q 293 -118 293 -111 q 278 -146 293 -132 q 255 -171 274 -150 q 214 -217 236 -192 q 173 -262 192 -242 q 147 -287 154 -282 q 142 -292 146 -289 q 132 -294 138 -294 z "},"ǋ":{"ha":1107,"x_min":25,"x_max":1247,"o":"m 85 -37 q 40 -24 54 -37 q 25 22 25 -10 q 51 133 25 65 q 118 279 76 200 q 207 436 160 358 q 297 578 254 514 q 368 681 340 643 q 356 685 364 682 q 347 694 347 688 q 367 723 347 701 q 415 770 388 744 q 467 815 443 796 q 500 833 492 833 q 541 815 522 833 q 560 774 560 797 q 557 763 560 768 q 540 688 553 742 q 512 560 526 633 q 487 408 497 488 q 476 260 476 329 q 497 124 476 179 q 569 68 517 68 q 665 113 617 68 q 758 228 713 157 q 839 381 803 300 q 869 456 851 408 q 905 560 888 504 q 934 670 922 617 q 946 761 946 724 q 917 815 946 815 q 894 810 906 815 q 868 806 882 806 q 858 808 864 806 q 851 815 851 810 q 868 840 851 829 q 906 858 885 851 q 939 865 928 865 q 999 837 981 865 q 1018 760 1018 808 q 996 625 1018 703 q 935 463 974 547 q 846 297 896 378 q 741 149 796 215 q 631 44 686 83 q 528 6 576 6 q 453 34 481 6 q 415 110 426 63 q 404 218 404 158 q 415 360 404 286 q 442 503 426 435 q 472 624 457 572 q 496 700 488 676 q 407 595 461 661 q 294 450 353 529 q 182 289 235 371 q 97 134 129 207 q 64 8 64 61 q 66 -7 64 1 q 78 -15 68 -15 q 103 -26 103 -15 q 85 -37 103 -37 m 1088 524 q 1056 547 1056 524 q 1074 583 1056 564 q 1126 611 1092 603 q 1160 617 1147 617 q 1186 622 1174 618 q 1163 565 1181 596 q 1118 528 1146 535 q 1088 524 1104 524 m 471 -532 q 407 -468 407 -532 q 408 -454 407 -461 q 410 -440 408 -447 q 457 -344 421 -390 q 542 -259 493 -299 q 641 -185 590 -219 q 732 -126 692 -151 q 792 -89 756 -111 q 871 -41 829 -67 q 950 7 913 -15 q 977 83 964 38 q 1000 176 990 129 q 1011 256 1010 222 q 999 276 1006 265 q 992 299 992 288 q 999 333 992 313 q 1018 370 1006 354 q 1047 386 1031 386 q 1053 385 1050 386 q 1058 385 1056 385 q 1084 374 1078 381 q 1090 346 1090 368 q 1075 208 1090 282 q 1040 74 1060 135 q 1092 117 1068 96 q 1140 163 1117 138 q 1183 208 1163 185 q 1225 253 1203 232 q 1231 258 1228 256 q 1239 260 1235 260 q 1247 251 1247 260 q 1227 222 1247 244 q 1177 168 1207 199 q 1115 106 1147 138 q 1056 51 1082 75 q 1021 18 1031 26 q 855 -274 957 -150 q 596 -489 753 -399 q 536 -518 569 -504 q 471 -532 503 -532 m 503 -497 q 584 -470 540 -497 q 671 -403 628 -443 q 749 -323 714 -362 q 806 -257 785 -283 q 851 -194 829 -225 q 893 -129 874 -162 q 942 -35 922 -81 q 940 -30 943 -31 q 936 -29 936 -29 q 849 -90 893 -60 q 761 -149 806 -119 q 701 -190 739 -162 q 621 -251 664 -217 q 539 -322 578 -285 q 475 -394 500 -358 q 450 -457 450 -429 q 467 -488 450 -479 q 503 -497 485 -497 z "},"Ñ":{"ha":803,"x_min":25,"x_max":1018,"o":"m 85 -37 q 40 -24 54 -37 q 25 22 25 -10 q 51 133 25 65 q 118 279 76 200 q 207 436 160 358 q 297 578 254 514 q 368 681 340 643 q 356 685 364 682 q 347 694 347 688 q 367 723 347 701 q 415 770 388 744 q 467 815 443 796 q 500 833 492 833 q 541 815 522 833 q 560 774 560 797 q 557 763 560 768 q 540 688 553 742 q 512 560 526 633 q 487 408 497 488 q 476 260 476 329 q 497 124 476 179 q 569 68 517 68 q 665 113 617 68 q 758 228 713 157 q 839 381 803 300 q 869 456 851 408 q 905 560 888 504 q 934 670 922 617 q 946 761 946 724 q 917 815 946 815 q 894 810 906 815 q 868 806 882 806 q 858 808 864 806 q 851 815 851 810 q 868 840 851 829 q 906 858 885 851 q 939 865 928 865 q 999 837 981 865 q 1018 760 1018 808 q 996 625 1018 703 q 935 463 974 547 q 846 297 896 378 q 741 149 796 215 q 631 44 686 83 q 528 6 576 6 q 453 34 481 6 q 415 110 426 63 q 404 218 404 158 q 415 360 404 286 q 442 503 426 435 q 472 624 457 572 q 496 700 488 676 q 407 595 461 661 q 294 450 353 529 q 182 289 235 371 q 97 134 129 207 q 64 8 64 61 q 66 -7 64 1 q 78 -15 68 -15 q 103 -26 103 -15 q 85 -37 103 -37 m 638 914 q 628 921 632 914 q 624 938 624 928 q 637 977 624 956 q 675 1015 650 999 q 732 1031 700 1031 q 774 1019 753 1031 q 817 997 796 1008 q 858 986 838 986 q 892 995 878 986 q 918 1018 907 1004 q 926 1029 922 1024 q 931 1035 929 1035 q 935 1010 938 1035 q 910 956 933 983 q 854 929 888 929 q 812 940 832 929 q 771 963 792 951 q 724 974 750 974 q 680 958 704 974 q 647 922 656 943 q 638 914 644 914 z "},"O":{"ha":969,"x_min":139,"x_max":1114,"o":"m 361 -21 q 139 203 139 -21 q 170 353 139 281 q 251 493 201 426 q 360 618 301 560 q 472 724 418 676 q 341 660 404 700 q 224 572 278 621 q 201 561 211 561 q 193 571 193 561 q 201 592 193 579 q 349 724 260 669 q 542 806 439 778 q 739 835 644 835 q 875 818 808 835 q 996 766 942 801 q 1082 674 1050 731 q 1114 538 1114 617 q 1077 392 1114 463 q 978 260 1040 322 q 837 146 915 197 q 674 57 758 94 q 508 -1 589 19 q 361 -21 428 -21 m 350 25 q 522 57 428 25 q 708 145 615 89 q 878 275 800 201 q 1002 431 956 349 q 1049 599 1049 514 q 1022 693 1049 656 q 953 752 996 731 q 861 783 911 774 q 765 792 811 792 q 666 784 715 792 q 568 761 617 776 q 599 753 581 760 q 631 735 617 746 q 644 707 644 724 q 629 689 644 694 q 518 635 578 672 q 400 545 458 597 q 294 432 342 493 q 217 308 246 371 q 188 189 188 246 q 350 25 188 25 z "},"Œ":{"ha":1469,"x_min":82,"x_max":1636,"o":"m 968 -22 q 838 13 892 -22 q 772 132 783 47 q 772 137 772 135 q 771 140 771 139 q 611 55 694 92 q 449 -1 528 18 q 304 -21 369 -21 q 82 203 82 -21 q 113 353 82 281 q 194 493 144 426 q 303 618 244 560 q 415 724 361 676 q 284 660 347 700 q 167 572 221 621 q 144 561 154 561 q 136 571 136 561 q 144 592 136 579 q 292 724 203 669 q 485 806 382 778 q 682 835 588 835 q 823 817 754 835 q 946 762 892 800 q 1029 663 1000 724 q 1047 691 1039 678 q 1064 714 1056 704 q 1053 724 1060 724 q 1040 728 1046 725 q 1032 749 1035 732 q 1056 785 1029 771 q 1125 807 1082 799 q 1217 819 1168 815 q 1310 824 1267 824 q 1381 825 1354 825 q 1488 824 1433 825 q 1596 813 1542 822 q 1627 794 1618 807 q 1636 771 1636 782 q 1630 753 1636 761 q 1615 746 1624 746 q 1592 765 1601 746 q 1537 776 1569 775 q 1482 776 1504 776 q 1421 774 1461 776 q 1335 769 1381 772 q 1253 758 1290 765 q 1201 740 1217 751 q 1160 702 1188 732 q 1103 635 1133 672 q 1046 564 1072 597 q 1007 514 1019 531 q 1167 519 1088 513 q 1326 526 1246 526 l 1378 526 q 1428 526 1403 526 q 1479 522 1454 525 q 1496 515 1496 521 q 1485 506 1496 511 q 1462 496 1474 500 q 1444 490 1450 492 q 1279 476 1365 478 q 1109 469 1193 475 q 950 431 1025 463 q 928 388 944 418 q 894 319 913 358 q 862 238 875 281 q 849 158 849 196 q 877 80 849 111 q 982 49 906 49 q 1122 65 1044 49 q 1280 109 1200 82 q 1431 167 1360 136 q 1554 226 1503 197 q 1565 231 1563 231 q 1569 225 1569 231 q 1564 211 1569 218 q 1488 146 1542 179 q 1364 83 1435 113 q 1219 29 1293 53 q 1078 -8 1144 6 q 968 -22 1011 -22 m 293 25 q 451 53 365 25 q 625 131 538 81 q 786 244 713 181 q 828 344 803 296 q 872 433 853 393 q 840 436 860 435 q 803 447 819 438 q 788 475 788 456 q 794 485 788 482 q 807 488 800 488 q 824 486 815 488 q 836 485 832 485 q 922 522 883 485 q 992 606 961 560 q 963 697 990 661 q 894 754 936 733 q 803 783 851 775 q 708 792 754 792 q 609 784 658 792 q 511 761 560 776 q 542 753 524 760 q 574 735 560 746 q 588 707 588 724 q 572 689 588 694 q 461 635 521 672 q 343 545 401 597 q 237 432 285 493 q 160 308 189 371 q 131 189 131 246 q 293 25 131 25 z "},"Ó":{"ha":969,"x_min":139,"x_max":1114,"o":"m 361 -21 q 139 203 139 -21 q 170 353 139 281 q 251 493 201 426 q 360 618 301 560 q 472 724 418 676 q 341 660 404 700 q 224 572 278 621 q 201 561 211 561 q 193 571 193 561 q 201 592 193 579 q 349 724 260 669 q 542 806 439 778 q 739 835 644 835 q 875 818 808 835 q 996 766 942 801 q 1082 674 1050 731 q 1114 538 1114 617 q 1077 392 1114 463 q 978 260 1040 322 q 837 146 915 197 q 674 57 758 94 q 508 -1 589 19 q 361 -21 428 -21 m 350 25 q 522 57 428 25 q 708 145 615 89 q 878 275 800 201 q 1002 431 956 349 q 1049 599 1049 514 q 1022 693 1049 656 q 953 752 996 731 q 861 783 911 774 q 765 792 811 792 q 666 784 715 792 q 568 761 617 776 q 599 753 581 760 q 631 735 617 746 q 644 707 644 724 q 629 689 644 694 q 518 635 578 672 q 400 545 458 597 q 294 432 342 493 q 217 308 246 371 q 188 189 188 246 q 350 25 188 25 m 754 896 q 742 906 742 896 q 746 911 743 908 q 750 915 749 914 q 802 949 771 931 q 865 986 833 968 q 917 1015 897 1004 q 943 1028 935 1025 q 957 1031 951 1031 q 971 1017 965 1029 q 976 999 976 1006 q 972 983 976 989 q 960 975 967 978 q 919 958 950 971 q 851 930 888 944 q 787 906 815 915 q 754 896 758 896 z "},"Ŏ":{"ha":969,"x_min":139,"x_max":1114,"o":"m 361 -21 q 139 203 139 -21 q 170 353 139 281 q 251 493 201 426 q 360 618 301 560 q 472 724 418 676 q 341 660 404 700 q 224 572 278 621 q 201 561 211 561 q 193 571 193 561 q 201 592 193 579 q 349 724 260 669 q 542 806 439 778 q 739 835 644 835 q 875 818 808 835 q 996 766 942 801 q 1082 674 1050 731 q 1114 538 1114 617 q 1077 392 1114 463 q 978 260 1040 322 q 837 146 915 197 q 674 57 758 94 q 508 -1 589 19 q 361 -21 428 -21 m 350 25 q 522 57 428 25 q 708 145 615 89 q 878 275 800 201 q 1002 431 956 349 q 1049 599 1049 514 q 1022 693 1049 656 q 953 752 996 731 q 861 783 911 774 q 765 792 811 792 q 666 784 715 792 q 568 761 617 776 q 599 753 581 760 q 631 735 617 746 q 644 707 644 724 q 629 689 644 694 q 518 635 578 672 q 400 545 458 597 q 294 432 342 493 q 217 308 246 371 q 188 189 188 246 q 350 25 188 25 m 833 903 q 750 932 786 903 q 714 1004 714 961 q 722 1035 714 1021 q 743 1049 729 1049 q 760 1040 756 1049 q 767 1018 764 1031 q 798 970 775 985 q 851 956 821 956 q 927 969 892 956 q 994 1026 963 982 q 1003 1042 997 1032 q 1017 1053 1010 1053 q 1028 1049 1024 1053 q 1028 1035 1032 1044 q 947 935 1003 968 q 833 903 890 903 z "},"Ǒ":{"ha":969,"x_min":139,"x_max":1114,"o":"m 1046 1053 q 1056 1050 1056 1056 q 1053 1044 1056 1047 q 1049 1038 1050 1040 q 981 985 1014 1007 q 917 940 949 964 q 892 923 908 933 q 862 904 876 913 q 842 896 847 896 q 828 906 833 896 l 806 938 q 777 981 789 961 q 750 1024 765 1001 q 743 1047 743 1035 q 748 1053 743 1051 q 757 1053 753 1054 q 782 1036 763 1051 q 825 1001 801 1021 q 865 964 849 982 q 938 1002 897 982 q 1009 1037 978 1022 q 1046 1053 1040 1051 m 361 -21 q 139 203 139 -21 q 170 353 139 281 q 251 493 201 426 q 360 618 301 560 q 472 724 418 676 q 341 660 404 700 q 224 572 278 621 q 201 561 211 561 q 193 571 193 561 q 201 592 193 579 q 349 724 260 669 q 542 806 439 778 q 739 835 644 835 q 875 818 808 835 q 996 766 942 801 q 1082 674 1050 731 q 1114 538 1114 617 q 1077 392 1114 463 q 978 260 1040 322 q 837 146 915 197 q 674 57 758 94 q 508 -1 589 19 q 361 -21 428 -21 m 350 25 q 522 57 428 25 q 708 145 615 89 q 878 275 800 201 q 1002 431 956 349 q 1049 599 1049 514 q 1022 693 1049 656 q 953 752 996 731 q 861 783 911 774 q 765 792 811 792 q 666 784 715 792 q 568 761 617 776 q 599 753 581 760 q 631 735 617 746 q 644 707 644 724 q 629 689 644 694 q 518 635 578 672 q 400 545 458 597 q 294 432 342 493 q 217 308 246 371 q 188 189 188 246 q 350 25 188 25 z "},"Ô":{"ha":969,"x_min":139,"x_max":1114,"o":"m 361 -21 q 139 203 139 -21 q 170 353 139 281 q 251 493 201 426 q 360 618 301 560 q 472 724 418 676 q 341 660 404 700 q 224 572 278 621 q 201 561 211 561 q 193 571 193 561 q 201 592 193 579 q 349 724 260 669 q 542 806 439 778 q 739 835 644 835 q 875 818 808 835 q 996 766 942 801 q 1082 674 1050 731 q 1114 538 1114 617 q 1077 392 1114 463 q 978 260 1040 322 q 837 146 915 197 q 674 57 758 94 q 508 -1 589 19 q 361 -21 428 -21 m 350 25 q 522 57 428 25 q 708 145 615 89 q 878 275 800 201 q 1002 431 956 349 q 1049 599 1049 514 q 1022 693 1049 656 q 953 752 996 731 q 861 783 911 774 q 765 792 811 792 q 666 784 715 792 q 568 761 617 776 q 599 753 581 760 q 631 735 617 746 q 644 707 644 724 q 629 689 644 694 q 518 635 578 672 q 400 545 458 597 q 294 432 342 493 q 217 308 246 371 q 188 189 188 246 q 350 25 188 25 m 700 897 q 690 900 690 894 q 693 907 690 903 q 697 913 696 911 q 765 965 732 943 q 829 1010 797 986 q 854 1027 839 1017 q 884 1046 869 1038 q 904 1054 899 1054 q 918 1044 913 1054 l 940 1013 q 969 969 957 989 q 996 926 981 950 q 1003 903 1003 915 q 998 897 1003 899 q 989 897 993 896 q 965 915 985 900 q 921 949 944 929 q 881 986 897 969 q 808 949 849 969 q 737 913 768 928 q 700 897 706 899 z "},"Ố":{"ha":969,"x_min":139,"x_max":1239,"o":"m 361 -21 q 139 203 139 -21 q 170 353 139 281 q 251 493 201 426 q 360 618 301 560 q 472 724 418 676 q 341 660 404 700 q 224 572 278 621 q 201 561 211 561 q 193 571 193 561 q 201 592 193 579 q 349 724 260 669 q 542 806 439 778 q 739 835 644 835 q 875 818 808 835 q 996 766 942 801 q 1082 674 1050 731 q 1114 538 1114 617 q 1077 392 1114 463 q 978 260 1040 322 q 837 146 915 197 q 674 57 758 94 q 508 -1 589 19 q 361 -21 428 -21 m 350 25 q 522 57 428 25 q 708 145 615 89 q 878 275 800 201 q 1002 431 956 349 q 1049 599 1049 514 q 1022 693 1049 656 q 953 752 996 731 q 861 783 911 774 q 765 792 811 792 q 666 784 715 792 q 568 761 617 776 q 599 753 581 760 q 631 735 617 746 q 644 707 644 724 q 629 689 644 694 q 518 635 578 672 q 400 545 458 597 q 294 432 342 493 q 217 308 246 371 q 188 189 188 246 q 350 25 188 25 m 700 897 q 690 900 690 894 q 693 907 690 903 q 697 913 696 911 q 765 965 732 943 q 829 1010 797 986 q 854 1027 839 1017 q 884 1046 869 1038 q 904 1054 899 1054 q 918 1044 913 1054 l 940 1013 q 969 969 957 989 q 996 926 981 950 q 1003 903 1003 915 q 998 897 1003 899 q 989 897 993 896 q 965 915 985 900 q 921 949 944 929 q 881 986 897 969 q 808 949 849 969 q 737 913 768 928 q 700 897 706 899 m 1017 1024 q 1004 1033 1004 1024 q 1008 1039 1006 1036 q 1013 1043 1011 1042 q 1065 1077 1033 1058 q 1128 1114 1096 1096 q 1179 1143 1160 1132 q 1206 1156 1197 1153 q 1219 1158 1214 1158 q 1233 1145 1228 1157 q 1239 1126 1239 1133 q 1234 1111 1239 1117 q 1222 1103 1229 1106 q 1181 1085 1213 1099 q 1114 1058 1150 1072 q 1049 1033 1078 1043 q 1017 1024 1021 1024 z "},"Ộ":{"ha":969,"x_min":139,"x_max":1114,"o":"m 361 -21 q 139 203 139 -21 q 170 353 139 281 q 251 493 201 426 q 360 618 301 560 q 472 724 418 676 q 341 660 404 700 q 224 572 278 621 q 201 561 211 561 q 193 571 193 561 q 201 592 193 579 q 349 724 260 669 q 542 806 439 778 q 739 835 644 835 q 875 818 808 835 q 996 766 942 801 q 1082 674 1050 731 q 1114 538 1114 617 q 1077 392 1114 463 q 978 260 1040 322 q 837 146 915 197 q 674 57 758 94 q 508 -1 589 19 q 361 -21 428 -21 m 350 25 q 522 57 428 25 q 708 145 615 89 q 878 275 800 201 q 1002 431 956 349 q 1049 599 1049 514 q 1022 693 1049 656 q 953 752 996 731 q 861 783 911 774 q 765 792 811 792 q 666 784 715 792 q 568 761 617 776 q 599 753 581 760 q 631 735 617 746 q 644 707 644 724 q 629 689 644 694 q 518 635 578 672 q 400 545 458 597 q 294 432 342 493 q 217 308 246 371 q 188 189 188 246 q 350 25 188 25 m 222 -187 q 192 -182 210 -187 q 174 -157 174 -176 q 185 -127 174 -144 q 214 -97 197 -110 q 244 -83 231 -83 q 266 -93 256 -83 q 275 -117 276 -103 q 265 -141 275 -124 q 242 -173 254 -158 q 222 -187 231 -187 m 700 897 q 690 900 690 894 q 693 907 690 903 q 697 913 696 911 q 765 965 732 943 q 829 1010 797 986 q 854 1027 839 1017 q 884 1046 869 1038 q 904 1054 899 1054 q 918 1044 913 1054 l 940 1013 q 969 969 957 989 q 996 926 981 950 q 1003 903 1003 915 q 998 897 1003 899 q 989 897 993 896 q 965 915 985 900 q 921 949 944 929 q 881 986 897 969 q 808 949 849 969 q 737 913 768 928 q 700 897 706 899 z "},"Ồ":{"ha":969,"x_min":139,"x_max":1114,"o":"m 361 -21 q 139 203 139 -21 q 170 353 139 281 q 251 493 201 426 q 360 618 301 560 q 472 724 418 676 q 341 660 404 700 q 224 572 278 621 q 201 561 211 561 q 193 571 193 561 q 201 592 193 579 q 349 724 260 669 q 542 806 439 778 q 739 835 644 835 q 875 818 808 835 q 996 766 942 801 q 1082 674 1050 731 q 1114 538 1114 617 q 1077 392 1114 463 q 978 260 1040 322 q 837 146 915 197 q 674 57 758 94 q 508 -1 589 19 q 361 -21 428 -21 m 350 25 q 522 57 428 25 q 708 145 615 89 q 878 275 800 201 q 1002 431 956 349 q 1049 599 1049 514 q 1022 693 1049 656 q 953 752 996 731 q 861 783 911 774 q 765 792 811 792 q 666 784 715 792 q 568 761 617 776 q 599 753 581 760 q 631 735 617 746 q 644 707 644 724 q 629 689 644 694 q 518 635 578 672 q 400 545 458 597 q 294 432 342 493 q 217 308 246 371 q 188 189 188 246 q 350 25 188 25 m 700 897 q 690 900 690 894 q 693 907 690 903 q 697 913 696 911 q 765 965 732 943 q 829 1010 797 986 q 854 1027 839 1017 q 884 1046 869 1038 q 904 1054 899 1054 q 918 1044 913 1054 l 940 1013 q 969 969 957 989 q 996 926 981 950 q 1003 903 1003 915 q 998 897 1003 899 q 989 897 993 896 q 965 915 985 900 q 921 949 944 929 q 881 986 897 969 q 808 949 849 969 q 737 913 768 928 q 700 897 706 899 m 1028 1071 q 995 1081 1024 1071 q 931 1105 967 1090 q 863 1133 894 1119 q 822 1150 832 1146 q 811 1158 817 1153 q 806 1174 806 1164 q 811 1192 806 1181 q 825 1206 817 1204 q 840 1203 832 1206 q 865 1190 847 1200 q 917 1161 885 1179 q 981 1124 949 1143 q 1032 1090 1013 1106 q 1037 1086 1035 1089 q 1040 1081 1039 1083 q 1028 1071 1040 1071 z "}}}
